G04*
G04 #@! TF.GenerationSoftware,Altium Limited,Altium Designer,21.1.1 (26)*
G04*
G04 Layer_Color=65535*
%FSAX25Y25*%
%MOIN*%
G70*
G04*
G04 #@! TF.SameCoordinates,385E19C8-3E5E-4D6B-97ED-1EBFA2F8C446*
G04*
G04*
G04 #@! TF.FilePolarity,Positive*
G04*
G01*
G75*
%ADD10C,0.01181*%
%ADD11C,0.00500*%
%ADD12C,0.00394*%
%ADD13C,0.00472*%
%ADD14C,0.00354*%
%ADD15C,0.01000*%
D10*
X0142815Y0121653D02*
G03*
X0142815Y0121653I-0000197J0000000D01*
G01*
D11*
X0228358Y0030070D02*
X0239775D01*
X0016153D02*
X0027570D01*
X0016153D02*
Y0053692D01*
X0239775D01*
Y0030070D02*
Y0053692D01*
X0141043Y0150827D02*
Y0152362D01*
X0142579D01*
X0167854D02*
X0169390D01*
Y0150827D02*
Y0152362D01*
Y0124016D02*
Y0125551D01*
X0167854Y0124016D02*
X0169390D01*
X0141043D02*
X0142579D01*
X0141043D02*
Y0125551D01*
D12*
X0109882Y0168209D02*
X0115098D01*
Y0163779D02*
Y0168209D01*
Y0148065D02*
Y0158169D01*
X0104764D02*
X0115098D01*
X0104764D02*
Y0168158D01*
X0084907Y0148065D02*
X0115098D01*
X0084902Y0148071D02*
X0084907Y0148065D01*
X0084902Y0148071D02*
Y0168158D01*
X0104764D01*
X0164567Y0102559D02*
X0167520D01*
X0164567Y0104528D02*
X0167520D01*
X0164567D02*
X0166043Y0102559D01*
X0167520Y0104528D01*
X0160433Y0102559D02*
X0161909Y0104528D01*
X0158957D02*
X0160433Y0102559D01*
X0158957Y0104528D02*
X0161909D01*
X0158957Y0102559D02*
X0161909D01*
X0172953Y0186004D02*
X0174429Y0187972D01*
X0171476D02*
X0172953Y0186004D01*
X0171476Y0187972D02*
X0174429D01*
X0171476Y0186004D02*
X0174429D01*
X0023228Y0156595D02*
X0023228Y0083169D01*
X0045866D01*
Y0171358D01*
X0023228Y0156595D02*
X0045866D01*
X0023228Y0171358D02*
X0039370D01*
X0023228Y0162500D02*
Y0171358D01*
D13*
X0154965Y0098077D02*
X0154666Y0097777D01*
X0154516Y0097328D01*
Y0096728D01*
X0154666Y0096278D01*
X0154965Y0095978D01*
X0155265D01*
X0155565Y0096128D01*
X0155715Y0096278D01*
X0155865Y0096578D01*
X0156165Y0097478D01*
X0156315Y0097777D01*
X0156465Y0097927D01*
X0156765Y0098077D01*
X0157215D01*
X0157515Y0097777D01*
X0157665Y0097328D01*
Y0096728D01*
X0157515Y0096278D01*
X0157215Y0095978D01*
X0154516Y0099832D02*
X0157665D01*
X0154516Y0098782D02*
Y0100882D01*
Y0101256D02*
X0157665D01*
X0154516D02*
X0157665Y0102456D01*
X0154516Y0103656D02*
X0157665Y0102456D01*
X0154516Y0103656D02*
X0157665D01*
X0154516Y0104855D02*
Y0106505D01*
X0155715Y0105605D01*
Y0106055D01*
X0155865Y0106355D01*
X0156015Y0106505D01*
X0156465Y0106655D01*
X0156765D01*
X0157215Y0106505D01*
X0157515Y0106205D01*
X0157665Y0105755D01*
Y0105305D01*
X0157515Y0104855D01*
X0157365Y0104705D01*
X0157065Y0104555D01*
X0155265Y0107509D02*
X0155115D01*
X0154815Y0107659D01*
X0154666Y0107809D01*
X0154516Y0108109D01*
Y0108709D01*
X0154666Y0109009D01*
X0154815Y0109159D01*
X0155115Y0109309D01*
X0155415D01*
X0155715Y0109159D01*
X0156165Y0108859D01*
X0157665Y0107359D01*
Y0109459D01*
X0168820Y0098405D02*
X0171968D01*
X0168820D02*
X0171968Y0099605D01*
X0168820Y0100805D02*
X0171968Y0099605D01*
X0168820Y0100805D02*
X0171968D01*
X0169869Y0101854D02*
X0170019Y0101704D01*
X0170169Y0101854D01*
X0170019Y0102004D01*
X0169869Y0101854D01*
X0171669D02*
X0171819Y0101704D01*
X0171968Y0101854D01*
X0171819Y0102004D01*
X0171669Y0101854D01*
X0168820Y0102694D02*
X0171968D01*
X0168820D02*
Y0104044D01*
X0168970Y0104493D01*
X0169120Y0104643D01*
X0169419Y0104793D01*
X0169719D01*
X0170019Y0104643D01*
X0170169Y0104493D01*
X0170319Y0104044D01*
Y0102694D02*
Y0104044D01*
X0170469Y0104493D01*
X0170619Y0104643D01*
X0170919Y0104793D01*
X0171369D01*
X0171669Y0104643D01*
X0171819Y0104493D01*
X0171968Y0104044D01*
Y0102694D01*
X0168820Y0105798D02*
X0168970Y0105948D01*
X0168820Y0106098D01*
X0168670Y0105948D01*
X0168820Y0105798D01*
X0169869Y0105948D02*
X0171968D01*
X0168820Y0107103D02*
X0171369D01*
X0171819Y0107253D01*
X0171968Y0107552D01*
Y0107852D01*
X0169869Y0106653D02*
Y0107702D01*
X0165703Y0183220D02*
X0168852D01*
X0165703D02*
Y0184569D01*
X0165853Y0185019D01*
X0166003Y0185169D01*
X0166303Y0185319D01*
X0166603D01*
X0166903Y0185169D01*
X0167052Y0185019D01*
X0167202Y0184569D01*
Y0183220D01*
Y0184269D02*
X0168852Y0185319D01*
X0169902Y0186024D02*
Y0188423D01*
X0167352Y0188828D02*
Y0190178D01*
X0167202Y0190627D01*
X0167052Y0190777D01*
X0166753Y0190927D01*
X0166303D01*
X0166003Y0190777D01*
X0165853Y0190627D01*
X0165703Y0190178D01*
Y0188828D01*
X0168852D01*
X0165703Y0191932D02*
X0165853Y0192082D01*
X0165703Y0192232D01*
X0165553Y0192082D01*
X0165703Y0191932D01*
X0166753Y0192082D02*
X0168852D01*
D14*
X0033858Y0024028D02*
X0033727Y0024291D01*
X0033464Y0024553D01*
X0033202Y0024684D01*
X0032677D01*
X0032415Y0024553D01*
X0032152Y0024291D01*
X0032021Y0024028D01*
X0031890Y0023635D01*
Y0022979D01*
X0032021Y0022585D01*
X0032152Y0022323D01*
X0032415Y0022060D01*
X0032677Y0021929D01*
X0033202D01*
X0033464Y0022060D01*
X0033727Y0022323D01*
X0033858Y0022585D01*
Y0022979D01*
X0033202D02*
X0033858D01*
X0034488Y0024684D02*
Y0021929D01*
Y0024684D02*
X0036325Y0021929D01*
Y0024684D02*
Y0021929D01*
X0037086Y0024684D02*
Y0021929D01*
Y0024684D02*
X0038004D01*
X0038398Y0024553D01*
X0038660Y0024291D01*
X0038791Y0024028D01*
X0038922Y0023635D01*
Y0022979D01*
X0038791Y0022585D01*
X0038660Y0022323D01*
X0038398Y0022060D01*
X0038004Y0021929D01*
X0037086D01*
X0098524Y0168898D02*
X0101279D01*
X0098524D02*
Y0170079D01*
X0098655Y0170472D01*
X0098787Y0170603D01*
X0099049Y0170735D01*
X0099311D01*
X0099574Y0170603D01*
X0099705Y0170472D01*
X0099836Y0170079D01*
Y0168898D01*
Y0169816D02*
X0101279Y0170735D01*
X0098524Y0172270D02*
X0101279D01*
X0098524Y0171351D02*
Y0173188D01*
X0098918Y0175353D02*
X0098655Y0175091D01*
X0098524Y0174697D01*
Y0174172D01*
X0098655Y0173778D01*
X0098918Y0173516D01*
X0099180D01*
X0099443Y0173647D01*
X0099574Y0173778D01*
X0099705Y0174041D01*
X0099967Y0174828D01*
X0100099Y0175091D01*
X0100230Y0175222D01*
X0100492Y0175353D01*
X0100886D01*
X0101148Y0175091D01*
X0101279Y0174697D01*
Y0174172D01*
X0101148Y0173778D01*
X0100886Y0173516D01*
X0109416Y0142421D02*
X0109154Y0142290D01*
X0108892Y0142027D01*
X0108760Y0141765D01*
Y0141240D01*
X0108892Y0140978D01*
X0109154Y0140715D01*
X0109416Y0140584D01*
X0109810Y0140453D01*
X0110466D01*
X0110860Y0140584D01*
X0111122Y0140715D01*
X0111384Y0140978D01*
X0111516Y0141240D01*
Y0141765D01*
X0111384Y0142027D01*
X0111122Y0142290D01*
X0110860Y0142421D01*
X0110466D01*
Y0141765D02*
Y0142421D01*
X0108760Y0143051D02*
X0111516D01*
X0108760D02*
X0111516Y0144887D01*
X0108760D02*
X0111516D01*
X0108760Y0145649D02*
X0111516D01*
X0108760D02*
Y0146567D01*
X0108892Y0146961D01*
X0109154Y0147223D01*
X0109416Y0147354D01*
X0109810Y0147485D01*
X0110466D01*
X0110860Y0147354D01*
X0111122Y0147223D01*
X0111384Y0146961D01*
X0111516Y0146567D01*
Y0145649D01*
X0110302Y0168898D02*
Y0170079D01*
X0110171Y0170472D01*
X0110040Y0170603D01*
X0109777Y0170735D01*
X0109384D01*
X0109121Y0170603D01*
X0108990Y0170472D01*
X0108859Y0170079D01*
Y0168898D01*
X0111614D01*
X0108859Y0171351D02*
X0111614Y0172007D01*
X0108859Y0172663D02*
X0111614Y0172007D01*
X0108859Y0172663D02*
X0111614Y0173319D01*
X0108859Y0173975D02*
X0111614Y0173319D01*
X0108859Y0174526D02*
X0111614D01*
X0108859D02*
Y0175707D01*
X0108990Y0176101D01*
X0109121Y0176232D01*
X0109384Y0176363D01*
X0109646D01*
X0109908Y0176232D01*
X0110040Y0176101D01*
X0110171Y0175707D01*
Y0174526D01*
Y0175445D02*
X0111614Y0176363D01*
X0088485Y0140453D02*
X0091240D01*
X0088485D02*
Y0141634D01*
X0088616Y0142027D01*
X0088747Y0142158D01*
X0089010Y0142290D01*
X0089272D01*
X0089534Y0142158D01*
X0089666Y0142027D01*
X0089797Y0141634D01*
Y0140453D01*
Y0141371D02*
X0091240Y0142290D01*
X0088485Y0142906D02*
X0091240Y0144743D01*
X0088485D02*
X0091240Y0142906D01*
X0088485Y0145360D02*
X0091240D01*
X0088485D02*
Y0146278D01*
X0088616Y0146672D01*
X0088879Y0146934D01*
X0089141Y0147065D01*
X0089534Y0147197D01*
X0090191D01*
X0090584Y0147065D01*
X0090847Y0146934D01*
X0091109Y0146672D01*
X0091240Y0146278D01*
Y0145360D01*
X0098524Y0141371D02*
X0101279D01*
X0098524Y0140453D02*
Y0142290D01*
Y0142618D02*
X0101279Y0144455D01*
X0098524D02*
X0101279Y0142618D01*
X0098524Y0145071D02*
X0101279D01*
X0098524D02*
Y0145990D01*
X0098655Y0146383D01*
X0098918Y0146646D01*
X0099180Y0146777D01*
X0099574Y0146908D01*
X0100230D01*
X0100624Y0146777D01*
X0100886Y0146646D01*
X0101148Y0146383D01*
X0101279Y0145990D01*
Y0145071D01*
X0089239Y0170866D02*
X0088977Y0170735D01*
X0088714Y0170472D01*
X0088583Y0170210D01*
Y0169685D01*
X0088714Y0169422D01*
X0088977Y0169160D01*
X0089239Y0169029D01*
X0089633Y0168898D01*
X0090289D01*
X0090683Y0169029D01*
X0090945Y0169160D01*
X0091207Y0169422D01*
X0091339Y0169685D01*
Y0170210D01*
X0091207Y0170472D01*
X0090945Y0170735D01*
X0090683Y0170866D01*
X0088583Y0172558D02*
X0091339D01*
X0088583Y0171640D02*
Y0173477D01*
X0088977Y0175642D02*
X0088714Y0175379D01*
X0088583Y0174986D01*
Y0174461D01*
X0088714Y0174067D01*
X0088977Y0173805D01*
X0089239D01*
X0089502Y0173936D01*
X0089633Y0174067D01*
X0089764Y0174329D01*
X0090026Y0175117D01*
X0090158Y0175379D01*
X0090289Y0175510D01*
X0090551Y0175642D01*
X0090945D01*
X0091207Y0175379D01*
X0091339Y0174986D01*
Y0174461D01*
X0091207Y0174067D01*
X0090945Y0173805D01*
X0163803Y0090386D02*
Y0087237D01*
Y0090386D02*
X0165152D01*
X0165602Y0090236D01*
X0165752Y0090086D01*
X0165902Y0089786D01*
Y0089486D01*
X0165752Y0089187D01*
X0165602Y0089037D01*
X0165152Y0088887D01*
X0163803D01*
X0164852D02*
X0165902Y0087237D01*
X0166607Y0089786D02*
X0166907Y0089936D01*
X0167357Y0090386D01*
Y0087237D01*
X0169066Y0089636D02*
Y0089786D01*
X0169216Y0090086D01*
X0169366Y0090236D01*
X0169666Y0090386D01*
X0170266D01*
X0170565Y0090236D01*
X0170715Y0090086D01*
X0170865Y0089786D01*
Y0089486D01*
X0170715Y0089187D01*
X0170416Y0088737D01*
X0168916Y0087237D01*
X0171015D01*
X0163782Y0112601D02*
Y0109452D01*
Y0112601D02*
X0164832D01*
X0165281Y0112451D01*
X0165581Y0112151D01*
X0165731Y0111851D01*
X0165881Y0111401D01*
Y0110651D01*
X0165731Y0110202D01*
X0165581Y0109902D01*
X0165281Y0109602D01*
X0164832Y0109452D01*
X0163782D01*
X0166886Y0112601D02*
X0168535D01*
X0167636Y0111401D01*
X0168086D01*
X0168385Y0111251D01*
X0168535Y0111101D01*
X0168685Y0110651D01*
Y0110352D01*
X0168535Y0109902D01*
X0168236Y0109602D01*
X0167786Y0109452D01*
X0167336D01*
X0166886Y0109602D01*
X0166736Y0109752D01*
X0166586Y0110052D01*
X0035024Y0175098D02*
Y0172699D01*
X0034874Y0172249D01*
X0034724Y0172099D01*
X0034424Y0171949D01*
X0034124D01*
X0033824Y0172099D01*
X0033674Y0172249D01*
X0033524Y0172699D01*
Y0172999D01*
X0037633Y0175098D02*
X0036133D01*
X0035983Y0173749D01*
X0036133Y0173898D01*
X0036583Y0174048D01*
X0037033D01*
X0037483Y0173898D01*
X0037783Y0173599D01*
X0037933Y0173149D01*
Y0172849D01*
X0037783Y0172399D01*
X0037483Y0172099D01*
X0037033Y0171949D01*
X0036583D01*
X0036133Y0172099D01*
X0035983Y0172249D01*
X0035833Y0172549D01*
X0154341Y0161338D02*
Y0159089D01*
X0154491Y0158639D01*
X0154791Y0158339D01*
X0155241Y0158189D01*
X0155541D01*
X0155991Y0158339D01*
X0156291Y0158639D01*
X0156441Y0159089D01*
Y0161338D01*
X0157310Y0160738D02*
X0157610Y0160888D01*
X0158060Y0161338D01*
Y0158189D01*
X0080004Y0159055D02*
Y0156656D01*
X0079854Y0156206D01*
X0079704Y0156056D01*
X0079404Y0155906D01*
X0079104D01*
X0078804Y0156056D01*
X0078654Y0156206D01*
X0078504Y0156656D01*
Y0156956D01*
X0080964Y0158305D02*
Y0158455D01*
X0081113Y0158755D01*
X0081264Y0158905D01*
X0081563Y0159055D01*
X0082163D01*
X0082463Y0158905D01*
X0082613Y0158755D01*
X0082763Y0158455D01*
Y0158155D01*
X0082613Y0157855D01*
X0082313Y0157405D01*
X0080814Y0155906D01*
X0082913D01*
X0122116Y0060137D02*
Y0057738D01*
X0121966Y0057288D01*
X0121816Y0057139D01*
X0121516Y0056989D01*
X0121216D01*
X0120916Y0057139D01*
X0120766Y0057288D01*
X0120616Y0057738D01*
Y0058038D01*
X0122925Y0059538D02*
X0123225Y0059688D01*
X0123675Y0060137D01*
Y0056989D01*
X0049628Y0101968D02*
Y0098819D01*
Y0101968D02*
X0050977D01*
X0051427Y0101818D01*
X0051577Y0101668D01*
X0051727Y0101368D01*
Y0101068D01*
X0051577Y0100769D01*
X0051427Y0100619D01*
X0050977Y0100469D01*
X0049628D01*
X0050677D02*
X0051727Y0098819D01*
X0052432Y0101368D02*
X0052732Y0101518D01*
X0053181Y0101968D01*
Y0098819D01*
X0054741Y0101368D02*
X0055041Y0101518D01*
X0055491Y0101968D01*
Y0098819D01*
X0049839Y0115945D02*
Y0112796D01*
Y0115945D02*
X0051188D01*
X0051638Y0115795D01*
X0051788Y0115645D01*
X0051938Y0115345D01*
Y0115045D01*
X0051788Y0114745D01*
X0051638Y0114595D01*
X0051188Y0114445D01*
X0049839D01*
X0050888D02*
X0051938Y0112796D01*
X0052643Y0115345D02*
X0052943Y0115495D01*
X0053392Y0115945D01*
Y0112796D01*
X0055852Y0115945D02*
X0055402Y0115795D01*
X0055102Y0115345D01*
X0054952Y0114595D01*
Y0114145D01*
X0055102Y0113395D01*
X0055402Y0112946D01*
X0055852Y0112796D01*
X0056151D01*
X0056601Y0112946D01*
X0056901Y0113395D01*
X0057051Y0114145D01*
Y0114595D01*
X0056901Y0115345D01*
X0056601Y0115795D01*
X0056151Y0115945D01*
X0055852D01*
X0049887Y0121949D02*
Y0118799D01*
Y0121949D02*
X0051237D01*
X0051687Y0121799D01*
X0051836Y0121649D01*
X0051986Y0121349D01*
Y0121049D01*
X0051836Y0120749D01*
X0051687Y0120599D01*
X0051237Y0120449D01*
X0049887D01*
X0050937D02*
X0051986Y0118799D01*
X0054641Y0120899D02*
X0054491Y0120449D01*
X0054191Y0120149D01*
X0053741Y0119999D01*
X0053591D01*
X0053141Y0120149D01*
X0052841Y0120449D01*
X0052691Y0120899D01*
Y0121049D01*
X0052841Y0121499D01*
X0053141Y0121799D01*
X0053591Y0121949D01*
X0053741D01*
X0054191Y0121799D01*
X0054491Y0121499D01*
X0054641Y0120899D01*
Y0120149D01*
X0054491Y0119399D01*
X0054191Y0118949D01*
X0053741Y0118799D01*
X0053441D01*
X0052991Y0118949D01*
X0052841Y0119249D01*
X0049911Y0135728D02*
Y0132579D01*
Y0135728D02*
X0051260D01*
X0051710Y0135578D01*
X0051860Y0135428D01*
X0052010Y0135128D01*
Y0134828D01*
X0051860Y0134528D01*
X0051710Y0134379D01*
X0051260Y0134229D01*
X0049911D01*
X0050960D02*
X0052010Y0132579D01*
X0053464Y0135728D02*
X0053014Y0135578D01*
X0052864Y0135278D01*
Y0134978D01*
X0053014Y0134678D01*
X0053314Y0134528D01*
X0053914Y0134379D01*
X0054364Y0134229D01*
X0054664Y0133929D01*
X0054814Y0133629D01*
Y0133179D01*
X0054664Y0132879D01*
X0054514Y0132729D01*
X0054064Y0132579D01*
X0053464D01*
X0053014Y0132729D01*
X0052864Y0132879D01*
X0052715Y0133179D01*
Y0133629D01*
X0052864Y0133929D01*
X0053164Y0134229D01*
X0053614Y0134379D01*
X0054214Y0134528D01*
X0054514Y0134678D01*
X0054664Y0134978D01*
Y0135278D01*
X0054514Y0135578D01*
X0054064Y0135728D01*
X0053464D01*
X0049911Y0141732D02*
Y0138583D01*
Y0141732D02*
X0051260D01*
X0051710Y0141582D01*
X0051860Y0141432D01*
X0052010Y0141132D01*
Y0140832D01*
X0051860Y0140532D01*
X0051710Y0140382D01*
X0051260Y0140232D01*
X0049911D01*
X0050960D02*
X0052010Y0138583D01*
X0054814Y0141732D02*
X0053314Y0138583D01*
X0052715Y0141732D02*
X0054814D01*
X0049679Y0161238D02*
Y0158089D01*
Y0161238D02*
X0051028D01*
X0051478Y0161088D01*
X0051628Y0160938D01*
X0051778Y0160638D01*
Y0160338D01*
X0051628Y0160038D01*
X0051478Y0159888D01*
X0051028Y0159738D01*
X0049679D01*
X0050728D02*
X0051778Y0158089D01*
X0054282Y0160788D02*
X0054132Y0161088D01*
X0053682Y0161238D01*
X0053383D01*
X0052933Y0161088D01*
X0052633Y0160638D01*
X0052483Y0159888D01*
Y0159138D01*
X0052633Y0158539D01*
X0052933Y0158239D01*
X0053383Y0158089D01*
X0053532D01*
X0053982Y0158239D01*
X0054282Y0158539D01*
X0054432Y0158988D01*
Y0159138D01*
X0054282Y0159588D01*
X0053982Y0159888D01*
X0053532Y0160038D01*
X0053383D01*
X0052933Y0159888D01*
X0052633Y0159588D01*
X0052483Y0159138D01*
X0049652Y0155166D02*
Y0152017D01*
Y0155166D02*
X0051002D01*
X0051452Y0155016D01*
X0051602Y0154866D01*
X0051752Y0154566D01*
Y0154266D01*
X0051602Y0153966D01*
X0051452Y0153816D01*
X0051002Y0153666D01*
X0049652D01*
X0050702D02*
X0051752Y0152017D01*
X0054256Y0155166D02*
X0052756D01*
X0052606Y0153816D01*
X0052756Y0153966D01*
X0053206Y0154116D01*
X0053656D01*
X0054106Y0153966D01*
X0054406Y0153666D01*
X0054556Y0153217D01*
Y0152917D01*
X0054406Y0152467D01*
X0054106Y0152167D01*
X0053656Y0152017D01*
X0053206D01*
X0052756Y0152167D01*
X0052606Y0152317D01*
X0052456Y0152617D01*
X0175328Y0179823D02*
Y0176674D01*
Y0179823D02*
X0176677D01*
X0177127Y0179673D01*
X0177277Y0179523D01*
X0177427Y0179223D01*
Y0178923D01*
X0177277Y0178623D01*
X0177127Y0178473D01*
X0176677Y0178323D01*
X0175328D01*
X0176377D02*
X0177427Y0176674D01*
X0179631Y0179823D02*
X0178132Y0177723D01*
X0180381D01*
X0179631Y0179823D02*
Y0176674D01*
X0158398Y0090301D02*
Y0087151D01*
Y0090301D02*
X0159747D01*
X0160197Y0090150D01*
X0160347Y0090001D01*
X0160497Y0089701D01*
Y0089401D01*
X0160347Y0089101D01*
X0160197Y0088951D01*
X0159747Y0088801D01*
X0158398D01*
X0159447D02*
X0160497Y0087151D01*
X0161502Y0090301D02*
X0163151D01*
X0162251Y0089101D01*
X0162701D01*
X0163001Y0088951D01*
X0163151Y0088801D01*
X0163301Y0088351D01*
Y0088051D01*
X0163151Y0087601D01*
X0162851Y0087301D01*
X0162401Y0087151D01*
X0161951D01*
X0161502Y0087301D01*
X0161352Y0087451D01*
X0161202Y0087751D01*
X0129733Y0140551D02*
Y0137402D01*
Y0140551D02*
X0131083D01*
X0131533Y0140401D01*
X0131683Y0140251D01*
X0131833Y0139951D01*
Y0139651D01*
X0131683Y0139351D01*
X0131533Y0139201D01*
X0131083Y0139051D01*
X0129733D01*
X0130783D02*
X0131833Y0137402D01*
X0132687Y0139801D02*
Y0139951D01*
X0132837Y0140251D01*
X0132987Y0140401D01*
X0133287Y0140551D01*
X0133887D01*
X0134187Y0140401D01*
X0134337Y0140251D01*
X0134487Y0139951D01*
Y0139651D01*
X0134337Y0139351D01*
X0134037Y0138901D01*
X0132537Y0137402D01*
X0134637D01*
X0162495Y0063090D02*
Y0059941D01*
Y0063090D02*
X0163844D01*
X0164294Y0062940D01*
X0164444Y0062790D01*
X0164594Y0062490D01*
Y0062191D01*
X0164444Y0061891D01*
X0164294Y0061741D01*
X0163844Y0061591D01*
X0162495D01*
X0163544D02*
X0164594Y0059941D01*
X0165299Y0062490D02*
X0165599Y0062640D01*
X0166049Y0063090D01*
Y0059941D01*
X0175319Y0188593D02*
Y0185444D01*
Y0188593D02*
X0176368D01*
X0176818Y0188444D01*
X0177118Y0188144D01*
X0177268Y0187844D01*
X0177418Y0187394D01*
Y0186644D01*
X0177268Y0186194D01*
X0177118Y0185894D01*
X0176818Y0185594D01*
X0176368Y0185444D01*
X0175319D01*
X0178273Y0187844D02*
Y0187994D01*
X0178423Y0188294D01*
X0178572Y0188444D01*
X0178872Y0188593D01*
X0179472D01*
X0179772Y0188444D01*
X0179922Y0188294D01*
X0180072Y0187994D01*
Y0187694D01*
X0179922Y0187394D01*
X0179622Y0186944D01*
X0178123Y0185444D01*
X0180222D01*
X0158556Y0112601D02*
Y0109452D01*
Y0112601D02*
X0159606D01*
X0160055Y0112451D01*
X0160355Y0112151D01*
X0160505Y0111851D01*
X0160655Y0111401D01*
Y0110651D01*
X0160505Y0110202D01*
X0160355Y0109902D01*
X0160055Y0109602D01*
X0159606Y0109452D01*
X0158556D01*
X0161360Y0112001D02*
X0161660Y0112151D01*
X0162110Y0112601D01*
Y0109452D01*
X0181522Y0149545D02*
X0181372Y0149845D01*
X0181072Y0150145D01*
X0180773Y0150295D01*
X0180173D01*
X0179873Y0150145D01*
X0179573Y0149845D01*
X0179423Y0149545D01*
X0179273Y0149095D01*
Y0148346D01*
X0179423Y0147896D01*
X0179573Y0147596D01*
X0179873Y0147296D01*
X0180173Y0147146D01*
X0180773D01*
X0181072Y0147296D01*
X0181372Y0147596D01*
X0181522Y0147896D01*
X0182707Y0150295D02*
X0184356D01*
X0183457Y0149095D01*
X0183907D01*
X0184206Y0148945D01*
X0184356Y0148795D01*
X0184506Y0148346D01*
Y0148046D01*
X0184356Y0147596D01*
X0184056Y0147296D01*
X0183607Y0147146D01*
X0183157D01*
X0182707Y0147296D01*
X0182557Y0147446D01*
X0182407Y0147746D01*
X0128145Y0128914D02*
X0127995Y0129214D01*
X0127695Y0129514D01*
X0127395Y0129664D01*
X0126796D01*
X0126496Y0129514D01*
X0126196Y0129214D01*
X0126046Y0128914D01*
X0125896Y0128465D01*
Y0127715D01*
X0126046Y0127265D01*
X0126196Y0126965D01*
X0126496Y0126665D01*
X0126796Y0126515D01*
X0127395D01*
X0127695Y0126665D01*
X0127995Y0126965D01*
X0128145Y0127265D01*
X0129180Y0128914D02*
Y0129064D01*
X0129330Y0129364D01*
X0129480Y0129514D01*
X0129780Y0129664D01*
X0130379D01*
X0130679Y0129514D01*
X0130829Y0129364D01*
X0130979Y0129064D01*
Y0128764D01*
X0130829Y0128465D01*
X0130529Y0128015D01*
X0129030Y0126515D01*
X0131129D01*
X0152582Y0117666D02*
X0152433Y0117966D01*
X0152133Y0118266D01*
X0151833Y0118416D01*
X0151233D01*
X0150933Y0118266D01*
X0150633Y0117966D01*
X0150483Y0117666D01*
X0150333Y0117216D01*
Y0116466D01*
X0150483Y0116016D01*
X0150633Y0115717D01*
X0150933Y0115417D01*
X0151233Y0115267D01*
X0151833D01*
X0152133Y0115417D01*
X0152433Y0115717D01*
X0152582Y0116016D01*
X0153467Y0117816D02*
X0153767Y0117966D01*
X0154217Y0118416D01*
Y0115267D01*
D15*
X-0035433Y0222441D02*
G03*
X-0039370Y0218504I0000000J-0003937D01*
G01*
X0255906D02*
G03*
X0251969Y0222441I-0003937J0000000D01*
G01*
X0000000Y0011811D02*
G03*
X0011811Y0000000I0011811J0000000D01*
G01*
X0244094D02*
G03*
X0255906Y0011811I0000000J0011811D01*
G01*
X0019685Y0139764D02*
G03*
X0015748Y0143701I-0003937J0000000D01*
G01*
X0003937Y0076772D02*
G03*
X0000000Y0072835I0000000J-0003937D01*
G01*
X-0039370Y0147638D02*
G03*
X-0035433Y0143701I0003937J0000000D01*
G01*
X0015748Y0076772D02*
G03*
X0019685Y0080709I0000000J0003937D01*
G01*
X0255906Y0011811D02*
Y0218504D01*
X-0035433Y0222441D02*
X0251969D01*
X-0039370Y0147638D02*
Y0218504D01*
X-0035433Y0143701D02*
X0015748D01*
X0000000Y0011811D02*
Y0072835D01*
X0011811Y0000000D02*
X0244094D01*
X0019685Y0080709D02*
Y0139764D01*
X0003937Y0076772D02*
X0015748D01*
M02*
