G04*
G04 #@! TF.GenerationSoftware,Altium Limited,Altium Designer,21.1.1 (26)*
G04*
G04 Layer_Color=16711935*
%FSAX25Y25*%
%MOIN*%
G70*
G04*
G04 #@! TF.SameCoordinates,385E19C8-3E5E-4D6B-97ED-1EBFA2F8C446*
G04*
G04*
G04 #@! TF.FilePolarity,Negative*
G04*
G01*
G75*
%ADD15C,0.01000*%
%ADD32C,0.09055*%
%ADD33C,0.06528*%
%ADD34R,0.06528X0.06528*%
%ADD35C,0.04961*%
%ADD36R,0.04961X0.04961*%
%ADD37R,0.06528X0.06528*%
%ADD38C,0.06496*%
%ADD39R,0.06496X0.06496*%
%ADD40C,0.24409*%
D15*
X-0035433Y0222441D02*
G03*
X-0039370Y0218504I0000000J-0003937D01*
G01*
X0255906D02*
G03*
X0251969Y0222441I-0003937J0000000D01*
G01*
X0000000Y0011811D02*
G03*
X0011811Y0000000I0011811J0000000D01*
G01*
X0244094D02*
G03*
X0255906Y0011811I0000000J0011811D01*
G01*
X0019685Y0139764D02*
G03*
X0015748Y0143701I-0003937J0000000D01*
G01*
X0003937Y0076772D02*
G03*
X0000000Y0072835I0000000J-0003937D01*
G01*
X-0039370Y0147638D02*
G03*
X-0035433Y0143701I0003937J0000000D01*
G01*
X0015748Y0076772D02*
G03*
X0019685Y0080709I0000000J0003937D01*
G01*
X0255906Y0011811D02*
Y0218504D01*
X-0035433Y0222441D02*
X0251969D01*
X-0039370Y0147638D02*
Y0218504D01*
X-0035433Y0143701D02*
X0015748D01*
X0000000Y0011811D02*
Y0072835D01*
X0011811Y0000000D02*
X0244094D01*
X0019685Y0080709D02*
Y0139764D01*
X0003937Y0076772D02*
X0015748D01*
D32*
X0233858Y0046634D02*
D03*
X0022047D02*
D03*
D33*
X0089902Y0163071D02*
D03*
Y0153071D02*
D03*
X0099902Y0163071D02*
D03*
Y0153071D02*
D03*
X0109902D02*
D03*
X0036614Y0142028D02*
D03*
X0036417Y0151870D02*
D03*
X0036614Y0122343D02*
D03*
Y0132185D02*
D03*
Y0102657D02*
D03*
Y0112500D02*
D03*
Y0092815D02*
D03*
D34*
X0109902Y0163071D02*
D03*
D35*
X0133366Y0159764D02*
D03*
X0127154D02*
D03*
Y0154764D02*
D03*
X0133366Y0164764D02*
D03*
D36*
X0127154D02*
D03*
D37*
X0036614Y0161713D02*
D03*
D38*
X0222953Y0211693D02*
D03*
Y0201693D02*
D03*
X0212953Y0211693D02*
D03*
Y0201693D02*
D03*
X0202953Y0211693D02*
D03*
Y0201693D02*
D03*
X0192953Y0211693D02*
D03*
Y0201693D02*
D03*
X0182953Y0211693D02*
D03*
Y0201693D02*
D03*
X0172953Y0211693D02*
D03*
Y0201693D02*
D03*
X0162953Y0211693D02*
D03*
Y0201693D02*
D03*
X0152953Y0211693D02*
D03*
Y0201693D02*
D03*
X0142953Y0211693D02*
D03*
Y0201693D02*
D03*
X0132953Y0211693D02*
D03*
Y0201693D02*
D03*
X0122953Y0211693D02*
D03*
Y0201693D02*
D03*
X0112953Y0211693D02*
D03*
Y0201693D02*
D03*
X0102953Y0211693D02*
D03*
Y0201693D02*
D03*
X0092953Y0211693D02*
D03*
Y0201693D02*
D03*
X0082953Y0211693D02*
D03*
Y0201693D02*
D03*
X0072953Y0211693D02*
D03*
Y0201693D02*
D03*
X0062953Y0211693D02*
D03*
Y0201693D02*
D03*
X0052953Y0211693D02*
D03*
Y0201693D02*
D03*
X0042953Y0211693D02*
D03*
Y0201693D02*
D03*
X0032953Y0211693D02*
D03*
D39*
Y0201693D02*
D03*
D40*
X0242126Y0206693D02*
D03*
Y0013780D02*
D03*
X0013780Y0206693D02*
D03*
Y0013780D02*
D03*
M02*
