G04*
G04 #@! TF.GenerationSoftware,Altium Limited,Altium Designer,21.1.1 (26)*
G04*
G04 Layer_Physical_Order=2*
G04 Layer_Color=16711680*
%FSAX25Y25*%
%MOIN*%
G70*
G04*
G04 #@! TF.SameCoordinates,385E19C8-3E5E-4D6B-97ED-1EBFA2F8C446*
G04*
G04*
G04 #@! TF.FilePolarity,Positive*
G04*
G01*
G75*
%ADD10C,0.01181*%
%ADD15C,0.01000*%
%ADD32C,0.09055*%
%ADD38C,0.06496*%
%ADD39R,0.06496X0.06496*%
%ADD43C,0.01968*%
%ADD45C,0.05937*%
%ADD46R,0.05937X0.05937*%
%ADD47C,0.04370*%
%ADD48R,0.04370X0.04370*%
%ADD49R,0.05937X0.05937*%
%ADD50C,0.02362*%
G36*
X-0035433Y0221237D02*
X0251969D01*
X0252238Y0221237D01*
X0252766Y0221132D01*
X0253263Y0220926D01*
X0253711Y0220627D01*
X0254091Y0220246D01*
X0254390Y0219798D01*
X0254596Y0219301D01*
X0254701Y0218773D01*
Y0218504D01*
Y0011811D01*
Y0011116D01*
X0254520Y0009737D01*
X0254160Y0008394D01*
X0253628Y0007110D01*
X0252933Y0005906D01*
X0252086Y0004803D01*
X0251103Y0003819D01*
X0250000Y0002973D01*
X0248796Y0002278D01*
X0247511Y0001746D01*
X0246168Y0001386D01*
X0244790Y0001204D01*
X0011116D01*
X0009737Y0001386D01*
X0008394Y0001746D01*
X0007110Y0002278D01*
X0005906Y0002973D01*
X0004803Y0003819D01*
X0003819Y0004803D01*
X0002973Y0005906D01*
X0002278Y0007110D01*
X0001746Y0008394D01*
X0001386Y0009737D01*
X0001204Y0011116D01*
Y0011811D01*
Y0072835D01*
Y0073104D01*
X0001309Y0073632D01*
X0001515Y0074129D01*
X0001814Y0074577D01*
X0002195Y0074957D01*
X0002643Y0075256D01*
X0003140Y0075463D01*
X0003668Y0075568D01*
X0003937Y0075568D01*
X0015748D01*
X0015777Y0075573D01*
X0015807Y0075569D01*
X0016193Y0075588D01*
X0016280Y0075610D01*
X0016369D01*
X0017126Y0075760D01*
X0017235Y0075805D01*
X0017352Y0075829D01*
X0018065Y0076124D01*
X0018163Y0076190D01*
X0018273Y0076235D01*
X0018915Y0076664D01*
X0018999Y0076748D01*
X0019097Y0076814D01*
X0019643Y0077359D01*
X0019709Y0077458D01*
X0019793Y0077542D01*
X0020221Y0078184D01*
X0020267Y0078293D01*
X0020333Y0078392D01*
X0020628Y0079105D01*
X0020651Y0079221D01*
X0020697Y0079331D01*
X0020847Y0080088D01*
Y0080177D01*
X0020869Y0080264D01*
X0020888Y0080650D01*
X0020883Y0080679D01*
X0020889Y0080709D01*
Y0139764D01*
X0020883Y0139793D01*
X0020888Y0139823D01*
X0020869Y0140209D01*
X0020847Y0140295D01*
Y0140385D01*
X0020697Y0141142D01*
X0020651Y0141251D01*
X0020628Y0141367D01*
X0020333Y0142080D01*
X0020267Y0142179D01*
X0020221Y0142289D01*
X0019793Y0142930D01*
X0019709Y0143014D01*
X0019643Y0143113D01*
X0019097Y0143659D01*
X0018999Y0143725D01*
X0018915Y0143808D01*
X0018273Y0144237D01*
X0018163Y0144282D01*
X0018065Y0144349D01*
X0017352Y0144644D01*
X0017235Y0144667D01*
X0017126Y0144712D01*
X0016369Y0144863D01*
X0016280D01*
X0016193Y0144885D01*
X0015807Y0144904D01*
X0015777Y0144899D01*
X0015748Y0144905D01*
X-0035702D01*
X-0036230Y0145010D01*
X-0036727Y0145216D01*
X-0037175Y0145515D01*
X-0037556Y0145896D01*
X-0037855Y0146343D01*
X-0038061Y0146841D01*
X-0038166Y0147369D01*
Y0147638D01*
Y0218504D01*
Y0218773D01*
X-0038061Y0219301D01*
X-0037855Y0219798D01*
X-0037556Y0220246D01*
X-0037175Y0220627D01*
X-0036727Y0220926D01*
X-0036230Y0221132D01*
X-0035702Y0221237D01*
X-0035433Y0221237D01*
D02*
G37*
%LPC*%
G36*
X0104724Y0220600D02*
X0043673D01*
X0043097Y0220485D01*
X0042609Y0220159D01*
X0036928Y0214478D01*
X0036601Y0213990D01*
X0036581Y0213889D01*
X0036054Y0213801D01*
X0035946Y0213989D01*
X0035249Y0214686D01*
X0034396Y0215178D01*
X0033445Y0215433D01*
X0032460D01*
X0031509Y0215178D01*
X0030656Y0214686D01*
X0029960Y0213989D01*
X0029467Y0213137D01*
X0029213Y0212185D01*
Y0211200D01*
X0029467Y0210249D01*
X0029960Y0209396D01*
X0030656Y0208700D01*
X0031509Y0208208D01*
X0032460Y0207953D01*
X0033445D01*
X0034396Y0208208D01*
X0035249Y0208700D01*
X0035946Y0209396D01*
X0035987Y0209468D01*
X0036487Y0209334D01*
Y0207356D01*
X0034564Y0205433D01*
X0029213D01*
Y0197953D01*
X0036693D01*
Y0203304D01*
X0039057Y0205668D01*
X0039057Y0205668D01*
X0039383Y0206156D01*
X0039497Y0206732D01*
X0039497Y0206732D01*
Y0209273D01*
X0039703Y0209328D01*
X0039997Y0209359D01*
X0040656Y0208700D01*
X0041509Y0208208D01*
X0042460Y0207953D01*
X0043445D01*
X0044396Y0208208D01*
X0045249Y0208700D01*
X0045946Y0209396D01*
X0046438Y0210249D01*
X0046693Y0211200D01*
Y0212185D01*
X0046438Y0213137D01*
X0045946Y0213989D01*
X0045249Y0214686D01*
X0044396Y0215178D01*
X0043445Y0215433D01*
X0042847D01*
X0042640Y0215933D01*
X0044297Y0217589D01*
X0104101D01*
X0105975Y0215715D01*
Y0214667D01*
X0105475Y0214460D01*
X0105249Y0214686D01*
X0104396Y0215178D01*
X0103445Y0215433D01*
X0102460D01*
X0101509Y0215178D01*
X0100656Y0214686D01*
X0099960Y0213989D01*
X0099467Y0213137D01*
X0099213Y0212185D01*
Y0211200D01*
X0099467Y0210249D01*
X0099960Y0209396D01*
X0100656Y0208700D01*
X0101509Y0208208D01*
X0102460Y0207953D01*
X0103445D01*
X0104396Y0208208D01*
X0105249Y0208700D01*
X0105672Y0209123D01*
X0106172Y0208915D01*
Y0204470D01*
X0105672Y0204263D01*
X0105249Y0204686D01*
X0104396Y0205178D01*
X0103445Y0205433D01*
X0102460D01*
X0101509Y0205178D01*
X0100656Y0204686D01*
X0099960Y0203989D01*
X0099467Y0203137D01*
X0099213Y0202185D01*
Y0201201D01*
X0099467Y0200249D01*
X0099960Y0199396D01*
X0100656Y0198700D01*
X0101509Y0198208D01*
X0102460Y0197953D01*
X0103445D01*
X0104396Y0198208D01*
X0105249Y0198700D01*
X0105475Y0198926D01*
X0105975Y0198719D01*
Y0166208D01*
X0106090Y0165632D01*
X0106412Y0165150D01*
Y0165055D01*
X0106441Y0164910D01*
Y0159610D01*
X0110283D01*
Y0158782D01*
X0110398Y0158206D01*
X0110724Y0157718D01*
X0111354Y0157088D01*
X0111096Y0156639D01*
X0110396Y0156827D01*
X0110295D01*
Y0153465D01*
X0113657D01*
Y0153565D01*
X0113470Y0154265D01*
X0113918Y0154524D01*
X0115522Y0152920D01*
Y0135256D01*
X0115637Y0134680D01*
X0115963Y0134192D01*
X0124037Y0126117D01*
X0124526Y0125791D01*
X0125102Y0125676D01*
X0131898D01*
X0131912Y0125671D01*
X0133954Y0123629D01*
Y0123024D01*
X0134068Y0122448D01*
X0134395Y0121959D01*
X0136132Y0120222D01*
X0136621Y0119895D01*
X0137197Y0119781D01*
X0137197Y0119781D01*
X0141238D01*
Y0118659D01*
X0141211Y0118522D01*
Y0112964D01*
X0141326Y0112388D01*
X0141652Y0111900D01*
X0142805Y0110747D01*
X0143294Y0110420D01*
X0143870Y0110306D01*
X0158985D01*
X0159561Y0110420D01*
X0160049Y0110747D01*
X0161127Y0111824D01*
X0161453Y0112313D01*
X0161568Y0112889D01*
Y0114440D01*
X0161811Y0115027D01*
Y0115279D01*
X0174310Y0127778D01*
X0178789D01*
X0179195Y0127610D01*
X0179860D01*
X0180475Y0127864D01*
X0180946Y0128335D01*
X0181201Y0128950D01*
Y0129616D01*
X0180946Y0130231D01*
X0180475Y0130701D01*
X0179860Y0130956D01*
X0179195D01*
X0178789Y0130788D01*
X0173686D01*
X0173110Y0130674D01*
X0172622Y0130347D01*
X0159149Y0116874D01*
X0158873Y0116462D01*
X0158719Y0116308D01*
X0158717Y0116302D01*
X0158176Y0116302D01*
X0158032Y0116651D01*
X0157478Y0117204D01*
X0156756Y0117503D01*
Y0115536D01*
X0156363D01*
Y0115142D01*
X0154395D01*
X0154694Y0114420D01*
X0155248Y0113867D01*
X0155369Y0113816D01*
X0155270Y0113316D01*
X0144493D01*
X0144222Y0113588D01*
Y0115357D01*
X0144722Y0115683D01*
X0145041Y0115551D01*
X0145707D01*
X0146322Y0115806D01*
X0146792Y0116277D01*
X0147047Y0116892D01*
Y0117533D01*
X0153044Y0123530D01*
X0153284Y0123889D01*
X0153368Y0124311D01*
Y0126100D01*
X0153682Y0126414D01*
X0153937Y0127029D01*
Y0127695D01*
X0153682Y0128310D01*
X0153212Y0128781D01*
X0152597Y0129035D01*
X0151931D01*
X0151316Y0128781D01*
X0150845Y0128310D01*
X0150591Y0127695D01*
Y0127029D01*
X0150845Y0126414D01*
X0151160Y0126100D01*
Y0124768D01*
X0145289Y0118898D01*
X0145041D01*
X0144749Y0118777D01*
X0144249Y0119111D01*
Y0120366D01*
X0144492Y0120953D01*
Y0121619D01*
X0144238Y0122234D01*
X0143767Y0122705D01*
X0143152Y0122959D01*
X0142486D01*
X0142081Y0122791D01*
X0139394D01*
X0139381Y0122811D01*
X0139240Y0123291D01*
X0139608Y0123659D01*
X0139862Y0124274D01*
Y0124718D01*
X0144055Y0128911D01*
X0144294Y0129269D01*
X0144329Y0129446D01*
X0144448Y0129495D01*
X0144919Y0129965D01*
X0145174Y0130580D01*
Y0131246D01*
X0144919Y0131861D01*
X0144448Y0132332D01*
X0143833Y0132586D01*
X0143167D01*
X0142552Y0132332D01*
X0142082Y0131861D01*
X0141827Y0131246D01*
Y0130580D01*
X0142054Y0130032D01*
X0138301Y0126279D01*
X0137856D01*
X0137241Y0126025D01*
X0136880Y0125663D01*
X0136388Y0125584D01*
X0136246Y0125594D01*
X0134041Y0127799D01*
X0133956Y0128005D01*
X0133774Y0128471D01*
X0134327Y0129024D01*
X0134626Y0129746D01*
X0130691D01*
X0130922Y0129187D01*
X0130674Y0128687D01*
X0125725D01*
X0118533Y0135879D01*
Y0153543D01*
X0118533Y0153543D01*
X0118418Y0154119D01*
X0118092Y0154608D01*
X0118092Y0154608D01*
X0113523Y0159177D01*
X0113362Y0159610D01*
X0113362Y0159610D01*
X0113362D01*
X0113362Y0159610D01*
Y0166532D01*
X0109185D01*
X0108986Y0166830D01*
Y0199037D01*
X0109068Y0199160D01*
X0109183Y0199736D01*
Y0199743D01*
X0109683Y0199877D01*
X0109960Y0199396D01*
X0110656Y0198700D01*
X0111509Y0198208D01*
X0112460Y0197953D01*
X0113445D01*
X0114396Y0198208D01*
X0115249Y0198700D01*
X0115946Y0199396D01*
X0116438Y0200249D01*
X0116693Y0201201D01*
Y0202185D01*
X0116438Y0203137D01*
X0115946Y0203989D01*
X0115249Y0204686D01*
X0114396Y0205178D01*
X0113445Y0205433D01*
X0112460D01*
X0111509Y0205178D01*
X0110656Y0204686D01*
X0109960Y0203989D01*
X0109683Y0203509D01*
X0109183Y0203643D01*
Y0209743D01*
X0109683Y0209877D01*
X0109960Y0209396D01*
X0110656Y0208700D01*
X0111509Y0208208D01*
X0112460Y0207953D01*
X0113445D01*
X0114396Y0208208D01*
X0115249Y0208700D01*
X0115946Y0209396D01*
X0116438Y0210249D01*
X0116693Y0211200D01*
Y0212185D01*
X0116438Y0213137D01*
X0115946Y0213989D01*
X0115249Y0214686D01*
X0114396Y0215178D01*
X0113445Y0215433D01*
X0112460D01*
X0111509Y0215178D01*
X0110656Y0214686D01*
X0109960Y0213989D01*
X0109683Y0213509D01*
X0109183Y0213643D01*
Y0213650D01*
X0109068Y0214226D01*
X0108986Y0214349D01*
Y0216338D01*
X0108986Y0216339D01*
X0108871Y0216915D01*
X0108545Y0217403D01*
X0108545Y0217403D01*
X0105789Y0220159D01*
X0105300Y0220485D01*
X0104724Y0220600D01*
D02*
G37*
G36*
X0173484Y0215728D02*
X0173346D01*
Y0212087D01*
X0176988D01*
Y0212224D01*
X0176713Y0213250D01*
X0176182Y0214171D01*
X0175431Y0214922D01*
X0174510Y0215453D01*
X0173484Y0215728D01*
D02*
G37*
G36*
X0123484D02*
X0123346D01*
Y0212087D01*
X0126988D01*
Y0212224D01*
X0126713Y0213250D01*
X0126182Y0214171D01*
X0125431Y0214922D01*
X0124510Y0215453D01*
X0123484Y0215728D01*
D02*
G37*
G36*
X0093484D02*
X0093347D01*
Y0212087D01*
X0096988D01*
Y0212224D01*
X0096713Y0213250D01*
X0096182Y0214171D01*
X0095431Y0214922D01*
X0094510Y0215453D01*
X0093484Y0215728D01*
D02*
G37*
G36*
X0053484D02*
X0053347D01*
Y0212087D01*
X0056988D01*
Y0212224D01*
X0056713Y0213250D01*
X0056182Y0214171D01*
X0055431Y0214922D01*
X0054510Y0215453D01*
X0053484Y0215728D01*
D02*
G37*
G36*
X0193484D02*
X0193347D01*
Y0212087D01*
X0196988D01*
Y0212224D01*
X0196713Y0213250D01*
X0196182Y0214171D01*
X0195431Y0214922D01*
X0194510Y0215453D01*
X0193484Y0215728D01*
D02*
G37*
G36*
X0172559D02*
X0172422D01*
X0171395Y0215453D01*
X0170475Y0214922D01*
X0169724Y0214171D01*
X0169192Y0213250D01*
X0168917Y0212224D01*
Y0212087D01*
X0172559D01*
Y0215728D01*
D02*
G37*
G36*
X0122559D02*
X0122422D01*
X0121395Y0215453D01*
X0120475Y0214922D01*
X0119724Y0214171D01*
X0119192Y0213250D01*
X0118917Y0212224D01*
Y0212087D01*
X0122559D01*
Y0215728D01*
D02*
G37*
G36*
X0092559D02*
X0092422D01*
X0091395Y0215453D01*
X0090475Y0214922D01*
X0089724Y0214171D01*
X0089192Y0213250D01*
X0088917Y0212224D01*
Y0212087D01*
X0092559D01*
Y0215728D01*
D02*
G37*
G36*
X0052559D02*
X0052421D01*
X0051395Y0215453D01*
X0050475Y0214922D01*
X0049724Y0214171D01*
X0049192Y0213250D01*
X0048917Y0212224D01*
Y0212087D01*
X0052559D01*
Y0215728D01*
D02*
G37*
G36*
X0192559D02*
X0192421D01*
X0191395Y0215453D01*
X0190475Y0214922D01*
X0189724Y0214171D01*
X0189192Y0213250D01*
X0188917Y0212224D01*
Y0212087D01*
X0192559D01*
Y0215728D01*
D02*
G37*
G36*
X0223445Y0215433D02*
X0222460D01*
X0221509Y0215178D01*
X0220656Y0214686D01*
X0219960Y0213989D01*
X0219467Y0213137D01*
X0219213Y0212185D01*
Y0211200D01*
X0219467Y0210249D01*
X0219960Y0209396D01*
X0220656Y0208700D01*
X0221509Y0208208D01*
X0222460Y0207953D01*
X0223445D01*
X0224396Y0208208D01*
X0225249Y0208700D01*
X0225946Y0209396D01*
X0226438Y0210249D01*
X0226693Y0211200D01*
Y0212185D01*
X0226438Y0213137D01*
X0225946Y0213989D01*
X0225249Y0214686D01*
X0224396Y0215178D01*
X0223445Y0215433D01*
D02*
G37*
G36*
X0213445D02*
X0212460D01*
X0211509Y0215178D01*
X0210656Y0214686D01*
X0209960Y0213989D01*
X0209468Y0213137D01*
X0209213Y0212185D01*
Y0211200D01*
X0209468Y0210249D01*
X0209960Y0209396D01*
X0210656Y0208700D01*
X0211509Y0208208D01*
X0212460Y0207953D01*
X0213445D01*
X0214396Y0208208D01*
X0215249Y0208700D01*
X0215946Y0209396D01*
X0216438Y0210249D01*
X0216693Y0211200D01*
Y0212185D01*
X0216438Y0213137D01*
X0215946Y0213989D01*
X0215249Y0214686D01*
X0214396Y0215178D01*
X0213445Y0215433D01*
D02*
G37*
G36*
X0203445D02*
X0202460D01*
X0201509Y0215178D01*
X0200656Y0214686D01*
X0199960Y0213989D01*
X0199468Y0213137D01*
X0199213Y0212185D01*
Y0211200D01*
X0199468Y0210249D01*
X0199960Y0209396D01*
X0200656Y0208700D01*
X0201509Y0208208D01*
X0202460Y0207953D01*
X0203445D01*
X0204396Y0208208D01*
X0205249Y0208700D01*
X0205946Y0209396D01*
X0206438Y0210249D01*
X0206693Y0211200D01*
Y0212185D01*
X0206438Y0213137D01*
X0205946Y0213989D01*
X0205249Y0214686D01*
X0204396Y0215178D01*
X0203445Y0215433D01*
D02*
G37*
G36*
X0183445D02*
X0182460D01*
X0181509Y0215178D01*
X0180656Y0214686D01*
X0179960Y0213989D01*
X0179467Y0213137D01*
X0179213Y0212185D01*
Y0211200D01*
X0179467Y0210249D01*
X0179960Y0209396D01*
X0180656Y0208700D01*
X0181509Y0208208D01*
X0182460Y0207953D01*
X0183445D01*
X0184396Y0208208D01*
X0185249Y0208700D01*
X0185946Y0209396D01*
X0186438Y0210249D01*
X0186693Y0211200D01*
Y0212185D01*
X0186438Y0213137D01*
X0185946Y0213989D01*
X0185249Y0214686D01*
X0184396Y0215178D01*
X0183445Y0215433D01*
D02*
G37*
G36*
X0163445D02*
X0162460D01*
X0161509Y0215178D01*
X0160656Y0214686D01*
X0159960Y0213989D01*
X0159467Y0213137D01*
X0159213Y0212185D01*
Y0211200D01*
X0159467Y0210249D01*
X0159960Y0209396D01*
X0160656Y0208700D01*
X0161509Y0208208D01*
X0162460Y0207953D01*
X0163445D01*
X0164396Y0208208D01*
X0165249Y0208700D01*
X0165946Y0209396D01*
X0166438Y0210249D01*
X0166693Y0211200D01*
Y0212185D01*
X0166438Y0213137D01*
X0165946Y0213989D01*
X0165249Y0214686D01*
X0164396Y0215178D01*
X0163445Y0215433D01*
D02*
G37*
G36*
X0153445D02*
X0152460D01*
X0151509Y0215178D01*
X0150656Y0214686D01*
X0149960Y0213989D01*
X0149468Y0213137D01*
X0149213Y0212185D01*
Y0211200D01*
X0149468Y0210249D01*
X0149960Y0209396D01*
X0150656Y0208700D01*
X0151509Y0208208D01*
X0152460Y0207953D01*
X0153445D01*
X0154396Y0208208D01*
X0155249Y0208700D01*
X0155946Y0209396D01*
X0156438Y0210249D01*
X0156693Y0211200D01*
Y0212185D01*
X0156438Y0213137D01*
X0155946Y0213989D01*
X0155249Y0214686D01*
X0154396Y0215178D01*
X0153445Y0215433D01*
D02*
G37*
G36*
X0143445D02*
X0142460D01*
X0141509Y0215178D01*
X0140656Y0214686D01*
X0139960Y0213989D01*
X0139468Y0213137D01*
X0139213Y0212185D01*
Y0211200D01*
X0139468Y0210249D01*
X0139960Y0209396D01*
X0140656Y0208700D01*
X0141509Y0208208D01*
X0142460Y0207953D01*
X0143445D01*
X0144396Y0208208D01*
X0145249Y0208700D01*
X0145946Y0209396D01*
X0146438Y0210249D01*
X0146693Y0211200D01*
Y0212185D01*
X0146438Y0213137D01*
X0145946Y0213989D01*
X0145249Y0214686D01*
X0144396Y0215178D01*
X0143445Y0215433D01*
D02*
G37*
G36*
X0133445D02*
X0132460D01*
X0131509Y0215178D01*
X0130656Y0214686D01*
X0129960Y0213989D01*
X0129467Y0213137D01*
X0129213Y0212185D01*
Y0211200D01*
X0129467Y0210249D01*
X0129960Y0209396D01*
X0130656Y0208700D01*
X0131509Y0208208D01*
X0132460Y0207953D01*
X0133445D01*
X0134396Y0208208D01*
X0135249Y0208700D01*
X0135946Y0209396D01*
X0136438Y0210249D01*
X0136693Y0211200D01*
Y0212185D01*
X0136438Y0213137D01*
X0135946Y0213989D01*
X0135249Y0214686D01*
X0134396Y0215178D01*
X0133445Y0215433D01*
D02*
G37*
G36*
X0083445D02*
X0082460D01*
X0081509Y0215178D01*
X0080656Y0214686D01*
X0079960Y0213989D01*
X0079467Y0213137D01*
X0079213Y0212185D01*
Y0211200D01*
X0079467Y0210249D01*
X0079960Y0209396D01*
X0080656Y0208700D01*
X0081509Y0208208D01*
X0082460Y0207953D01*
X0083445D01*
X0084396Y0208208D01*
X0085249Y0208700D01*
X0085946Y0209396D01*
X0086438Y0210249D01*
X0086693Y0211200D01*
Y0212185D01*
X0086438Y0213137D01*
X0085946Y0213989D01*
X0085249Y0214686D01*
X0084396Y0215178D01*
X0083445Y0215433D01*
D02*
G37*
G36*
X0073445D02*
X0072460D01*
X0071509Y0215178D01*
X0070656Y0214686D01*
X0069960Y0213989D01*
X0069468Y0213137D01*
X0069213Y0212185D01*
Y0211200D01*
X0069468Y0210249D01*
X0069960Y0209396D01*
X0070656Y0208700D01*
X0071509Y0208208D01*
X0072460Y0207953D01*
X0073445D01*
X0074396Y0208208D01*
X0075249Y0208700D01*
X0075946Y0209396D01*
X0076438Y0210249D01*
X0076693Y0211200D01*
Y0212185D01*
X0076438Y0213137D01*
X0075946Y0213989D01*
X0075249Y0214686D01*
X0074396Y0215178D01*
X0073445Y0215433D01*
D02*
G37*
G36*
X0063445D02*
X0062460D01*
X0061509Y0215178D01*
X0060656Y0214686D01*
X0059960Y0213989D01*
X0059468Y0213137D01*
X0059213Y0212185D01*
Y0211200D01*
X0059468Y0210249D01*
X0059960Y0209396D01*
X0060656Y0208700D01*
X0061509Y0208208D01*
X0062460Y0207953D01*
X0063445D01*
X0064396Y0208208D01*
X0065249Y0208700D01*
X0065946Y0209396D01*
X0066438Y0210249D01*
X0066693Y0211200D01*
Y0212185D01*
X0066438Y0213137D01*
X0065946Y0213989D01*
X0065249Y0214686D01*
X0064396Y0215178D01*
X0063445Y0215433D01*
D02*
G37*
G36*
X0196988Y0211299D02*
X0193347D01*
Y0207658D01*
X0193484D01*
X0194510Y0207932D01*
X0195431Y0208464D01*
X0196182Y0209215D01*
X0196713Y0210135D01*
X0196988Y0211162D01*
Y0211299D01*
D02*
G37*
G36*
X0192559D02*
X0188917D01*
Y0211162D01*
X0189192Y0210135D01*
X0189724Y0209215D01*
X0190475Y0208464D01*
X0191395Y0207932D01*
X0192421Y0207658D01*
X0192559D01*
Y0211299D01*
D02*
G37*
G36*
X0176988D02*
X0173346D01*
Y0207658D01*
X0173484D01*
X0174510Y0207932D01*
X0175431Y0208464D01*
X0176182Y0209215D01*
X0176713Y0210135D01*
X0176988Y0211162D01*
Y0211299D01*
D02*
G37*
G36*
X0172559D02*
X0168917D01*
Y0211162D01*
X0169192Y0210135D01*
X0169724Y0209215D01*
X0170475Y0208464D01*
X0171395Y0207932D01*
X0172422Y0207658D01*
X0172559D01*
Y0211299D01*
D02*
G37*
G36*
X0126988D02*
X0123346D01*
Y0207658D01*
X0123484D01*
X0124510Y0207932D01*
X0125431Y0208464D01*
X0126182Y0209215D01*
X0126713Y0210135D01*
X0126988Y0211162D01*
Y0211299D01*
D02*
G37*
G36*
X0122559D02*
X0118917D01*
Y0211162D01*
X0119192Y0210135D01*
X0119724Y0209215D01*
X0120475Y0208464D01*
X0121395Y0207932D01*
X0122422Y0207658D01*
X0122559D01*
Y0211299D01*
D02*
G37*
G36*
X0096988D02*
X0093347D01*
Y0207658D01*
X0093484D01*
X0094510Y0207932D01*
X0095431Y0208464D01*
X0096182Y0209215D01*
X0096713Y0210135D01*
X0096988Y0211162D01*
Y0211299D01*
D02*
G37*
G36*
X0092559D02*
X0088917D01*
Y0211162D01*
X0089192Y0210135D01*
X0089724Y0209215D01*
X0090475Y0208464D01*
X0091395Y0207932D01*
X0092422Y0207658D01*
X0092559D01*
Y0211299D01*
D02*
G37*
G36*
X0056988D02*
X0053347D01*
Y0207658D01*
X0053484D01*
X0054510Y0207932D01*
X0055431Y0208464D01*
X0056182Y0209215D01*
X0056713Y0210135D01*
X0056988Y0211162D01*
Y0211299D01*
D02*
G37*
G36*
X0052559D02*
X0048917D01*
Y0211162D01*
X0049192Y0210135D01*
X0049724Y0209215D01*
X0050475Y0208464D01*
X0051395Y0207932D01*
X0052421Y0207658D01*
X0052559D01*
Y0211299D01*
D02*
G37*
G36*
X0073484Y0205728D02*
X0073347D01*
Y0202087D01*
X0076988D01*
Y0202224D01*
X0076713Y0203251D01*
X0076182Y0204171D01*
X0075431Y0204922D01*
X0074510Y0205453D01*
X0073484Y0205728D01*
D02*
G37*
G36*
X0223484D02*
X0223346D01*
Y0202087D01*
X0226988D01*
Y0202224D01*
X0226713Y0203251D01*
X0226182Y0204171D01*
X0225431Y0204922D01*
X0224510Y0205453D01*
X0223484Y0205728D01*
D02*
G37*
G36*
X0153484D02*
X0153347D01*
Y0202087D01*
X0156988D01*
Y0202224D01*
X0156713Y0203251D01*
X0156182Y0204171D01*
X0155431Y0204922D01*
X0154510Y0205453D01*
X0153484Y0205728D01*
D02*
G37*
G36*
X0072559D02*
X0072421D01*
X0071395Y0205453D01*
X0070475Y0204922D01*
X0069724Y0204171D01*
X0069192Y0203251D01*
X0068917Y0202224D01*
Y0202087D01*
X0072559D01*
Y0205728D01*
D02*
G37*
G36*
X0222559D02*
X0222422D01*
X0221395Y0205453D01*
X0220475Y0204922D01*
X0219724Y0204171D01*
X0219192Y0203251D01*
X0218917Y0202224D01*
Y0202087D01*
X0222559D01*
Y0205728D01*
D02*
G37*
G36*
X0152559D02*
X0152421D01*
X0151395Y0205453D01*
X0150475Y0204922D01*
X0149724Y0204171D01*
X0149192Y0203251D01*
X0148917Y0202224D01*
Y0202087D01*
X0152559D01*
Y0205728D01*
D02*
G37*
G36*
X0242708Y0212598D02*
X0241544D01*
X0240403Y0212371D01*
X0239329Y0211926D01*
X0238361Y0211280D01*
X0237539Y0210457D01*
X0236893Y0209490D01*
X0236447Y0208416D01*
X0236221Y0207275D01*
Y0206111D01*
X0236447Y0204970D01*
X0236893Y0203896D01*
X0237539Y0202928D01*
X0238361Y0202106D01*
X0239329Y0201460D01*
X0240403Y0201014D01*
X0241544Y0200787D01*
X0242708D01*
X0243848Y0201014D01*
X0244923Y0201460D01*
X0245890Y0202106D01*
X0246713Y0202928D01*
X0247359Y0203896D01*
X0247804Y0204970D01*
X0248031Y0206111D01*
Y0207275D01*
X0247804Y0208416D01*
X0247359Y0209490D01*
X0246713Y0210457D01*
X0245890Y0211280D01*
X0244923Y0211926D01*
X0243848Y0212371D01*
X0242708Y0212598D01*
D02*
G37*
G36*
X0014361D02*
X0013198D01*
X0012057Y0212371D01*
X0010982Y0211926D01*
X0010015Y0211280D01*
X0009192Y0210457D01*
X0008546Y0209490D01*
X0008101Y0208416D01*
X0007874Y0207275D01*
Y0206111D01*
X0008101Y0204970D01*
X0008546Y0203896D01*
X0009192Y0202928D01*
X0010015Y0202106D01*
X0010982Y0201460D01*
X0012057Y0201014D01*
X0013198Y0200787D01*
X0014361D01*
X0015502Y0201014D01*
X0016577Y0201460D01*
X0017544Y0202106D01*
X0018367Y0202928D01*
X0019013Y0203896D01*
X0019458Y0204970D01*
X0019685Y0206111D01*
Y0207275D01*
X0019458Y0208416D01*
X0019013Y0209490D01*
X0018367Y0210457D01*
X0017544Y0211280D01*
X0016577Y0211926D01*
X0015502Y0212371D01*
X0014361Y0212598D01*
D02*
G37*
G36*
X0213445Y0205433D02*
X0212460D01*
X0211509Y0205178D01*
X0210656Y0204686D01*
X0209960Y0203989D01*
X0209468Y0203137D01*
X0209213Y0202185D01*
Y0201201D01*
X0209468Y0200249D01*
X0209960Y0199396D01*
X0210656Y0198700D01*
X0211509Y0198208D01*
X0212460Y0197953D01*
X0213445D01*
X0214396Y0198208D01*
X0215249Y0198700D01*
X0215946Y0199396D01*
X0216438Y0200249D01*
X0216693Y0201201D01*
Y0202185D01*
X0216438Y0203137D01*
X0215946Y0203989D01*
X0215249Y0204686D01*
X0214396Y0205178D01*
X0213445Y0205433D01*
D02*
G37*
G36*
X0203445D02*
X0202460D01*
X0201509Y0205178D01*
X0200656Y0204686D01*
X0199960Y0203989D01*
X0199468Y0203137D01*
X0199213Y0202185D01*
Y0201201D01*
X0199468Y0200249D01*
X0199960Y0199396D01*
X0200656Y0198700D01*
X0201509Y0198208D01*
X0202460Y0197953D01*
X0203445D01*
X0204396Y0198208D01*
X0205249Y0198700D01*
X0205946Y0199396D01*
X0206438Y0200249D01*
X0206693Y0201201D01*
Y0202185D01*
X0206438Y0203137D01*
X0205946Y0203989D01*
X0205249Y0204686D01*
X0204396Y0205178D01*
X0203445Y0205433D01*
D02*
G37*
G36*
X0193445D02*
X0192460D01*
X0191509Y0205178D01*
X0190656Y0204686D01*
X0189960Y0203989D01*
X0189468Y0203137D01*
X0189213Y0202185D01*
Y0201201D01*
X0189468Y0200249D01*
X0189960Y0199396D01*
X0190656Y0198700D01*
X0191509Y0198208D01*
X0192460Y0197953D01*
X0193445D01*
X0194396Y0198208D01*
X0195249Y0198700D01*
X0195946Y0199396D01*
X0196438Y0200249D01*
X0196693Y0201201D01*
Y0202185D01*
X0196438Y0203137D01*
X0195946Y0203989D01*
X0195249Y0204686D01*
X0194396Y0205178D01*
X0193445Y0205433D01*
D02*
G37*
G36*
X0183445D02*
X0182460D01*
X0181509Y0205178D01*
X0180656Y0204686D01*
X0179960Y0203989D01*
X0179467Y0203137D01*
X0179213Y0202185D01*
Y0201201D01*
X0179467Y0200249D01*
X0179960Y0199396D01*
X0180656Y0198700D01*
X0181509Y0198208D01*
X0182460Y0197953D01*
X0183445D01*
X0184396Y0198208D01*
X0185249Y0198700D01*
X0185946Y0199396D01*
X0186438Y0200249D01*
X0186693Y0201201D01*
Y0202185D01*
X0186438Y0203137D01*
X0185946Y0203989D01*
X0185249Y0204686D01*
X0184396Y0205178D01*
X0183445Y0205433D01*
D02*
G37*
G36*
X0173445D02*
X0172460D01*
X0171509Y0205178D01*
X0170656Y0204686D01*
X0169960Y0203989D01*
X0169467Y0203137D01*
X0169213Y0202185D01*
Y0201201D01*
X0169467Y0200249D01*
X0169960Y0199396D01*
X0170656Y0198700D01*
X0171509Y0198208D01*
X0172460Y0197953D01*
X0173445D01*
X0174396Y0198208D01*
X0175249Y0198700D01*
X0175946Y0199396D01*
X0176438Y0200249D01*
X0176693Y0201201D01*
Y0202185D01*
X0176438Y0203137D01*
X0175946Y0203989D01*
X0175249Y0204686D01*
X0174396Y0205178D01*
X0173445Y0205433D01*
D02*
G37*
G36*
X0163445D02*
X0162460D01*
X0161509Y0205178D01*
X0160656Y0204686D01*
X0159960Y0203989D01*
X0159467Y0203137D01*
X0159213Y0202185D01*
Y0201201D01*
X0159467Y0200249D01*
X0159960Y0199396D01*
X0160656Y0198700D01*
X0161509Y0198208D01*
X0162460Y0197953D01*
X0163445D01*
X0164396Y0198208D01*
X0165249Y0198700D01*
X0165946Y0199396D01*
X0166438Y0200249D01*
X0166693Y0201201D01*
Y0202185D01*
X0166438Y0203137D01*
X0165946Y0203989D01*
X0165249Y0204686D01*
X0164396Y0205178D01*
X0163445Y0205433D01*
D02*
G37*
G36*
X0143445D02*
X0142460D01*
X0141509Y0205178D01*
X0140656Y0204686D01*
X0139960Y0203989D01*
X0139468Y0203137D01*
X0139213Y0202185D01*
Y0201201D01*
X0139468Y0200249D01*
X0139960Y0199396D01*
X0140656Y0198700D01*
X0141509Y0198208D01*
X0142460Y0197953D01*
X0143445D01*
X0144396Y0198208D01*
X0145249Y0198700D01*
X0145946Y0199396D01*
X0146438Y0200249D01*
X0146693Y0201201D01*
Y0202185D01*
X0146438Y0203137D01*
X0145946Y0203989D01*
X0145249Y0204686D01*
X0144396Y0205178D01*
X0143445Y0205433D01*
D02*
G37*
G36*
X0133445D02*
X0132460D01*
X0131509Y0205178D01*
X0130656Y0204686D01*
X0129960Y0203989D01*
X0129467Y0203137D01*
X0129213Y0202185D01*
Y0201201D01*
X0129467Y0200249D01*
X0129960Y0199396D01*
X0130656Y0198700D01*
X0131509Y0198208D01*
X0132460Y0197953D01*
X0133445D01*
X0134396Y0198208D01*
X0135249Y0198700D01*
X0135946Y0199396D01*
X0136438Y0200249D01*
X0136693Y0201201D01*
Y0202185D01*
X0136438Y0203137D01*
X0135946Y0203989D01*
X0135249Y0204686D01*
X0134396Y0205178D01*
X0133445Y0205433D01*
D02*
G37*
G36*
X0123445D02*
X0122460D01*
X0121509Y0205178D01*
X0120656Y0204686D01*
X0119960Y0203989D01*
X0119467Y0203137D01*
X0119213Y0202185D01*
Y0201201D01*
X0119467Y0200249D01*
X0119960Y0199396D01*
X0120656Y0198700D01*
X0121509Y0198208D01*
X0122460Y0197953D01*
X0123445D01*
X0124396Y0198208D01*
X0125249Y0198700D01*
X0125946Y0199396D01*
X0126438Y0200249D01*
X0126693Y0201201D01*
Y0202185D01*
X0126438Y0203137D01*
X0125946Y0203989D01*
X0125249Y0204686D01*
X0124396Y0205178D01*
X0123445Y0205433D01*
D02*
G37*
G36*
X0093445D02*
X0092460D01*
X0091509Y0205178D01*
X0090656Y0204686D01*
X0089960Y0203989D01*
X0089468Y0203137D01*
X0089213Y0202185D01*
Y0201201D01*
X0089468Y0200249D01*
X0089960Y0199396D01*
X0090656Y0198700D01*
X0091509Y0198208D01*
X0092460Y0197953D01*
X0093445D01*
X0094396Y0198208D01*
X0095249Y0198700D01*
X0095946Y0199396D01*
X0096438Y0200249D01*
X0096693Y0201201D01*
Y0202185D01*
X0096438Y0203137D01*
X0095946Y0203989D01*
X0095249Y0204686D01*
X0094396Y0205178D01*
X0093445Y0205433D01*
D02*
G37*
G36*
X0083445D02*
X0082460D01*
X0081509Y0205178D01*
X0080656Y0204686D01*
X0079960Y0203989D01*
X0079467Y0203137D01*
X0079213Y0202185D01*
Y0201201D01*
X0079467Y0200249D01*
X0079960Y0199396D01*
X0080656Y0198700D01*
X0081509Y0198208D01*
X0082460Y0197953D01*
X0083445D01*
X0084396Y0198208D01*
X0085249Y0198700D01*
X0085946Y0199396D01*
X0086438Y0200249D01*
X0086693Y0201201D01*
Y0202185D01*
X0086438Y0203137D01*
X0085946Y0203989D01*
X0085249Y0204686D01*
X0084396Y0205178D01*
X0083445Y0205433D01*
D02*
G37*
G36*
X0063445D02*
X0062460D01*
X0061509Y0205178D01*
X0060656Y0204686D01*
X0059960Y0203989D01*
X0059468Y0203137D01*
X0059213Y0202185D01*
Y0201201D01*
X0059468Y0200249D01*
X0059960Y0199396D01*
X0060656Y0198700D01*
X0061509Y0198208D01*
X0062460Y0197953D01*
X0063445D01*
X0064396Y0198208D01*
X0065249Y0198700D01*
X0065946Y0199396D01*
X0066438Y0200249D01*
X0066693Y0201201D01*
Y0202185D01*
X0066438Y0203137D01*
X0065946Y0203989D01*
X0065249Y0204686D01*
X0064396Y0205178D01*
X0063445Y0205433D01*
D02*
G37*
G36*
X0053445D02*
X0052460D01*
X0051509Y0205178D01*
X0050656Y0204686D01*
X0049960Y0203989D01*
X0049468Y0203137D01*
X0049213Y0202185D01*
Y0201201D01*
X0049468Y0200249D01*
X0049960Y0199396D01*
X0050656Y0198700D01*
X0051509Y0198208D01*
X0052460Y0197953D01*
X0053445D01*
X0054396Y0198208D01*
X0055249Y0198700D01*
X0055946Y0199396D01*
X0056438Y0200249D01*
X0056693Y0201201D01*
Y0202185D01*
X0056438Y0203137D01*
X0055946Y0203989D01*
X0055249Y0204686D01*
X0054396Y0205178D01*
X0053445Y0205433D01*
D02*
G37*
G36*
X0043445D02*
X0042460D01*
X0041509Y0205178D01*
X0040656Y0204686D01*
X0039960Y0203989D01*
X0039467Y0203137D01*
X0039213Y0202185D01*
Y0201201D01*
X0039467Y0200249D01*
X0039960Y0199396D01*
X0040656Y0198700D01*
X0041509Y0198208D01*
X0042460Y0197953D01*
X0043445D01*
X0044396Y0198208D01*
X0045249Y0198700D01*
X0045946Y0199396D01*
X0046438Y0200249D01*
X0046693Y0201201D01*
Y0202185D01*
X0046438Y0203137D01*
X0045946Y0203989D01*
X0045249Y0204686D01*
X0044396Y0205178D01*
X0043445Y0205433D01*
D02*
G37*
G36*
X0226988Y0201299D02*
X0223346D01*
Y0197658D01*
X0223484D01*
X0224510Y0197933D01*
X0225431Y0198464D01*
X0226182Y0199215D01*
X0226713Y0200135D01*
X0226988Y0201162D01*
Y0201299D01*
D02*
G37*
G36*
X0222559D02*
X0218917D01*
Y0201162D01*
X0219192Y0200135D01*
X0219724Y0199215D01*
X0220475Y0198464D01*
X0221395Y0197933D01*
X0222422Y0197658D01*
X0222559D01*
Y0201299D01*
D02*
G37*
G36*
X0156988D02*
X0153347D01*
Y0197658D01*
X0153484D01*
X0154510Y0197933D01*
X0155431Y0198464D01*
X0156182Y0199215D01*
X0156713Y0200135D01*
X0156988Y0201162D01*
Y0201299D01*
D02*
G37*
G36*
X0152559D02*
X0148917D01*
Y0201162D01*
X0149192Y0200135D01*
X0149724Y0199215D01*
X0150475Y0198464D01*
X0151395Y0197933D01*
X0152421Y0197658D01*
X0152559D01*
Y0201299D01*
D02*
G37*
G36*
X0076988D02*
X0073347D01*
Y0197658D01*
X0073484D01*
X0074510Y0197933D01*
X0075431Y0198464D01*
X0076182Y0199215D01*
X0076713Y0200135D01*
X0076988Y0201162D01*
Y0201299D01*
D02*
G37*
G36*
X0072559D02*
X0068917D01*
Y0201162D01*
X0069192Y0200135D01*
X0069724Y0199215D01*
X0070475Y0198464D01*
X0071395Y0197933D01*
X0072421Y0197658D01*
X0072559D01*
Y0201299D01*
D02*
G37*
G36*
X0173512Y0175904D02*
Y0174330D01*
X0175086D01*
X0174787Y0175051D01*
X0174233Y0175605D01*
X0173512Y0175904D01*
D02*
G37*
G36*
X0172724D02*
X0172003Y0175605D01*
X0171449Y0175051D01*
X0171151Y0174330D01*
X0172724D01*
Y0175904D01*
D02*
G37*
G36*
X0175086Y0173543D02*
X0173512D01*
Y0171969D01*
X0174233Y0172268D01*
X0174787Y0172821D01*
X0175086Y0173543D01*
D02*
G37*
G36*
X0172724D02*
X0171151D01*
X0171449Y0172821D01*
X0172003Y0172268D01*
X0172724Y0171969D01*
Y0173543D01*
D02*
G37*
G36*
X0129831Y0167441D02*
X0124476D01*
Y0162087D01*
X0124619D01*
X0124811Y0161625D01*
X0124775Y0161589D01*
X0124384Y0160911D01*
X0124182Y0160158D01*
X0130125D01*
X0129923Y0160911D01*
X0129532Y0161589D01*
X0129496Y0161625D01*
X0129688Y0162087D01*
X0129831D01*
Y0167441D01*
D02*
G37*
G36*
X0100357Y0166532D02*
X0099446D01*
X0098566Y0166296D01*
X0097777Y0165840D01*
X0097132Y0165196D01*
X0096677Y0164407D01*
X0096441Y0163526D01*
Y0162615D01*
X0096677Y0161735D01*
X0097132Y0160946D01*
X0097777Y0160302D01*
X0098566Y0159846D01*
X0099446Y0159610D01*
X0100357D01*
X0101237Y0159846D01*
X0102026Y0160302D01*
X0102671Y0160946D01*
X0103126Y0161735D01*
X0103362Y0162615D01*
Y0163526D01*
X0103126Y0164407D01*
X0102671Y0165196D01*
X0102026Y0165840D01*
X0101237Y0166296D01*
X0100357Y0166532D01*
D02*
G37*
G36*
X0090357D02*
X0089446D01*
X0088566Y0166296D01*
X0087777Y0165840D01*
X0087132Y0165196D01*
X0086677Y0164407D01*
X0086441Y0163526D01*
Y0162615D01*
X0086677Y0161735D01*
X0087132Y0160946D01*
X0087777Y0160302D01*
X0088566Y0159846D01*
X0089446Y0159610D01*
X0090357D01*
X0091237Y0159846D01*
X0092026Y0160302D01*
X0092671Y0160946D01*
X0093126Y0161735D01*
X0093362Y0162615D01*
Y0163526D01*
X0093126Y0164407D01*
X0092671Y0165196D01*
X0092026Y0165840D01*
X0091237Y0166296D01*
X0090357Y0166532D01*
D02*
G37*
G36*
X0040075Y0165173D02*
X0033154D01*
Y0158252D01*
X0040075D01*
Y0165173D01*
D02*
G37*
G36*
X0133719Y0167441D02*
X0133014D01*
X0132333Y0167259D01*
X0131722Y0166906D01*
X0131224Y0166408D01*
X0130871Y0165797D01*
X0130689Y0165116D01*
Y0164411D01*
X0130871Y0163730D01*
X0131224Y0163120D01*
X0131722Y0162621D01*
X0131842Y0162552D01*
Y0161975D01*
X0131722Y0161906D01*
X0131224Y0161408D01*
X0130871Y0160797D01*
X0130689Y0160116D01*
Y0159411D01*
X0130871Y0158730D01*
X0131224Y0158120D01*
X0131722Y0157622D01*
X0132333Y0157269D01*
X0133014Y0157087D01*
X0133719D01*
X0134399Y0157269D01*
X0135010Y0157622D01*
X0135508Y0158120D01*
X0135861Y0158730D01*
X0136043Y0159411D01*
Y0160116D01*
X0135861Y0160797D01*
X0135508Y0161408D01*
X0135010Y0161906D01*
X0134890Y0161975D01*
Y0162552D01*
X0135010Y0162621D01*
X0135508Y0163120D01*
X0135861Y0163730D01*
X0136043Y0164411D01*
Y0165116D01*
X0135861Y0165797D01*
X0135508Y0166408D01*
X0135010Y0166906D01*
X0134399Y0167259D01*
X0133719Y0167441D01*
D02*
G37*
G36*
X0109508Y0156827D02*
X0109407D01*
X0108452Y0156571D01*
X0107595Y0156076D01*
X0106896Y0155377D01*
X0106402Y0154521D01*
X0106146Y0153565D01*
Y0153465D01*
X0109508D01*
Y0156827D01*
D02*
G37*
G36*
X0100357Y0156532D02*
X0099446D01*
X0098566Y0156296D01*
X0097777Y0155840D01*
X0097132Y0155196D01*
X0096677Y0154407D01*
X0096441Y0153526D01*
Y0152615D01*
X0096677Y0151735D01*
X0097132Y0150946D01*
X0097777Y0150302D01*
X0098566Y0149846D01*
X0099446Y0149610D01*
X0100357D01*
X0101237Y0149846D01*
X0102026Y0150302D01*
X0102671Y0150946D01*
X0103126Y0151735D01*
X0103362Y0152615D01*
Y0153526D01*
X0103126Y0154407D01*
X0102671Y0155196D01*
X0102026Y0155840D01*
X0101237Y0156296D01*
X0100357Y0156532D01*
D02*
G37*
G36*
X0090357D02*
X0089446D01*
X0088566Y0156296D01*
X0087777Y0155840D01*
X0087132Y0155196D01*
X0086677Y0154407D01*
X0086441Y0153526D01*
Y0152615D01*
X0086677Y0151735D01*
X0087132Y0150946D01*
X0087777Y0150302D01*
X0088566Y0149846D01*
X0089446Y0149610D01*
X0090357D01*
X0091237Y0149846D01*
X0092026Y0150302D01*
X0092671Y0150946D01*
X0093126Y0151735D01*
X0093362Y0152615D01*
Y0153526D01*
X0093126Y0154407D01*
X0092671Y0155196D01*
X0092026Y0155840D01*
X0091237Y0156296D01*
X0090357Y0156532D01*
D02*
G37*
G36*
X0113657Y0152677D02*
X0110295D01*
Y0149315D01*
X0110396D01*
X0111351Y0149571D01*
X0112208Y0150065D01*
X0112907Y0150765D01*
X0113401Y0151621D01*
X0113657Y0152576D01*
Y0152677D01*
D02*
G37*
G36*
X0109508D02*
X0106146D01*
Y0152576D01*
X0106402Y0151621D01*
X0106896Y0150765D01*
X0107595Y0150065D01*
X0108452Y0149571D01*
X0109407Y0149315D01*
X0109508D01*
Y0152677D01*
D02*
G37*
G36*
X0036873Y0155331D02*
X0035962D01*
X0035082Y0155095D01*
X0034292Y0154639D01*
X0033648Y0153995D01*
X0033193Y0153206D01*
X0032957Y0152326D01*
Y0151415D01*
X0033193Y0150534D01*
X0033648Y0149745D01*
X0034292Y0149101D01*
X0035082Y0148645D01*
X0035962Y0148409D01*
X0036873D01*
X0037753Y0148645D01*
X0038542Y0149101D01*
X0039186Y0149745D01*
X0039642Y0150534D01*
X0039878Y0151415D01*
Y0152326D01*
X0039642Y0153206D01*
X0039186Y0153995D01*
X0038542Y0154639D01*
X0037753Y0155095D01*
X0036873Y0155331D01*
D02*
G37*
G36*
X0178347Y0148808D02*
Y0147234D01*
X0179920D01*
X0179622Y0147956D01*
X0179068Y0148509D01*
X0178347Y0148808D01*
D02*
G37*
G36*
X0177559D02*
X0176838Y0148509D01*
X0176284Y0147956D01*
X0175985Y0147234D01*
X0177559D01*
Y0148808D01*
D02*
G37*
G36*
X0179920Y0146447D02*
X0178347D01*
Y0144873D01*
X0179068Y0145172D01*
X0179622Y0145725D01*
X0179920Y0146447D01*
D02*
G37*
G36*
X0177559D02*
X0175985D01*
X0176284Y0145725D01*
X0176838Y0145172D01*
X0177559Y0144873D01*
Y0146447D01*
D02*
G37*
G36*
X0037070Y0145488D02*
X0036159D01*
X0035278Y0145252D01*
X0034489Y0144797D01*
X0033845Y0144152D01*
X0033389Y0143363D01*
X0033154Y0142483D01*
Y0141572D01*
X0033389Y0140692D01*
X0033845Y0139903D01*
X0034489Y0139258D01*
X0035278Y0138803D01*
X0036159Y0138567D01*
X0037070D01*
X0037950Y0138803D01*
X0038739Y0139258D01*
X0039383Y0139903D01*
X0039839Y0140692D01*
X0040075Y0141572D01*
Y0142483D01*
X0039839Y0143363D01*
X0039383Y0144152D01*
X0038739Y0144797D01*
X0037950Y0145252D01*
X0037070Y0145488D01*
D02*
G37*
G36*
X0129331Y0137204D02*
Y0135630D01*
X0130905D01*
X0130606Y0136351D01*
X0130052Y0136905D01*
X0129331Y0137204D01*
D02*
G37*
G36*
X0128543D02*
X0127822Y0136905D01*
X0127268Y0136351D01*
X0126969Y0135630D01*
X0128543D01*
Y0137204D01*
D02*
G37*
G36*
X0130905Y0134843D02*
X0129331D01*
Y0133269D01*
X0130052Y0133567D01*
X0130606Y0134121D01*
X0130905Y0134843D01*
D02*
G37*
G36*
X0128543D02*
X0126969D01*
X0127268Y0134121D01*
X0127822Y0133567D01*
X0128543Y0133269D01*
Y0134843D01*
D02*
G37*
G36*
X0133052Y0132107D02*
Y0130533D01*
X0134626D01*
X0134327Y0131255D01*
X0133774Y0131808D01*
X0133052Y0132107D01*
D02*
G37*
G36*
X0132265D02*
X0131544Y0131808D01*
X0130990Y0131255D01*
X0130691Y0130533D01*
X0132265D01*
Y0132107D01*
D02*
G37*
G36*
X0037070Y0135646D02*
X0036159D01*
X0035278Y0135410D01*
X0034489Y0134954D01*
X0033845Y0134310D01*
X0033389Y0133521D01*
X0033154Y0132641D01*
Y0131729D01*
X0033389Y0130849D01*
X0033845Y0130060D01*
X0034489Y0129416D01*
X0035278Y0128960D01*
X0036159Y0128724D01*
X0037070D01*
X0037950Y0128960D01*
X0038739Y0129416D01*
X0039383Y0130060D01*
X0039839Y0130849D01*
X0040075Y0131729D01*
Y0132641D01*
X0039839Y0133521D01*
X0039383Y0134310D01*
X0038739Y0134954D01*
X0037950Y0135410D01*
X0037070Y0135646D01*
D02*
G37*
G36*
X0130125Y0159370D02*
X0124182D01*
X0124384Y0158616D01*
X0124775Y0157939D01*
X0125328Y0157385D01*
X0125383Y0157354D01*
X0125381Y0156777D01*
X0125011Y0156408D01*
X0124659Y0155797D01*
X0124476Y0155116D01*
Y0154411D01*
X0124659Y0153730D01*
X0125011Y0153120D01*
X0125510Y0152621D01*
X0126120Y0152269D01*
X0126801Y0152087D01*
X0127506D01*
X0128187Y0152269D01*
X0128797Y0152621D01*
X0129296Y0153120D01*
X0129607Y0153660D01*
X0142318D01*
X0155097Y0140881D01*
Y0127667D01*
X0154782Y0127352D01*
X0154528Y0126737D01*
Y0126071D01*
X0154782Y0125456D01*
X0155253Y0124986D01*
X0155868Y0124731D01*
X0156534D01*
X0157149Y0124986D01*
X0157619Y0125456D01*
X0157874Y0126071D01*
Y0126737D01*
X0157619Y0127352D01*
X0157305Y0127667D01*
Y0141339D01*
X0157221Y0141761D01*
X0156981Y0142119D01*
X0143556Y0155544D01*
X0143198Y0155784D01*
X0142776Y0155868D01*
X0129607D01*
X0129296Y0156408D01*
X0128926Y0156777D01*
X0128924Y0157354D01*
X0128979Y0157385D01*
X0129532Y0157939D01*
X0129923Y0158616D01*
X0130125Y0159370D01*
D02*
G37*
G36*
X0037070Y0125803D02*
X0036159D01*
X0035278Y0125567D01*
X0034489Y0125112D01*
X0033845Y0124467D01*
X0033389Y0123678D01*
X0033154Y0122798D01*
Y0121887D01*
X0033389Y0121007D01*
X0033845Y0120218D01*
X0034489Y0119573D01*
X0035278Y0119118D01*
X0036159Y0118882D01*
X0037070D01*
X0037950Y0119118D01*
X0038739Y0119573D01*
X0039383Y0120218D01*
X0039839Y0121007D01*
X0040075Y0121887D01*
Y0122798D01*
X0039839Y0123678D01*
X0039383Y0124467D01*
X0038739Y0125112D01*
X0037950Y0125567D01*
X0037070Y0125803D01*
D02*
G37*
G36*
X0155969Y0117503D02*
X0155248Y0117204D01*
X0154694Y0116651D01*
X0154395Y0115929D01*
X0155969D01*
Y0117503D01*
D02*
G37*
G36*
X0037070Y0115961D02*
X0036159D01*
X0035278Y0115725D01*
X0034489Y0115269D01*
X0033845Y0114625D01*
X0033389Y0113836D01*
X0033154Y0112956D01*
Y0112044D01*
X0033389Y0111164D01*
X0033845Y0110375D01*
X0034489Y0109731D01*
X0035278Y0109275D01*
X0036159Y0109039D01*
X0037070D01*
X0037950Y0109275D01*
X0038739Y0109731D01*
X0039383Y0110375D01*
X0039839Y0111164D01*
X0040075Y0112044D01*
Y0112956D01*
X0039839Y0113836D01*
X0039383Y0114625D01*
X0038739Y0115269D01*
X0037950Y0115725D01*
X0037070Y0115961D01*
D02*
G37*
G36*
Y0106118D02*
X0036159D01*
X0035278Y0105882D01*
X0034489Y0105427D01*
X0033845Y0104782D01*
X0033389Y0103993D01*
X0033154Y0103113D01*
Y0102202D01*
X0033389Y0101322D01*
X0033845Y0100533D01*
X0034489Y0099888D01*
X0035278Y0099433D01*
X0036159Y0099197D01*
X0037070D01*
X0037950Y0099433D01*
X0038739Y0099888D01*
X0039383Y0100533D01*
X0039839Y0101322D01*
X0040075Y0102202D01*
Y0103113D01*
X0039839Y0103993D01*
X0039383Y0104782D01*
X0038739Y0105427D01*
X0037950Y0105882D01*
X0037070Y0106118D01*
D02*
G37*
G36*
X0037109Y0096571D02*
X0037008D01*
Y0093209D01*
X0040370D01*
Y0093309D01*
X0040114Y0094265D01*
X0039620Y0095121D01*
X0038920Y0095820D01*
X0038064Y0096315D01*
X0037109Y0096571D01*
D02*
G37*
G36*
X0036220D02*
X0036120D01*
X0035164Y0096315D01*
X0034308Y0095820D01*
X0033609Y0095121D01*
X0033114Y0094265D01*
X0032858Y0093309D01*
Y0093209D01*
X0036220D01*
Y0096571D01*
D02*
G37*
G36*
X0166365Y0093700D02*
Y0092126D01*
X0167939D01*
X0167640Y0092847D01*
X0167086Y0093401D01*
X0166365Y0093700D01*
D02*
G37*
G36*
X0165577D02*
X0164856Y0093401D01*
X0164302Y0092847D01*
X0164004Y0092126D01*
X0165577D01*
Y0093700D01*
D02*
G37*
G36*
X0160853D02*
Y0092126D01*
X0162427D01*
X0162128Y0092847D01*
X0161574Y0093401D01*
X0160853Y0093700D01*
D02*
G37*
G36*
X0160066D02*
X0159344Y0093401D01*
X0158791Y0092847D01*
X0158492Y0092126D01*
X0160066D01*
Y0093700D01*
D02*
G37*
G36*
X0167939Y0091339D02*
X0166365D01*
Y0089765D01*
X0167086Y0090064D01*
X0167640Y0090617D01*
X0167939Y0091339D01*
D02*
G37*
G36*
X0165577D02*
X0164004D01*
X0164302Y0090617D01*
X0164856Y0090064D01*
X0165577Y0089765D01*
Y0091339D01*
D02*
G37*
G36*
X0162427D02*
X0160853D01*
Y0089765D01*
X0161574Y0090064D01*
X0162128Y0090617D01*
X0162427Y0091339D01*
D02*
G37*
G36*
X0160066D02*
X0158492D01*
X0158791Y0090617D01*
X0159344Y0090064D01*
X0160066Y0089765D01*
Y0091339D01*
D02*
G37*
G36*
X0040370Y0092421D02*
X0037008D01*
Y0089059D01*
X0037109D01*
X0038064Y0089315D01*
X0038920Y0089810D01*
X0039620Y0090509D01*
X0040114Y0091365D01*
X0040370Y0092321D01*
Y0092421D01*
D02*
G37*
G36*
X0036220D02*
X0032858D01*
Y0092321D01*
X0033114Y0091365D01*
X0033609Y0090509D01*
X0034308Y0089810D01*
X0035164Y0089315D01*
X0036120Y0089059D01*
X0036220D01*
Y0092421D01*
D02*
G37*
G36*
X0234519Y0051653D02*
X0233197D01*
X0231921Y0051311D01*
X0230776Y0050651D01*
X0229841Y0049716D01*
X0229181Y0048571D01*
X0228839Y0047295D01*
Y0045973D01*
X0229181Y0044696D01*
X0229841Y0043552D01*
X0230776Y0042617D01*
X0231921Y0041956D01*
X0233197Y0041614D01*
X0234519D01*
X0235796Y0041956D01*
X0236940Y0042617D01*
X0237875Y0043552D01*
X0238536Y0044696D01*
X0238878Y0045973D01*
Y0047295D01*
X0238536Y0048571D01*
X0237875Y0049716D01*
X0236940Y0050651D01*
X0235796Y0051311D01*
X0234519Y0051653D01*
D02*
G37*
G36*
X0022708D02*
X0021386D01*
X0020110Y0051311D01*
X0018965Y0050651D01*
X0018031Y0049716D01*
X0017370Y0048571D01*
X0017028Y0047295D01*
Y0045973D01*
X0017370Y0044696D01*
X0018031Y0043552D01*
X0018965Y0042617D01*
X0020110Y0041956D01*
X0021386Y0041614D01*
X0022708D01*
X0023985Y0041956D01*
X0025129Y0042617D01*
X0026064Y0043552D01*
X0026725Y0044696D01*
X0027067Y0045973D01*
Y0047295D01*
X0026725Y0048571D01*
X0026064Y0049716D01*
X0025129Y0050651D01*
X0023985Y0051311D01*
X0022708Y0051653D01*
D02*
G37*
G36*
X0040774Y0028444D02*
Y0026870D01*
X0042348D01*
X0042049Y0027591D01*
X0041496Y0028145D01*
X0040774Y0028444D01*
D02*
G37*
G36*
X0039987D02*
X0039265Y0028145D01*
X0038712Y0027591D01*
X0038413Y0026870D01*
X0039987D01*
Y0028444D01*
D02*
G37*
G36*
X0030735D02*
Y0026870D01*
X0032309D01*
X0032010Y0027591D01*
X0031456Y0028145D01*
X0030735Y0028444D01*
D02*
G37*
G36*
X0029948D02*
X0029226Y0028145D01*
X0028672Y0027591D01*
X0028374Y0026870D01*
X0029948D01*
Y0028444D01*
D02*
G37*
G36*
X0042348Y0026083D02*
X0040774D01*
Y0024509D01*
X0041496Y0024808D01*
X0042049Y0025361D01*
X0042348Y0026083D01*
D02*
G37*
G36*
X0039987D02*
X0038413D01*
X0038712Y0025361D01*
X0039265Y0024808D01*
X0039987Y0024509D01*
Y0026083D01*
D02*
G37*
G36*
X0032309D02*
X0030735D01*
Y0024509D01*
X0031456Y0024808D01*
X0032010Y0025361D01*
X0032309Y0026083D01*
D02*
G37*
G36*
X0029948D02*
X0028374D01*
X0028672Y0025361D01*
X0029226Y0024808D01*
X0029948Y0024509D01*
Y0026083D01*
D02*
G37*
G36*
X0129959Y0042618D02*
X0129293D01*
X0128678Y0042363D01*
X0128208Y0041893D01*
X0127953Y0041278D01*
Y0040612D01*
X0128208Y0039997D01*
X0128522Y0039682D01*
Y0023648D01*
X0128606Y0023226D01*
X0128845Y0022868D01*
X0131496Y0020217D01*
Y0019772D01*
X0131751Y0019157D01*
X0132221Y0018686D01*
X0132836Y0018432D01*
X0133502D01*
X0134117Y0018686D01*
X0134588Y0019157D01*
X0134843Y0019772D01*
Y0020438D01*
X0134588Y0021053D01*
X0134117Y0021523D01*
X0133502Y0021778D01*
X0133057D01*
X0130730Y0024105D01*
Y0039682D01*
X0131044Y0039997D01*
X0131299Y0040612D01*
Y0041278D01*
X0131044Y0041893D01*
X0130574Y0042363D01*
X0129959Y0042618D01*
D02*
G37*
G36*
X0242708Y0019685D02*
X0241544D01*
X0240403Y0019458D01*
X0239329Y0019013D01*
X0238361Y0018367D01*
X0237539Y0017544D01*
X0236893Y0016577D01*
X0236447Y0015502D01*
X0236221Y0014361D01*
Y0013198D01*
X0236447Y0012057D01*
X0236893Y0010982D01*
X0237539Y0010015D01*
X0238361Y0009192D01*
X0239329Y0008546D01*
X0240403Y0008101D01*
X0241544Y0007874D01*
X0242708D01*
X0243848Y0008101D01*
X0244923Y0008546D01*
X0245890Y0009192D01*
X0246713Y0010015D01*
X0247359Y0010982D01*
X0247804Y0012057D01*
X0248031Y0013198D01*
Y0014361D01*
X0247804Y0015502D01*
X0247359Y0016577D01*
X0246713Y0017544D01*
X0245890Y0018367D01*
X0244923Y0019013D01*
X0243848Y0019458D01*
X0242708Y0019685D01*
D02*
G37*
G36*
X0014361D02*
X0013198D01*
X0012057Y0019458D01*
X0010982Y0019013D01*
X0010015Y0018367D01*
X0009192Y0017544D01*
X0008546Y0016577D01*
X0008101Y0015502D01*
X0007874Y0014361D01*
Y0013198D01*
X0008101Y0012057D01*
X0008546Y0010982D01*
X0009192Y0010015D01*
X0010015Y0009192D01*
X0010982Y0008546D01*
X0012057Y0008101D01*
X0013198Y0007874D01*
X0014361D01*
X0015502Y0008101D01*
X0016577Y0008546D01*
X0017544Y0009192D01*
X0018367Y0010015D01*
X0019013Y0010982D01*
X0019458Y0012057D01*
X0019685Y0013198D01*
Y0014361D01*
X0019458Y0015502D01*
X0019013Y0016577D01*
X0018367Y0017544D01*
X0017544Y0018367D01*
X0016577Y0019013D01*
X0015502Y0019458D01*
X0014361Y0019685D01*
D02*
G37*
%LPD*%
D10*
X0142776Y0154764D02*
X0156201Y0141339D01*
X0127154Y0154764D02*
X0142776D01*
X0156201Y0126404D02*
Y0141339D01*
X0145374Y0117421D02*
X0152264Y0124311D01*
X0145374Y0117224D02*
Y0117421D01*
X0152264Y0124311D02*
Y0127362D01*
X0143274Y0130687D02*
X0143500Y0130913D01*
X0138189Y0124606D02*
X0143274Y0129692D01*
Y0130687D01*
X0133097Y0020177D02*
X0133169D01*
X0129626Y0023648D02*
Y0040945D01*
Y0023648D02*
X0133097Y0020177D01*
X0142884Y0201624D02*
X0142953Y0201693D01*
X0132953Y0200677D02*
Y0201693D01*
X0082953Y0200276D02*
Y0201693D01*
D15*
X-0035433Y0222441D02*
G03*
X-0039370Y0218504I0000000J-0003937D01*
G01*
X0255906D02*
G03*
X0251969Y0222441I-0003937J0000000D01*
G01*
X0000000Y0011811D02*
G03*
X0011811Y0000000I0011811J0000000D01*
G01*
X0244094D02*
G03*
X0255906Y0011811I0000000J0011811D01*
G01*
X0019685Y0139764D02*
G03*
X0015748Y0143701I-0003937J0000000D01*
G01*
X0003937Y0076772D02*
G03*
X0000000Y0072835I0000000J-0003937D01*
G01*
X-0039370Y0147638D02*
G03*
X-0035433Y0143701I0003937J0000000D01*
G01*
X0015748Y0076772D02*
G03*
X0019685Y0080709I0000000J0003937D01*
G01*
X0255906Y0011811D02*
Y0218504D01*
X-0035433Y0222441D02*
X0251969D01*
X-0039370Y0147638D02*
Y0218504D01*
X-0035433Y0143701D02*
X0015748D01*
X0000000Y0011811D02*
Y0072835D01*
X0011811Y0000000D02*
X0244094D01*
X0019685Y0080709D02*
Y0139764D01*
X0003937Y0076772D02*
X0015748D01*
D32*
X0233858Y0046634D02*
D03*
X0022047D02*
D03*
D38*
X0222953Y0211693D02*
D03*
Y0201693D02*
D03*
X0212953Y0211693D02*
D03*
Y0201693D02*
D03*
X0202953Y0211693D02*
D03*
Y0201693D02*
D03*
X0192953Y0211693D02*
D03*
Y0201693D02*
D03*
X0182953Y0211693D02*
D03*
Y0201693D02*
D03*
X0172953Y0211693D02*
D03*
Y0201693D02*
D03*
X0162953Y0211693D02*
D03*
Y0201693D02*
D03*
X0152953Y0211693D02*
D03*
Y0201693D02*
D03*
X0142953Y0211693D02*
D03*
Y0201693D02*
D03*
X0132953Y0211693D02*
D03*
Y0201693D02*
D03*
X0122953Y0211693D02*
D03*
Y0201693D02*
D03*
X0112953Y0211693D02*
D03*
Y0201693D02*
D03*
X0102953Y0211693D02*
D03*
Y0201693D02*
D03*
X0092953Y0211693D02*
D03*
Y0201693D02*
D03*
X0082953Y0211693D02*
D03*
Y0201693D02*
D03*
X0072953Y0211693D02*
D03*
Y0201693D02*
D03*
X0062953Y0211693D02*
D03*
Y0201693D02*
D03*
X0052953Y0211693D02*
D03*
Y0201693D02*
D03*
X0042953Y0211693D02*
D03*
Y0201693D02*
D03*
X0032953Y0211693D02*
D03*
D39*
Y0201693D02*
D03*
D43*
X0160063Y0115285D02*
X0160213Y0115435D01*
Y0115810D01*
X0173686Y0129283D02*
X0179528D01*
X0160213Y0115810D02*
X0173686Y0129283D01*
X0132326Y0127128D02*
X0132583D01*
X0125102Y0127182D02*
X0132379D01*
X0117028Y0135256D02*
X0125102Y0127182D01*
X0135459Y0123024D02*
Y0124252D01*
X0132583Y0127128D02*
X0135459Y0124252D01*
Y0123024D02*
X0137197Y0121286D01*
X0132379Y0127182D02*
X0132455Y0127257D01*
X0117028Y0135256D02*
Y0153543D01*
X0111789Y0158782D02*
X0117028Y0153543D01*
X0107917Y0165055D02*
X0111789Y0161184D01*
Y0158782D02*
Y0161184D01*
X0137197Y0121286D02*
X0142819D01*
X0143870Y0111811D02*
X0158985D01*
X0142717Y0118522D02*
X0142744Y0118549D01*
X0142717Y0112964D02*
X0143870Y0111811D01*
X0142717Y0112964D02*
Y0118522D01*
X0142744Y0121211D02*
X0142819Y0121286D01*
X0142744Y0118549D02*
Y0121211D01*
X0160063Y0112889D02*
Y0115285D01*
X0158985Y0111811D02*
X0160063Y0112889D01*
X0107480Y0166208D02*
X0107917Y0165771D01*
Y0165055D02*
Y0165771D01*
X0107480Y0199539D02*
X0107677Y0199736D01*
X0107480Y0213847D02*
X0107677Y0213650D01*
Y0199736D02*
Y0213650D01*
X0104724Y0219094D02*
X0107480Y0216339D01*
Y0213847D02*
Y0216339D01*
Y0166208D02*
Y0199539D01*
X0043673Y0219094D02*
X0104724D01*
X0037992Y0213414D02*
X0043673Y0219094D01*
X0037992Y0206732D02*
Y0213414D01*
X0032953Y0201693D02*
X0037992Y0206732D01*
D45*
X0089902Y0163071D02*
D03*
Y0153071D02*
D03*
X0099902Y0163071D02*
D03*
Y0153071D02*
D03*
X0109902D02*
D03*
X0036614Y0142028D02*
D03*
X0036417Y0151870D02*
D03*
X0036614Y0122343D02*
D03*
Y0132185D02*
D03*
Y0102657D02*
D03*
Y0112500D02*
D03*
Y0092815D02*
D03*
D46*
X0109902Y0163071D02*
D03*
D47*
X0133366Y0159764D02*
D03*
X0127154D02*
D03*
Y0154764D02*
D03*
X0133366Y0164764D02*
D03*
D48*
X0127154D02*
D03*
D49*
X0036614Y0161713D02*
D03*
D50*
X0173118Y0173936D02*
D03*
X0179528Y0129283D02*
D03*
X0132659Y0130140D02*
D03*
X0132455Y0127257D02*
D03*
X0128937Y0135236D02*
D03*
X0177953Y0146841D02*
D03*
X0040380Y0026476D02*
D03*
X0030341D02*
D03*
X0160459Y0091732D02*
D03*
X0165971D02*
D03*
X0145374Y0117224D02*
D03*
X0160138Y0115360D02*
D03*
X0156363Y0115536D02*
D03*
X0138189Y0124606D02*
D03*
X0142819Y0121286D02*
D03*
X0152264Y0127362D02*
D03*
X0143500Y0130913D02*
D03*
X0156201Y0126404D02*
D03*
X0129626Y0040945D02*
D03*
X0133169Y0020105D02*
D03*
M02*
