G04*
G04 #@! TF.GenerationSoftware,Altium Limited,Altium Designer,21.1.1 (26)*
G04*
G04 Layer_Physical_Order=1*
G04 Layer_Color=255*
%FSAX25Y25*%
%MOIN*%
G70*
G04*
G04 #@! TF.SameCoordinates,385E19C8-3E5E-4D6B-97ED-1EBFA2F8C446*
G04*
G04*
G04 #@! TF.FilePolarity,Positive*
G04*
G01*
G75*
%ADD10C,0.01181*%
%ADD15C,0.01000*%
%ADD18R,0.02165X0.01968*%
%ADD19R,0.04724X0.01181*%
%ADD20R,0.01181X0.04724*%
%ADD21R,0.02165X0.01968*%
%ADD22R,0.01968X0.02165*%
%ADD23R,0.01968X0.02165*%
%ADD32C,0.09055*%
%ADD38C,0.06496*%
%ADD39R,0.06496X0.06496*%
%ADD41R,0.03937X0.09843*%
%ADD42R,0.03150X0.03150*%
%ADD43C,0.01968*%
%ADD44C,0.00787*%
%ADD45C,0.05937*%
%ADD46R,0.05937X0.05937*%
%ADD47C,0.04370*%
%ADD48R,0.04370X0.04370*%
%ADD49R,0.05937X0.05937*%
%ADD50C,0.02362*%
G36*
X-0035433Y0221237D02*
X0251969D01*
X0252238Y0221237D01*
X0252766Y0221132D01*
X0253263Y0220926D01*
X0253711Y0220627D01*
X0254091Y0220246D01*
X0254390Y0219798D01*
X0254596Y0219301D01*
X0254701Y0218773D01*
Y0218504D01*
Y0011811D01*
Y0011116D01*
X0254520Y0009737D01*
X0254160Y0008394D01*
X0253628Y0007110D01*
X0252933Y0005906D01*
X0252086Y0004803D01*
X0251103Y0003819D01*
X0250000Y0002973D01*
X0248796Y0002278D01*
X0247511Y0001746D01*
X0246168Y0001386D01*
X0244790Y0001204D01*
X0011116D01*
X0009737Y0001386D01*
X0008394Y0001746D01*
X0007110Y0002278D01*
X0005906Y0002973D01*
X0004803Y0003819D01*
X0003819Y0004803D01*
X0002973Y0005906D01*
X0002278Y0007110D01*
X0001746Y0008394D01*
X0001386Y0009737D01*
X0001204Y0011116D01*
Y0011811D01*
Y0072835D01*
Y0073104D01*
X0001309Y0073632D01*
X0001515Y0074129D01*
X0001814Y0074577D01*
X0002195Y0074957D01*
X0002643Y0075256D01*
X0003140Y0075463D01*
X0003668Y0075568D01*
X0003937Y0075568D01*
X0015748D01*
X0015777Y0075573D01*
X0015807Y0075569D01*
X0016193Y0075588D01*
X0016280Y0075610D01*
X0016369D01*
X0017126Y0075760D01*
X0017235Y0075805D01*
X0017352Y0075829D01*
X0018065Y0076124D01*
X0018163Y0076190D01*
X0018273Y0076235D01*
X0018915Y0076664D01*
X0018999Y0076748D01*
X0019097Y0076814D01*
X0019643Y0077359D01*
X0019709Y0077458D01*
X0019793Y0077542D01*
X0020221Y0078184D01*
X0020267Y0078293D01*
X0020333Y0078392D01*
X0020628Y0079105D01*
X0020651Y0079221D01*
X0020697Y0079331D01*
X0020847Y0080088D01*
Y0080177D01*
X0020869Y0080264D01*
X0020888Y0080650D01*
X0020883Y0080679D01*
X0020889Y0080709D01*
Y0139764D01*
X0020883Y0139793D01*
X0020888Y0139823D01*
X0020869Y0140209D01*
X0020847Y0140295D01*
Y0140385D01*
X0020697Y0141142D01*
X0020651Y0141251D01*
X0020628Y0141367D01*
X0020333Y0142080D01*
X0020267Y0142179D01*
X0020221Y0142289D01*
X0019793Y0142930D01*
X0019709Y0143014D01*
X0019643Y0143113D01*
X0019097Y0143659D01*
X0018999Y0143725D01*
X0018915Y0143808D01*
X0018273Y0144237D01*
X0018163Y0144282D01*
X0018065Y0144349D01*
X0017352Y0144644D01*
X0017235Y0144667D01*
X0017126Y0144712D01*
X0016369Y0144863D01*
X0016280D01*
X0016193Y0144885D01*
X0015807Y0144904D01*
X0015777Y0144899D01*
X0015748Y0144905D01*
X-0035702D01*
X-0036230Y0145010D01*
X-0036727Y0145216D01*
X-0037175Y0145515D01*
X-0037556Y0145896D01*
X-0037855Y0146343D01*
X-0038061Y0146841D01*
X-0038166Y0147369D01*
Y0147638D01*
Y0218504D01*
Y0218773D01*
X-0038061Y0219301D01*
X-0037855Y0219798D01*
X-0037556Y0220246D01*
X-0037175Y0220627D01*
X-0036727Y0220926D01*
X-0036230Y0221132D01*
X-0035702Y0221237D01*
X-0035433Y0221237D01*
D02*
G37*
%LPC*%
G36*
X0173484Y0215728D02*
X0173346D01*
Y0212087D01*
X0176988D01*
Y0212224D01*
X0176713Y0213250D01*
X0176182Y0214171D01*
X0175431Y0214922D01*
X0174510Y0215453D01*
X0173484Y0215728D01*
D02*
G37*
G36*
X0123484D02*
X0123346D01*
Y0212087D01*
X0126988D01*
Y0212224D01*
X0126713Y0213250D01*
X0126182Y0214171D01*
X0125431Y0214922D01*
X0124510Y0215453D01*
X0123484Y0215728D01*
D02*
G37*
G36*
X0093484D02*
X0093347D01*
Y0212087D01*
X0096988D01*
Y0212224D01*
X0096713Y0213250D01*
X0096182Y0214171D01*
X0095431Y0214922D01*
X0094510Y0215453D01*
X0093484Y0215728D01*
D02*
G37*
G36*
X0053484D02*
X0053347D01*
Y0212087D01*
X0056988D01*
Y0212224D01*
X0056713Y0213250D01*
X0056182Y0214171D01*
X0055431Y0214922D01*
X0054510Y0215453D01*
X0053484Y0215728D01*
D02*
G37*
G36*
X0193484D02*
X0193347D01*
Y0212087D01*
X0196988D01*
Y0212224D01*
X0196713Y0213250D01*
X0196182Y0214171D01*
X0195431Y0214922D01*
X0194510Y0215453D01*
X0193484Y0215728D01*
D02*
G37*
G36*
X0172559D02*
X0172422D01*
X0171395Y0215453D01*
X0170475Y0214922D01*
X0169724Y0214171D01*
X0169192Y0213250D01*
X0168917Y0212224D01*
Y0212087D01*
X0172559D01*
Y0215728D01*
D02*
G37*
G36*
X0122559D02*
X0122422D01*
X0121395Y0215453D01*
X0120475Y0214922D01*
X0119724Y0214171D01*
X0119192Y0213250D01*
X0118917Y0212224D01*
Y0212087D01*
X0122559D01*
Y0215728D01*
D02*
G37*
G36*
X0192559D02*
X0192421D01*
X0191395Y0215453D01*
X0190475Y0214922D01*
X0189724Y0214171D01*
X0189192Y0213250D01*
X0188917Y0212224D01*
Y0212087D01*
X0192559D01*
Y0215728D01*
D02*
G37*
G36*
X0092559D02*
X0092422D01*
X0091395Y0215453D01*
X0090475Y0214922D01*
X0089724Y0214171D01*
X0089192Y0213250D01*
X0088917Y0212224D01*
Y0212087D01*
X0092559D01*
Y0215728D01*
D02*
G37*
G36*
X0052559D02*
X0052421D01*
X0051395Y0215453D01*
X0050475Y0214922D01*
X0049724Y0214171D01*
X0049192Y0213250D01*
X0048917Y0212224D01*
Y0212087D01*
X0052559D01*
Y0215728D01*
D02*
G37*
G36*
X0223445Y0215433D02*
X0222460D01*
X0221509Y0215178D01*
X0220656Y0214686D01*
X0219960Y0213989D01*
X0219467Y0213137D01*
X0219213Y0212185D01*
Y0211200D01*
X0219467Y0210249D01*
X0219960Y0209396D01*
X0220656Y0208700D01*
X0221509Y0208208D01*
X0222460Y0207953D01*
X0223445D01*
X0224396Y0208208D01*
X0225249Y0208700D01*
X0225946Y0209396D01*
X0226438Y0210249D01*
X0226693Y0211200D01*
Y0212185D01*
X0226438Y0213137D01*
X0225946Y0213989D01*
X0225249Y0214686D01*
X0224396Y0215178D01*
X0223445Y0215433D01*
D02*
G37*
G36*
X0213445D02*
X0212460D01*
X0211509Y0215178D01*
X0210656Y0214686D01*
X0209960Y0213989D01*
X0209468Y0213137D01*
X0209213Y0212185D01*
Y0211200D01*
X0209468Y0210249D01*
X0209960Y0209396D01*
X0210656Y0208700D01*
X0211509Y0208208D01*
X0212460Y0207953D01*
X0213445D01*
X0214396Y0208208D01*
X0215249Y0208700D01*
X0215946Y0209396D01*
X0216438Y0210249D01*
X0216693Y0211200D01*
Y0212185D01*
X0216438Y0213137D01*
X0215946Y0213989D01*
X0215249Y0214686D01*
X0214396Y0215178D01*
X0213445Y0215433D01*
D02*
G37*
G36*
X0203445D02*
X0202460D01*
X0201509Y0215178D01*
X0200656Y0214686D01*
X0199960Y0213989D01*
X0199468Y0213137D01*
X0199213Y0212185D01*
Y0211200D01*
X0199468Y0210249D01*
X0199960Y0209396D01*
X0200656Y0208700D01*
X0201509Y0208208D01*
X0202460Y0207953D01*
X0203445D01*
X0204396Y0208208D01*
X0205249Y0208700D01*
X0205946Y0209396D01*
X0206438Y0210249D01*
X0206693Y0211200D01*
Y0212185D01*
X0206438Y0213137D01*
X0205946Y0213989D01*
X0205249Y0214686D01*
X0204396Y0215178D01*
X0203445Y0215433D01*
D02*
G37*
G36*
X0183445D02*
X0182460D01*
X0181509Y0215178D01*
X0180656Y0214686D01*
X0179960Y0213989D01*
X0179467Y0213137D01*
X0179213Y0212185D01*
Y0211200D01*
X0179467Y0210249D01*
X0179960Y0209396D01*
X0180656Y0208700D01*
X0181509Y0208208D01*
X0182460Y0207953D01*
X0183445D01*
X0184396Y0208208D01*
X0185249Y0208700D01*
X0185946Y0209396D01*
X0186438Y0210249D01*
X0186693Y0211200D01*
Y0212185D01*
X0186438Y0213137D01*
X0185946Y0213989D01*
X0185249Y0214686D01*
X0184396Y0215178D01*
X0183445Y0215433D01*
D02*
G37*
G36*
X0163445D02*
X0162460D01*
X0161509Y0215178D01*
X0160656Y0214686D01*
X0159960Y0213989D01*
X0159467Y0213137D01*
X0159213Y0212185D01*
Y0211200D01*
X0159467Y0210249D01*
X0159960Y0209396D01*
X0160656Y0208700D01*
X0161509Y0208208D01*
X0162460Y0207953D01*
X0163445D01*
X0164396Y0208208D01*
X0165249Y0208700D01*
X0165946Y0209396D01*
X0166438Y0210249D01*
X0166693Y0211200D01*
Y0212185D01*
X0166438Y0213137D01*
X0165946Y0213989D01*
X0165249Y0214686D01*
X0164396Y0215178D01*
X0163445Y0215433D01*
D02*
G37*
G36*
X0153445D02*
X0152460D01*
X0151509Y0215178D01*
X0150656Y0214686D01*
X0149960Y0213989D01*
X0149468Y0213137D01*
X0149213Y0212185D01*
Y0211200D01*
X0149468Y0210249D01*
X0149960Y0209396D01*
X0150656Y0208700D01*
X0151509Y0208208D01*
X0152460Y0207953D01*
X0153445D01*
X0154396Y0208208D01*
X0155249Y0208700D01*
X0155946Y0209396D01*
X0156438Y0210249D01*
X0156693Y0211200D01*
Y0212185D01*
X0156438Y0213137D01*
X0155946Y0213989D01*
X0155249Y0214686D01*
X0154396Y0215178D01*
X0153445Y0215433D01*
D02*
G37*
G36*
X0133445D02*
X0132460D01*
X0131509Y0215178D01*
X0130656Y0214686D01*
X0129960Y0213989D01*
X0129467Y0213137D01*
X0129213Y0212185D01*
Y0211200D01*
X0129467Y0210249D01*
X0129960Y0209396D01*
X0130656Y0208700D01*
X0131509Y0208208D01*
X0132460Y0207953D01*
X0133445D01*
X0134396Y0208208D01*
X0135249Y0208700D01*
X0135946Y0209396D01*
X0136438Y0210249D01*
X0136693Y0211200D01*
Y0212185D01*
X0136438Y0213137D01*
X0135946Y0213989D01*
X0135249Y0214686D01*
X0134396Y0215178D01*
X0133445Y0215433D01*
D02*
G37*
G36*
X0113445D02*
X0112460D01*
X0111509Y0215178D01*
X0110656Y0214686D01*
X0109960Y0213989D01*
X0109467Y0213137D01*
X0109213Y0212185D01*
Y0211200D01*
X0109467Y0210249D01*
X0109960Y0209396D01*
X0110656Y0208700D01*
X0111509Y0208208D01*
X0112460Y0207953D01*
X0113445D01*
X0114396Y0208208D01*
X0115249Y0208700D01*
X0115946Y0209396D01*
X0116438Y0210249D01*
X0116693Y0211200D01*
Y0212185D01*
X0116438Y0213137D01*
X0115946Y0213989D01*
X0115249Y0214686D01*
X0114396Y0215178D01*
X0113445Y0215433D01*
D02*
G37*
G36*
X0143445D02*
X0142460D01*
X0141509Y0215178D01*
X0140656Y0214686D01*
X0139960Y0213989D01*
X0139468Y0213137D01*
X0139213Y0212185D01*
Y0211200D01*
X0139468Y0210249D01*
X0139960Y0209396D01*
X0140656Y0208700D01*
X0141509Y0208208D01*
X0142460Y0207953D01*
X0143445D01*
X0144396Y0208208D01*
X0144701Y0208383D01*
X0147150Y0205935D01*
Y0202413D01*
X0146650Y0202348D01*
X0146438Y0203137D01*
X0145946Y0203989D01*
X0145249Y0204686D01*
X0144396Y0205178D01*
X0143445Y0205433D01*
X0142460D01*
X0141509Y0205178D01*
X0140656Y0204686D01*
X0139960Y0203989D01*
X0139468Y0203137D01*
X0139213Y0202185D01*
Y0201201D01*
X0139468Y0200249D01*
X0139960Y0199396D01*
X0140656Y0198700D01*
X0141509Y0198208D01*
X0141849Y0198117D01*
Y0191299D01*
X0141933Y0190877D01*
X0142172Y0190519D01*
X0162971Y0169720D01*
Y0166364D01*
X0162471Y0166157D01*
X0134057Y0194571D01*
Y0198117D01*
X0134396Y0198208D01*
X0135249Y0198700D01*
X0135946Y0199396D01*
X0136438Y0200249D01*
X0136693Y0201201D01*
Y0202185D01*
X0136438Y0203137D01*
X0135946Y0203989D01*
X0135249Y0204686D01*
X0134396Y0205178D01*
X0133445Y0205433D01*
X0132460D01*
X0131509Y0205178D01*
X0130656Y0204686D01*
X0129960Y0203989D01*
X0129467Y0203137D01*
X0129213Y0202185D01*
Y0201201D01*
X0129467Y0200249D01*
X0129960Y0199396D01*
X0130656Y0198700D01*
X0131509Y0198208D01*
X0131849Y0198117D01*
Y0194114D01*
X0131933Y0193692D01*
X0132172Y0193334D01*
X0161002Y0164503D01*
Y0162329D01*
X0160502Y0162122D01*
X0124732Y0197892D01*
X0124781Y0198430D01*
X0125249Y0198700D01*
X0125946Y0199396D01*
X0126438Y0200249D01*
X0126693Y0201201D01*
Y0202185D01*
X0126438Y0203137D01*
X0125946Y0203989D01*
X0125249Y0204686D01*
X0124396Y0205178D01*
X0123445Y0205433D01*
X0122460D01*
X0121509Y0205178D01*
X0120656Y0204686D01*
X0119960Y0203989D01*
X0119467Y0203137D01*
X0119213Y0202185D01*
Y0201201D01*
X0119467Y0200249D01*
X0119960Y0199396D01*
X0120656Y0198700D01*
X0121509Y0198208D01*
X0122426Y0197962D01*
Y0197533D01*
X0122510Y0197111D01*
X0122749Y0196753D01*
X0159034Y0160468D01*
Y0157776D01*
X0153368D01*
Y0162898D01*
X0153368Y0162898D01*
X0153284Y0163320D01*
X0153044Y0163678D01*
X0134840Y0181883D01*
X0134482Y0182122D01*
X0134059Y0182206D01*
X0100787D01*
X0100365Y0182122D01*
X0100007Y0181883D01*
X0089121Y0170997D01*
X0088882Y0170639D01*
X0088798Y0170217D01*
Y0166358D01*
X0088566Y0166296D01*
X0087777Y0165840D01*
X0087132Y0165196D01*
X0086677Y0164407D01*
X0086441Y0163526D01*
Y0162615D01*
X0086677Y0161735D01*
X0087132Y0160946D01*
X0087777Y0160302D01*
X0088181Y0160069D01*
X0088047Y0159569D01*
X0086713D01*
X0086713Y0159569D01*
X0086290Y0159484D01*
X0085932Y0159245D01*
X0083865Y0157178D01*
X0083626Y0156820D01*
X0083542Y0156398D01*
Y0078878D01*
X0083626Y0078456D01*
X0083865Y0078097D01*
X0099349Y0062614D01*
Y0037873D01*
X0098995Y0037520D01*
X0097992Y0037520D01*
X0097492Y0037520D01*
X0092992D01*
Y0037520D01*
X0092913D01*
Y0037520D01*
X0087992D01*
Y0037520D01*
X0087913D01*
Y0037520D01*
X0082992D01*
Y0037520D01*
X0082913D01*
Y0037520D01*
X0077992D01*
Y0037520D01*
X0077913D01*
Y0037520D01*
X0072992D01*
Y0037520D01*
X0072913D01*
Y0037520D01*
X0071958D01*
Y0040256D01*
X0071843Y0040832D01*
X0071517Y0041320D01*
X0049143Y0063694D01*
Y0079429D01*
Y0097342D01*
X0049213D01*
Y0100295D01*
X0047783D01*
X0047638Y0100324D01*
X0047492Y0100295D01*
X0046063D01*
Y0097342D01*
X0046132D01*
Y0080934D01*
X0038419D01*
X0028868Y0090486D01*
Y0115916D01*
X0034609D01*
X0034743Y0115416D01*
X0034489Y0115269D01*
X0033845Y0114625D01*
X0033389Y0113836D01*
X0033154Y0112956D01*
Y0112044D01*
X0033389Y0111164D01*
X0033845Y0110375D01*
X0034489Y0109731D01*
X0035278Y0109275D01*
X0036159Y0109039D01*
X0037070D01*
X0037950Y0109275D01*
X0038739Y0109731D01*
X0039383Y0110375D01*
X0039839Y0111164D01*
X0039901Y0111396D01*
X0046260D01*
Y0111024D01*
X0049409D01*
Y0111396D01*
X0057414D01*
X0057836Y0111480D01*
X0058194Y0111719D01*
X0076962Y0130487D01*
X0077201Y0130845D01*
X0077285Y0131267D01*
Y0175724D01*
X0098910Y0197349D01*
X0099150Y0197707D01*
X0099234Y0198130D01*
Y0199654D01*
X0099734Y0199788D01*
X0099960Y0199396D01*
X0100656Y0198700D01*
X0101509Y0198208D01*
X0101849Y0198117D01*
Y0195202D01*
X0079338Y0172690D01*
X0079098Y0172332D01*
X0079014Y0171910D01*
Y0124276D01*
X0058598Y0103860D01*
X0049213D01*
Y0104232D01*
X0046063D01*
Y0103811D01*
X0039888D01*
X0039839Y0103993D01*
X0039383Y0104782D01*
X0038739Y0105427D01*
X0037950Y0105882D01*
X0037070Y0106118D01*
X0036159D01*
X0035278Y0105882D01*
X0034489Y0105427D01*
X0033845Y0104782D01*
X0033389Y0103993D01*
X0033154Y0103113D01*
Y0102202D01*
X0033389Y0101322D01*
X0033845Y0100533D01*
X0034489Y0099888D01*
X0035278Y0099433D01*
X0036159Y0099197D01*
X0037070D01*
X0037950Y0099433D01*
X0038739Y0099888D01*
X0039383Y0100533D01*
X0039839Y0101322D01*
X0039914Y0101603D01*
X0046063D01*
Y0101279D01*
X0049213D01*
Y0101652D01*
X0059055D01*
X0059478Y0101736D01*
X0059836Y0101975D01*
X0080899Y0123038D01*
X0081138Y0123397D01*
X0081222Y0123819D01*
X0081222Y0123819D01*
Y0171453D01*
X0103733Y0193964D01*
X0103973Y0194322D01*
X0104057Y0194745D01*
Y0198117D01*
X0104396Y0198208D01*
X0105249Y0198700D01*
X0105946Y0199396D01*
X0106438Y0200249D01*
X0106693Y0201201D01*
Y0202185D01*
X0106438Y0203137D01*
X0105946Y0203989D01*
X0105249Y0204686D01*
X0104396Y0205178D01*
X0103445Y0205433D01*
X0102460D01*
X0101509Y0205178D01*
X0100656Y0204686D01*
X0099960Y0203989D01*
X0099734Y0203598D01*
X0099234Y0203732D01*
Y0206413D01*
X0101205Y0208383D01*
X0101509Y0208208D01*
X0102460Y0207953D01*
X0103445D01*
X0104396Y0208208D01*
X0105249Y0208700D01*
X0105946Y0209396D01*
X0106438Y0210249D01*
X0106693Y0211200D01*
Y0212185D01*
X0106438Y0213137D01*
X0105946Y0213989D01*
X0105249Y0214686D01*
X0104396Y0215178D01*
X0103445Y0215433D01*
X0102460D01*
X0101509Y0215178D01*
X0100656Y0214686D01*
X0099960Y0213989D01*
X0099467Y0213137D01*
X0099213Y0212185D01*
Y0211200D01*
X0099467Y0210249D01*
X0099643Y0209945D01*
X0097349Y0207651D01*
X0097110Y0207293D01*
X0097026Y0206870D01*
Y0202874D01*
X0096526Y0202808D01*
X0096438Y0203137D01*
X0095946Y0203989D01*
X0095249Y0204686D01*
X0094396Y0205178D01*
X0093445Y0205433D01*
X0092460D01*
X0091509Y0205178D01*
X0090656Y0204686D01*
X0089960Y0203989D01*
X0089468Y0203137D01*
X0089213Y0202185D01*
Y0201201D01*
X0089468Y0200249D01*
X0089643Y0199945D01*
X0069692Y0179993D01*
X0069453Y0179635D01*
X0069369Y0179213D01*
Y0136832D01*
X0056956Y0124420D01*
X0049425D01*
Y0124792D01*
X0046275D01*
Y0123446D01*
X0039901D01*
X0039839Y0123678D01*
X0039383Y0124467D01*
X0038739Y0125112D01*
X0037950Y0125567D01*
X0037070Y0125803D01*
X0036159D01*
X0035278Y0125567D01*
X0034489Y0125112D01*
X0033845Y0124467D01*
X0033389Y0123678D01*
X0033154Y0122798D01*
Y0121887D01*
X0033389Y0121007D01*
X0033845Y0120218D01*
X0034489Y0119573D01*
X0034743Y0119427D01*
X0034609Y0118927D01*
X0028868D01*
Y0135995D01*
X0035529D01*
X0035595Y0135495D01*
X0035278Y0135410D01*
X0034489Y0134954D01*
X0033845Y0134310D01*
X0033389Y0133521D01*
X0033154Y0132641D01*
Y0131729D01*
X0033389Y0130849D01*
X0033845Y0130060D01*
X0034489Y0129416D01*
X0035278Y0128960D01*
X0036159Y0128724D01*
X0037070D01*
X0037950Y0128960D01*
X0038739Y0129416D01*
X0039383Y0130060D01*
X0039839Y0130849D01*
X0039901Y0131081D01*
X0046260D01*
Y0130709D01*
X0049409D01*
Y0131081D01*
X0054429D01*
X0054852Y0131165D01*
X0055210Y0131404D01*
X0064855Y0141050D01*
X0065095Y0141408D01*
X0065179Y0141831D01*
Y0182358D01*
X0081204Y0198383D01*
X0081509Y0198208D01*
X0082460Y0197953D01*
X0083445D01*
X0084396Y0198208D01*
X0085249Y0198700D01*
X0085946Y0199396D01*
X0086438Y0200249D01*
X0086693Y0201201D01*
Y0202185D01*
X0086438Y0203137D01*
X0085946Y0203989D01*
X0085249Y0204686D01*
X0084396Y0205178D01*
X0083445Y0205433D01*
X0082460D01*
X0081509Y0205178D01*
X0080656Y0204686D01*
X0079960Y0203989D01*
X0079467Y0203137D01*
X0079213Y0202185D01*
Y0201201D01*
X0079467Y0200249D01*
X0079643Y0199945D01*
X0063294Y0183596D01*
X0063055Y0183237D01*
X0062971Y0182815D01*
Y0142288D01*
X0053972Y0133289D01*
X0049409D01*
Y0133661D01*
X0046260D01*
Y0133289D01*
X0039901D01*
X0039839Y0133521D01*
X0039383Y0134310D01*
X0038739Y0134954D01*
X0037950Y0135410D01*
X0037633Y0135495D01*
X0037699Y0135995D01*
X0041634D01*
X0042210Y0136109D01*
X0042698Y0136436D01*
X0043439Y0137176D01*
X0046260D01*
Y0134646D01*
X0047689D01*
X0047835Y0134617D01*
X0047980Y0134646D01*
X0049409D01*
Y0137205D01*
Y0140157D01*
X0047980D01*
X0047835Y0140186D01*
X0042815D01*
X0042815Y0140186D01*
X0042239Y0140072D01*
X0041751Y0139745D01*
X0041750Y0139745D01*
X0041010Y0139005D01*
X0039193D01*
X0038986Y0139505D01*
X0039383Y0139903D01*
X0039839Y0140692D01*
X0039980Y0141219D01*
X0046260D01*
Y0141142D01*
X0049409D01*
Y0141514D01*
X0052953D01*
X0053375Y0141598D01*
X0053733Y0141838D01*
X0059836Y0147940D01*
X0060075Y0148298D01*
X0060159Y0148721D01*
Y0197338D01*
X0061204Y0198383D01*
X0061509Y0198208D01*
X0062460Y0197953D01*
X0063445D01*
X0064396Y0198208D01*
X0065249Y0198700D01*
X0065946Y0199396D01*
X0066438Y0200249D01*
X0066693Y0201201D01*
Y0202185D01*
X0066438Y0203137D01*
X0065946Y0203989D01*
X0065249Y0204686D01*
X0064396Y0205178D01*
X0063445Y0205433D01*
X0062460D01*
X0061509Y0205178D01*
X0060656Y0204686D01*
X0059960Y0203989D01*
X0059468Y0203137D01*
X0059213Y0202185D01*
Y0201201D01*
X0059468Y0200249D01*
X0059643Y0199945D01*
X0058275Y0198576D01*
X0058035Y0198218D01*
X0057951Y0197795D01*
Y0149178D01*
X0052495Y0143722D01*
X0049409D01*
Y0144095D01*
X0046260D01*
Y0143427D01*
X0039802D01*
X0039383Y0144152D01*
X0038739Y0144797D01*
X0037950Y0145252D01*
X0037070Y0145488D01*
X0036159D01*
X0035278Y0145252D01*
X0034489Y0144797D01*
X0033845Y0144152D01*
X0033389Y0143363D01*
X0033154Y0142483D01*
Y0141572D01*
X0033389Y0140692D01*
X0033845Y0139903D01*
X0034242Y0139505D01*
X0034035Y0139005D01*
X0028868D01*
Y0155188D01*
X0034242D01*
X0034376Y0154688D01*
X0034292Y0154639D01*
X0033648Y0153995D01*
X0033193Y0153206D01*
X0032957Y0152326D01*
Y0151415D01*
X0033193Y0150534D01*
X0033648Y0149745D01*
X0034292Y0149101D01*
X0035082Y0148645D01*
X0035962Y0148409D01*
X0036873D01*
X0037753Y0148645D01*
X0038542Y0149101D01*
X0039186Y0149745D01*
X0039642Y0150534D01*
X0039652Y0150569D01*
X0046161D01*
Y0150000D01*
X0049311D01*
Y0150373D01*
X0050935D01*
X0051358Y0150457D01*
X0051716Y0150696D01*
X0053733Y0152714D01*
X0053973Y0153072D01*
X0054057Y0153494D01*
Y0198117D01*
X0054396Y0198208D01*
X0055249Y0198700D01*
X0055946Y0199396D01*
X0056438Y0200249D01*
X0056693Y0201201D01*
Y0202185D01*
X0056438Y0203137D01*
X0055946Y0203989D01*
X0055249Y0204686D01*
X0054396Y0205178D01*
X0053445Y0205433D01*
X0052460D01*
X0051509Y0205178D01*
X0050656Y0204686D01*
X0049960Y0203989D01*
X0049468Y0203137D01*
X0049213Y0202185D01*
Y0201201D01*
X0049468Y0200249D01*
X0049960Y0199396D01*
X0050656Y0198700D01*
X0051509Y0198208D01*
X0051849Y0198117D01*
Y0153951D01*
X0050478Y0152580D01*
X0049311D01*
Y0152953D01*
X0046161D01*
Y0152777D01*
X0039757D01*
X0039642Y0153206D01*
X0039186Y0153995D01*
X0038542Y0154639D01*
X0038458Y0154688D01*
X0038592Y0155188D01*
X0043248D01*
X0043824Y0155302D01*
X0044312Y0155629D01*
X0045250Y0156566D01*
X0046161D01*
Y0153937D01*
X0047591D01*
X0047736Y0153908D01*
X0047882Y0153937D01*
X0049311D01*
Y0156595D01*
Y0159547D01*
X0047882D01*
X0047736Y0159576D01*
X0044626D01*
X0044050Y0159462D01*
X0043562Y0159135D01*
X0042625Y0158198D01*
X0040552D01*
X0040075Y0158252D01*
X0040075Y0158698D01*
Y0160904D01*
X0046161D01*
Y0160531D01*
X0049311D01*
Y0163484D01*
X0048840D01*
Y0196909D01*
X0048756Y0197332D01*
X0048517Y0197690D01*
X0046262Y0199945D01*
X0046438Y0200249D01*
X0046693Y0201201D01*
Y0202185D01*
X0046438Y0203137D01*
X0045946Y0203989D01*
X0045249Y0204686D01*
X0044396Y0205178D01*
X0043445Y0205433D01*
X0042460D01*
X0041509Y0205178D01*
X0040656Y0204686D01*
X0039960Y0203989D01*
X0039467Y0203137D01*
X0039213Y0202185D01*
Y0201201D01*
X0039467Y0200249D01*
X0039960Y0199396D01*
X0040656Y0198700D01*
X0041509Y0198208D01*
X0042460Y0197953D01*
X0043445D01*
X0044396Y0198208D01*
X0044701Y0198383D01*
X0046632Y0196452D01*
Y0163484D01*
X0046161D01*
Y0163112D01*
X0040075D01*
Y0165173D01*
X0033154D01*
X0033154Y0158252D01*
X0032676Y0158198D01*
X0028868D01*
Y0195479D01*
X0031341Y0197953D01*
X0036693D01*
Y0205433D01*
X0029213D01*
Y0200082D01*
X0026298Y0197167D01*
X0025971Y0196678D01*
X0025857Y0196102D01*
Y0156693D01*
Y0137500D01*
Y0117421D01*
Y0089862D01*
X0025971Y0089286D01*
X0026298Y0088798D01*
X0036731Y0078365D01*
X0037219Y0078038D01*
X0037795Y0077924D01*
X0046132D01*
Y0063071D01*
X0046247Y0062495D01*
X0046573Y0062006D01*
X0068947Y0039632D01*
Y0037873D01*
X0068594Y0037520D01*
X0067992Y0037520D01*
X0067492Y0037520D01*
X0063413D01*
X0062992Y0037520D01*
X0062492Y0037520D01*
X0058209D01*
Y0037815D01*
X0055847D01*
Y0032106D01*
Y0026398D01*
X0058209D01*
Y0026693D01*
X0062492D01*
X0062913Y0026693D01*
X0063413Y0026693D01*
X0067492D01*
X0067913Y0026693D01*
X0068413Y0026693D01*
X0072913D01*
Y0026693D01*
X0072992D01*
Y0026693D01*
X0077913D01*
Y0026693D01*
X0077992D01*
Y0026693D01*
X0082913D01*
Y0026693D01*
X0082992D01*
Y0026693D01*
X0087913D01*
Y0026693D01*
X0087992D01*
Y0026693D01*
X0092913D01*
Y0026693D01*
X0092992D01*
Y0026693D01*
X0097492D01*
X0097913Y0026693D01*
X0098413Y0026693D01*
X0102492D01*
X0102913Y0026693D01*
X0103413Y0026693D01*
X0107913D01*
Y0026693D01*
X0107992D01*
Y0026693D01*
X0112492D01*
X0112913Y0026693D01*
X0113413Y0026693D01*
X0117492D01*
X0117913Y0026693D01*
X0118413Y0026693D01*
X0122492D01*
X0122913Y0026693D01*
X0123413Y0026693D01*
X0127492D01*
X0127913Y0026693D01*
X0128413Y0026693D01*
X0132492D01*
X0132913Y0026693D01*
X0133413Y0026693D01*
X0137492D01*
X0137913Y0026693D01*
X0138413Y0026693D01*
X0142492D01*
X0142913Y0026693D01*
X0143413Y0026693D01*
X0147492D01*
X0147913Y0026693D01*
X0148413Y0026693D01*
X0152492D01*
X0152913Y0026693D01*
X0153413Y0026693D01*
X0157492D01*
X0157913Y0026693D01*
X0158413Y0026693D01*
X0162492D01*
X0162913Y0026693D01*
X0163413Y0026693D01*
X0167492D01*
X0167913Y0026693D01*
X0168413Y0026693D01*
X0172492D01*
X0172913Y0026693D01*
X0173413Y0026693D01*
X0177492D01*
X0177913Y0026693D01*
X0178413Y0026693D01*
X0182492D01*
X0182913Y0026693D01*
X0183413Y0026693D01*
X0187492D01*
X0187913Y0026693D01*
X0188413Y0026693D01*
X0192492D01*
X0192913Y0026693D01*
X0193413Y0026693D01*
X0194349D01*
Y0023078D01*
X0192479Y0021209D01*
X0134432D01*
X0134117Y0021523D01*
X0133502Y0021778D01*
X0132836D01*
X0132221Y0021523D01*
X0131751Y0021053D01*
X0131496Y0020438D01*
Y0019772D01*
X0131751Y0019157D01*
X0132221Y0018686D01*
X0132836Y0018432D01*
X0133502D01*
X0134117Y0018686D01*
X0134432Y0019001D01*
X0192937D01*
X0193359Y0019085D01*
X0193717Y0019324D01*
X0196233Y0021840D01*
X0196473Y0022199D01*
X0196557Y0022621D01*
Y0026339D01*
X0196910Y0026693D01*
X0197913Y0026693D01*
X0198413Y0026693D01*
X0202492D01*
X0202913Y0026693D01*
X0203413Y0026693D01*
X0207492D01*
X0207913Y0026693D01*
X0208413Y0026693D01*
X0212492D01*
X0212913Y0026693D01*
X0213413Y0026693D01*
X0217492D01*
X0217913Y0026693D01*
X0218413Y0026693D01*
X0222492D01*
X0222913Y0026693D01*
X0223413Y0026693D01*
X0227913D01*
Y0037520D01*
X0223413D01*
X0222992Y0037520D01*
X0222492Y0037520D01*
X0218413D01*
X0217992Y0037520D01*
X0217492Y0037520D01*
X0213413D01*
X0212992Y0037520D01*
X0212492Y0037520D01*
X0208413D01*
X0207992Y0037520D01*
X0207492Y0037520D01*
X0203413D01*
X0202992Y0037520D01*
X0202492Y0037520D01*
X0198413D01*
X0197992Y0037520D01*
X0197492Y0037520D01*
X0193413D01*
X0192992Y0037520D01*
X0192492Y0037520D01*
X0188413D01*
X0187992Y0037520D01*
X0187492Y0037520D01*
X0183413D01*
X0182992Y0037520D01*
X0182492Y0037520D01*
X0178413D01*
X0177992Y0037520D01*
X0177492Y0037520D01*
X0173413D01*
X0172992Y0037520D01*
X0172492Y0037520D01*
X0168413D01*
X0167992Y0037520D01*
X0167492Y0037520D01*
X0163413D01*
X0162992Y0037520D01*
X0162492Y0037520D01*
X0161537D01*
Y0058071D01*
X0162008D01*
Y0061024D01*
X0158858D01*
Y0058071D01*
X0159329D01*
Y0037873D01*
X0158976Y0037520D01*
X0157992Y0037520D01*
X0157492Y0037520D01*
X0153413D01*
X0152992Y0037520D01*
X0152492Y0037520D01*
X0148413D01*
X0147992Y0037520D01*
X0147492Y0037520D01*
X0146557D01*
Y0047165D01*
X0146473Y0047588D01*
X0146233Y0047946D01*
X0138998Y0055182D01*
Y0099838D01*
X0153985Y0114825D01*
X0154575Y0114708D01*
X0154694Y0114420D01*
X0155248Y0113867D01*
X0155969Y0113568D01*
Y0115536D01*
X0156756D01*
Y0113568D01*
X0157478Y0113867D01*
X0158032Y0114420D01*
X0158103Y0114593D01*
X0158644D01*
X0158719Y0114412D01*
X0159190Y0113942D01*
X0159805Y0113687D01*
X0160471D01*
X0160801Y0113824D01*
X0161302Y0113504D01*
Y0108979D01*
X0161288Y0108965D01*
X0161216Y0108858D01*
X0158366D01*
Y0104724D01*
X0162500D01*
Y0107581D01*
X0162586Y0107667D01*
X0162671Y0107794D01*
X0162843Y0107966D01*
X0162891Y0108037D01*
X0163260Y0108094D01*
X0163473Y0108082D01*
X0163476Y0108081D01*
X0163976Y0107581D01*
Y0104724D01*
X0168110D01*
Y0108858D01*
X0165254D01*
X0164978Y0109134D01*
Y0118602D01*
X0167126D01*
Y0124311D01*
X0159547D01*
Y0124606D01*
X0158563D01*
Y0121457D01*
X0157776D01*
Y0124606D01*
X0157305D01*
Y0125142D01*
X0157619Y0125456D01*
X0157874Y0126071D01*
Y0126737D01*
X0157619Y0127352D01*
X0157149Y0127823D01*
X0156534Y0128077D01*
X0155868D01*
X0155253Y0127823D01*
X0154782Y0127352D01*
X0154528Y0126737D01*
Y0126071D01*
X0154782Y0125456D01*
X0155097Y0125142D01*
Y0124311D01*
X0144000D01*
X0143793Y0124811D01*
X0151146Y0132164D01*
X0154797D01*
X0155004Y0131664D01*
X0152376Y0129035D01*
X0151931D01*
X0151316Y0128781D01*
X0150845Y0128310D01*
X0150591Y0127695D01*
Y0127029D01*
X0150845Y0126414D01*
X0151316Y0125944D01*
X0151931Y0125689D01*
X0152597D01*
X0153212Y0125944D01*
X0153682Y0126414D01*
X0153937Y0127029D01*
Y0127474D01*
X0156658Y0130195D01*
X0169095D01*
Y0126279D01*
X0170845D01*
Y0075457D01*
X0160348Y0064961D01*
X0158858D01*
Y0062008D01*
X0162008D01*
Y0063498D01*
X0172729Y0074219D01*
X0172969Y0074578D01*
X0173053Y0075000D01*
Y0126279D01*
X0174803D01*
Y0128248D01*
Y0132185D01*
Y0136122D01*
Y0140059D01*
Y0144488D01*
X0175984D01*
Y0146260D01*
X0176772D01*
Y0144488D01*
X0178248D01*
Y0144872D01*
X0178344D01*
X0179068Y0145172D01*
X0179622Y0145725D01*
X0179920Y0146447D01*
X0177953D01*
Y0147234D01*
X0179920D01*
X0179622Y0147956D01*
X0179386Y0148191D01*
X0179593Y0148691D01*
X0182644D01*
X0185699Y0145636D01*
Y0137583D01*
X0178985Y0130869D01*
X0178580Y0130701D01*
X0178109Y0130231D01*
X0177854Y0129616D01*
Y0128950D01*
X0178109Y0128335D01*
X0178580Y0127864D01*
X0179195Y0127610D01*
X0179860D01*
X0180475Y0127864D01*
X0180946Y0128335D01*
X0181114Y0128740D01*
X0188269Y0135896D01*
X0188595Y0136384D01*
X0188710Y0136960D01*
Y0146260D01*
X0188595Y0146836D01*
X0188269Y0147324D01*
X0188269Y0147324D01*
X0184332Y0151261D01*
X0183844Y0151588D01*
X0183268Y0151702D01*
X0176378D01*
X0176233Y0151673D01*
X0174803D01*
Y0150282D01*
X0174641Y0150120D01*
X0171949D01*
X0171842Y0150098D01*
X0169095D01*
Y0148425D01*
X0168799D01*
Y0147441D01*
X0171949D01*
Y0146653D01*
X0168799D01*
Y0145669D01*
X0169095D01*
Y0143996D01*
Y0140059D01*
Y0136340D01*
X0147823D01*
X0147401Y0136256D01*
X0147043Y0136017D01*
X0143612Y0132586D01*
X0143167D01*
X0142552Y0132332D01*
X0142082Y0131861D01*
X0141827Y0131246D01*
X0141339Y0131274D01*
Y0134153D01*
Y0138091D01*
Y0142027D01*
Y0145965D01*
Y0150098D01*
X0139588D01*
Y0158465D01*
X0139504Y0158887D01*
X0139265Y0159245D01*
X0138103Y0160407D01*
X0137745Y0160646D01*
X0137323Y0160730D01*
X0135879D01*
X0135861Y0160797D01*
X0135508Y0161408D01*
X0135010Y0161906D01*
X0134890Y0161975D01*
Y0162552D01*
X0135010Y0162621D01*
X0135508Y0163120D01*
X0135820Y0163660D01*
X0142362D01*
X0147223Y0158799D01*
Y0157776D01*
X0143307D01*
Y0152067D01*
X0149259D01*
X0149275Y0151983D01*
X0149515Y0151625D01*
X0149873Y0151386D01*
X0150295Y0151302D01*
X0150718Y0151386D01*
X0151076Y0151625D01*
X0151315Y0151983D01*
X0151332Y0152067D01*
X0167126D01*
Y0154815D01*
X0167147Y0154921D01*
Y0177264D01*
X0167063Y0177686D01*
X0166824Y0178044D01*
X0149357Y0195511D01*
Y0198892D01*
X0149857Y0199082D01*
X0150475Y0198464D01*
X0151395Y0197933D01*
X0152421Y0197658D01*
X0152559D01*
Y0201693D01*
Y0205728D01*
X0152421D01*
X0151395Y0205453D01*
X0150475Y0204922D01*
X0149857Y0204304D01*
X0149357Y0204493D01*
Y0206392D01*
X0149273Y0206815D01*
X0149034Y0207173D01*
X0146262Y0209945D01*
X0146438Y0210249D01*
X0146693Y0211200D01*
Y0212185D01*
X0146438Y0213137D01*
X0145946Y0213989D01*
X0145249Y0214686D01*
X0144396Y0215178D01*
X0143445Y0215433D01*
D02*
G37*
G36*
X0083445D02*
X0082460D01*
X0081509Y0215178D01*
X0080656Y0214686D01*
X0079960Y0213989D01*
X0079467Y0213137D01*
X0079213Y0212185D01*
Y0211200D01*
X0079467Y0210249D01*
X0079960Y0209396D01*
X0080656Y0208700D01*
X0081509Y0208208D01*
X0082460Y0207953D01*
X0083445D01*
X0084396Y0208208D01*
X0085249Y0208700D01*
X0085946Y0209396D01*
X0086438Y0210249D01*
X0086693Y0211200D01*
Y0212185D01*
X0086438Y0213137D01*
X0085946Y0213989D01*
X0085249Y0214686D01*
X0084396Y0215178D01*
X0083445Y0215433D01*
D02*
G37*
G36*
X0073445D02*
X0072460D01*
X0071509Y0215178D01*
X0070656Y0214686D01*
X0069960Y0213989D01*
X0069468Y0213137D01*
X0069213Y0212185D01*
Y0211200D01*
X0069468Y0210249D01*
X0069960Y0209396D01*
X0070656Y0208700D01*
X0071509Y0208208D01*
X0072460Y0207953D01*
X0073445D01*
X0074396Y0208208D01*
X0075249Y0208700D01*
X0075946Y0209396D01*
X0076438Y0210249D01*
X0076693Y0211200D01*
Y0212185D01*
X0076438Y0213137D01*
X0075946Y0213989D01*
X0075249Y0214686D01*
X0074396Y0215178D01*
X0073445Y0215433D01*
D02*
G37*
G36*
X0063445D02*
X0062460D01*
X0061509Y0215178D01*
X0060656Y0214686D01*
X0059960Y0213989D01*
X0059468Y0213137D01*
X0059213Y0212185D01*
Y0211200D01*
X0059468Y0210249D01*
X0059960Y0209396D01*
X0060656Y0208700D01*
X0061509Y0208208D01*
X0062460Y0207953D01*
X0063445D01*
X0064396Y0208208D01*
X0065249Y0208700D01*
X0065946Y0209396D01*
X0066438Y0210249D01*
X0066693Y0211200D01*
Y0212185D01*
X0066438Y0213137D01*
X0065946Y0213989D01*
X0065249Y0214686D01*
X0064396Y0215178D01*
X0063445Y0215433D01*
D02*
G37*
G36*
X0043445D02*
X0042460D01*
X0041509Y0215178D01*
X0040656Y0214686D01*
X0039960Y0213989D01*
X0039467Y0213137D01*
X0039213Y0212185D01*
Y0211200D01*
X0039467Y0210249D01*
X0039960Y0209396D01*
X0040656Y0208700D01*
X0041509Y0208208D01*
X0042460Y0207953D01*
X0043445D01*
X0044396Y0208208D01*
X0045249Y0208700D01*
X0045946Y0209396D01*
X0046438Y0210249D01*
X0046693Y0211200D01*
Y0212185D01*
X0046438Y0213137D01*
X0045946Y0213989D01*
X0045249Y0214686D01*
X0044396Y0215178D01*
X0043445Y0215433D01*
D02*
G37*
G36*
X0033445D02*
X0032460D01*
X0031509Y0215178D01*
X0030656Y0214686D01*
X0029960Y0213989D01*
X0029467Y0213137D01*
X0029213Y0212185D01*
Y0211200D01*
X0029467Y0210249D01*
X0029960Y0209396D01*
X0030656Y0208700D01*
X0031509Y0208208D01*
X0032460Y0207953D01*
X0033445D01*
X0034396Y0208208D01*
X0035249Y0208700D01*
X0035946Y0209396D01*
X0036438Y0210249D01*
X0036693Y0211200D01*
Y0212185D01*
X0036438Y0213137D01*
X0035946Y0213989D01*
X0035249Y0214686D01*
X0034396Y0215178D01*
X0033445Y0215433D01*
D02*
G37*
G36*
X0196988Y0211299D02*
X0193347D01*
Y0207658D01*
X0193484D01*
X0194510Y0207932D01*
X0195431Y0208464D01*
X0196182Y0209215D01*
X0196713Y0210135D01*
X0196988Y0211162D01*
Y0211299D01*
D02*
G37*
G36*
X0192559D02*
X0188917D01*
Y0211162D01*
X0189192Y0210135D01*
X0189724Y0209215D01*
X0190475Y0208464D01*
X0191395Y0207932D01*
X0192421Y0207658D01*
X0192559D01*
Y0211299D01*
D02*
G37*
G36*
X0176988D02*
X0173346D01*
Y0207658D01*
X0173484D01*
X0174510Y0207932D01*
X0175431Y0208464D01*
X0176182Y0209215D01*
X0176713Y0210135D01*
X0176988Y0211162D01*
Y0211299D01*
D02*
G37*
G36*
X0172559D02*
X0168917D01*
Y0211162D01*
X0169192Y0210135D01*
X0169724Y0209215D01*
X0170475Y0208464D01*
X0171395Y0207932D01*
X0172422Y0207658D01*
X0172559D01*
Y0211299D01*
D02*
G37*
G36*
X0126988D02*
X0123346D01*
Y0207658D01*
X0123484D01*
X0124510Y0207932D01*
X0125431Y0208464D01*
X0126182Y0209215D01*
X0126713Y0210135D01*
X0126988Y0211162D01*
Y0211299D01*
D02*
G37*
G36*
X0122559D02*
X0118917D01*
Y0211162D01*
X0119192Y0210135D01*
X0119724Y0209215D01*
X0120475Y0208464D01*
X0121395Y0207932D01*
X0122422Y0207658D01*
X0122559D01*
Y0211299D01*
D02*
G37*
G36*
X0096988D02*
X0093347D01*
Y0207658D01*
X0093484D01*
X0094510Y0207932D01*
X0095431Y0208464D01*
X0096182Y0209215D01*
X0096713Y0210135D01*
X0096988Y0211162D01*
Y0211299D01*
D02*
G37*
G36*
X0092559D02*
X0088917D01*
Y0211162D01*
X0089192Y0210135D01*
X0089724Y0209215D01*
X0090475Y0208464D01*
X0091395Y0207932D01*
X0092422Y0207658D01*
X0092559D01*
Y0211299D01*
D02*
G37*
G36*
X0056988D02*
X0053347D01*
Y0207658D01*
X0053484D01*
X0054510Y0207932D01*
X0055431Y0208464D01*
X0056182Y0209215D01*
X0056713Y0210135D01*
X0056988Y0211162D01*
Y0211299D01*
D02*
G37*
G36*
X0052559D02*
X0048917D01*
Y0211162D01*
X0049192Y0210135D01*
X0049724Y0209215D01*
X0050475Y0208464D01*
X0051395Y0207932D01*
X0052421Y0207658D01*
X0052559D01*
Y0211299D01*
D02*
G37*
G36*
X0073484Y0205728D02*
X0073347D01*
Y0202087D01*
X0076988D01*
Y0202224D01*
X0076713Y0203251D01*
X0076182Y0204171D01*
X0075431Y0204922D01*
X0074510Y0205453D01*
X0073484Y0205728D01*
D02*
G37*
G36*
X0223484D02*
X0223346D01*
Y0202087D01*
X0226988D01*
Y0202224D01*
X0226713Y0203251D01*
X0226182Y0204171D01*
X0225431Y0204922D01*
X0224510Y0205453D01*
X0223484Y0205728D01*
D02*
G37*
G36*
X0153484D02*
X0153347D01*
Y0202087D01*
X0156988D01*
Y0202224D01*
X0156713Y0203251D01*
X0156182Y0204171D01*
X0155431Y0204922D01*
X0154510Y0205453D01*
X0153484Y0205728D01*
D02*
G37*
G36*
X0072559D02*
X0072421D01*
X0071395Y0205453D01*
X0070475Y0204922D01*
X0069724Y0204171D01*
X0069192Y0203251D01*
X0068917Y0202224D01*
Y0202087D01*
X0072559D01*
Y0205728D01*
D02*
G37*
G36*
X0222559D02*
X0222422D01*
X0221395Y0205453D01*
X0220475Y0204922D01*
X0219724Y0204171D01*
X0219192Y0203251D01*
X0218917Y0202224D01*
Y0202087D01*
X0222559D01*
Y0205728D01*
D02*
G37*
G36*
X0242708Y0212598D02*
X0241544D01*
X0240403Y0212371D01*
X0239329Y0211926D01*
X0238361Y0211280D01*
X0237539Y0210457D01*
X0236893Y0209490D01*
X0236447Y0208416D01*
X0236221Y0207275D01*
Y0206111D01*
X0236447Y0204970D01*
X0236893Y0203896D01*
X0237539Y0202928D01*
X0238361Y0202106D01*
X0239329Y0201460D01*
X0240403Y0201014D01*
X0241544Y0200787D01*
X0242708D01*
X0243848Y0201014D01*
X0244923Y0201460D01*
X0245890Y0202106D01*
X0246713Y0202928D01*
X0247359Y0203896D01*
X0247804Y0204970D01*
X0248031Y0206111D01*
Y0207275D01*
X0247804Y0208416D01*
X0247359Y0209490D01*
X0246713Y0210457D01*
X0245890Y0211280D01*
X0244923Y0211926D01*
X0243848Y0212371D01*
X0242708Y0212598D01*
D02*
G37*
G36*
X0014361D02*
X0013198D01*
X0012057Y0212371D01*
X0010982Y0211926D01*
X0010015Y0211280D01*
X0009192Y0210457D01*
X0008546Y0209490D01*
X0008101Y0208416D01*
X0007874Y0207275D01*
Y0206111D01*
X0008101Y0204970D01*
X0008546Y0203896D01*
X0009192Y0202928D01*
X0010015Y0202106D01*
X0010982Y0201460D01*
X0012057Y0201014D01*
X0013198Y0200787D01*
X0014361D01*
X0015502Y0201014D01*
X0016577Y0201460D01*
X0017544Y0202106D01*
X0018367Y0202928D01*
X0019013Y0203896D01*
X0019458Y0204970D01*
X0019685Y0206111D01*
Y0207275D01*
X0019458Y0208416D01*
X0019013Y0209490D01*
X0018367Y0210457D01*
X0017544Y0211280D01*
X0016577Y0211926D01*
X0015502Y0212371D01*
X0014361Y0212598D01*
D02*
G37*
G36*
X0213445Y0205433D02*
X0212460D01*
X0211509Y0205178D01*
X0210656Y0204686D01*
X0209960Y0203989D01*
X0209468Y0203137D01*
X0209213Y0202185D01*
Y0201201D01*
X0209468Y0200249D01*
X0209960Y0199396D01*
X0210656Y0198700D01*
X0211509Y0198208D01*
X0212460Y0197953D01*
X0213445D01*
X0214396Y0198208D01*
X0215249Y0198700D01*
X0215946Y0199396D01*
X0216438Y0200249D01*
X0216693Y0201201D01*
Y0202185D01*
X0216438Y0203137D01*
X0215946Y0203989D01*
X0215249Y0204686D01*
X0214396Y0205178D01*
X0213445Y0205433D01*
D02*
G37*
G36*
X0203445D02*
X0202460D01*
X0201509Y0205178D01*
X0200656Y0204686D01*
X0199960Y0203989D01*
X0199468Y0203137D01*
X0199213Y0202185D01*
Y0201201D01*
X0199468Y0200249D01*
X0199960Y0199396D01*
X0200656Y0198700D01*
X0201509Y0198208D01*
X0202460Y0197953D01*
X0203445D01*
X0204396Y0198208D01*
X0205249Y0198700D01*
X0205946Y0199396D01*
X0206438Y0200249D01*
X0206693Y0201201D01*
Y0202185D01*
X0206438Y0203137D01*
X0205946Y0203989D01*
X0205249Y0204686D01*
X0204396Y0205178D01*
X0203445Y0205433D01*
D02*
G37*
G36*
X0193445D02*
X0192460D01*
X0191509Y0205178D01*
X0190656Y0204686D01*
X0189960Y0203989D01*
X0189468Y0203137D01*
X0189213Y0202185D01*
Y0201201D01*
X0189468Y0200249D01*
X0189960Y0199396D01*
X0190656Y0198700D01*
X0191509Y0198208D01*
X0192460Y0197953D01*
X0193445D01*
X0194396Y0198208D01*
X0195249Y0198700D01*
X0195946Y0199396D01*
X0196438Y0200249D01*
X0196693Y0201201D01*
Y0202185D01*
X0196438Y0203137D01*
X0195946Y0203989D01*
X0195249Y0204686D01*
X0194396Y0205178D01*
X0193445Y0205433D01*
D02*
G37*
G36*
X0183445D02*
X0182460D01*
X0181509Y0205178D01*
X0180656Y0204686D01*
X0179960Y0203989D01*
X0179467Y0203137D01*
X0179213Y0202185D01*
Y0201201D01*
X0179467Y0200249D01*
X0179960Y0199396D01*
X0180656Y0198700D01*
X0181509Y0198208D01*
X0182460Y0197953D01*
X0183445D01*
X0184396Y0198208D01*
X0185249Y0198700D01*
X0185946Y0199396D01*
X0186438Y0200249D01*
X0186693Y0201201D01*
Y0202185D01*
X0186438Y0203137D01*
X0185946Y0203989D01*
X0185249Y0204686D01*
X0184396Y0205178D01*
X0183445Y0205433D01*
D02*
G37*
G36*
X0163445D02*
X0162460D01*
X0161509Y0205178D01*
X0160656Y0204686D01*
X0159960Y0203989D01*
X0159467Y0203137D01*
X0159213Y0202185D01*
Y0201201D01*
X0159467Y0200249D01*
X0159960Y0199396D01*
X0160656Y0198700D01*
X0161509Y0198208D01*
X0162460Y0197953D01*
X0163445D01*
X0164396Y0198208D01*
X0165249Y0198700D01*
X0165946Y0199396D01*
X0166438Y0200249D01*
X0166693Y0201201D01*
Y0202185D01*
X0166438Y0203137D01*
X0165946Y0203989D01*
X0165249Y0204686D01*
X0164396Y0205178D01*
X0163445Y0205433D01*
D02*
G37*
G36*
X0113445D02*
X0112460D01*
X0111509Y0205178D01*
X0110656Y0204686D01*
X0109960Y0203989D01*
X0109467Y0203137D01*
X0109213Y0202185D01*
Y0201201D01*
X0109467Y0200249D01*
X0109960Y0199396D01*
X0110656Y0198700D01*
X0111509Y0198208D01*
X0112460Y0197953D01*
X0113445D01*
X0114396Y0198208D01*
X0115249Y0198700D01*
X0115946Y0199396D01*
X0116438Y0200249D01*
X0116693Y0201201D01*
Y0202185D01*
X0116438Y0203137D01*
X0115946Y0203989D01*
X0115249Y0204686D01*
X0114396Y0205178D01*
X0113445Y0205433D01*
D02*
G37*
G36*
X0226988Y0201299D02*
X0223346D01*
Y0197658D01*
X0223484D01*
X0224510Y0197933D01*
X0225431Y0198464D01*
X0226182Y0199215D01*
X0226713Y0200135D01*
X0226988Y0201162D01*
Y0201299D01*
D02*
G37*
G36*
X0222559D02*
X0218917D01*
Y0201162D01*
X0219192Y0200135D01*
X0219724Y0199215D01*
X0220475Y0198464D01*
X0221395Y0197933D01*
X0222422Y0197658D01*
X0222559D01*
Y0201299D01*
D02*
G37*
G36*
X0156988D02*
X0153347D01*
Y0197658D01*
X0153484D01*
X0154510Y0197933D01*
X0155431Y0198464D01*
X0156182Y0199215D01*
X0156713Y0200135D01*
X0156988Y0201162D01*
Y0201299D01*
D02*
G37*
G36*
X0076988D02*
X0073347D01*
Y0197658D01*
X0073484D01*
X0074510Y0197933D01*
X0075431Y0198464D01*
X0076182Y0199215D01*
X0076713Y0200135D01*
X0076988Y0201162D01*
Y0201299D01*
D02*
G37*
G36*
X0072559D02*
X0068917D01*
Y0201162D01*
X0069192Y0200135D01*
X0069724Y0199215D01*
X0070475Y0198464D01*
X0071395Y0197933D01*
X0072421Y0197658D01*
X0072559D01*
Y0201299D01*
D02*
G37*
G36*
X0173445Y0205433D02*
X0172460D01*
X0171509Y0205178D01*
X0170656Y0204686D01*
X0169960Y0203989D01*
X0169467Y0203137D01*
X0169213Y0202185D01*
Y0201201D01*
X0169467Y0200249D01*
X0169960Y0199396D01*
X0170656Y0198700D01*
X0171509Y0198208D01*
X0171859Y0198114D01*
Y0192303D01*
X0170886D01*
Y0188169D01*
X0175020D01*
Y0192303D01*
X0174066D01*
Y0198119D01*
X0174396Y0198208D01*
X0175249Y0198700D01*
X0175946Y0199396D01*
X0176438Y0200249D01*
X0176693Y0201201D01*
Y0202185D01*
X0176438Y0203137D01*
X0175946Y0203989D01*
X0175249Y0204686D01*
X0174396Y0205178D01*
X0173445Y0205433D01*
D02*
G37*
G36*
X0175020Y0185807D02*
X0170886D01*
Y0181673D01*
X0171390D01*
X0171457Y0181201D01*
X0171457D01*
Y0178248D01*
X0174606D01*
Y0181201D01*
X0174606D01*
X0174673Y0181673D01*
X0175020D01*
Y0185807D01*
D02*
G37*
G36*
X0174902Y0177559D02*
X0173425D01*
Y0176181D01*
X0174902D01*
Y0177559D01*
D02*
G37*
G36*
X0172638D02*
X0171161D01*
Y0176181D01*
X0172638D01*
Y0177559D01*
D02*
G37*
G36*
X0174902Y0175394D02*
X0173031D01*
X0171161D01*
Y0174356D01*
X0171151Y0174330D01*
X0175086D01*
X0174902Y0174775D01*
Y0175394D01*
D02*
G37*
G36*
X0175086Y0173543D02*
X0173512D01*
Y0171969D01*
X0174233Y0172268D01*
X0174787Y0172821D01*
X0175086Y0173543D01*
D02*
G37*
G36*
X0172724D02*
X0171151D01*
X0171449Y0172821D01*
X0172003Y0172268D01*
X0172724Y0171969D01*
Y0173543D01*
D02*
G37*
G36*
X0168110Y0102362D02*
X0163976D01*
Y0098228D01*
X0164469D01*
Y0095571D01*
X0167618D01*
Y0098228D01*
X0168110D01*
Y0102362D01*
D02*
G37*
G36*
X0162500D02*
X0158366D01*
Y0098228D01*
X0158957D01*
Y0095571D01*
X0162106D01*
Y0098228D01*
X0162500D01*
Y0102362D01*
D02*
G37*
G36*
X0167913Y0094882D02*
X0166437D01*
Y0093504D01*
X0167913D01*
Y0094882D01*
D02*
G37*
G36*
X0162402D02*
X0160925D01*
Y0093504D01*
X0162402D01*
Y0094882D01*
D02*
G37*
G36*
X0160138D02*
X0158661D01*
Y0093504D01*
X0160138D01*
Y0094882D01*
D02*
G37*
G36*
X0165650D02*
X0164173D01*
Y0093504D01*
X0165650D01*
Y0094882D01*
D02*
G37*
G36*
X0037109Y0096571D02*
X0037008D01*
Y0093209D01*
X0040370D01*
Y0093309D01*
X0040114Y0094265D01*
X0039620Y0095121D01*
X0038920Y0095820D01*
X0038064Y0096315D01*
X0037109Y0096571D01*
D02*
G37*
G36*
X0036220D02*
X0036120D01*
X0035164Y0096315D01*
X0034308Y0095820D01*
X0033609Y0095121D01*
X0033114Y0094265D01*
X0032858Y0093309D01*
Y0093209D01*
X0036220D01*
Y0096571D01*
D02*
G37*
G36*
X0167913Y0092716D02*
X0166043D01*
X0164173D01*
Y0092536D01*
X0164004Y0092126D01*
X0167939D01*
X0167913Y0092187D01*
Y0092716D01*
D02*
G37*
G36*
X0162402D02*
X0160531D01*
X0158661D01*
Y0092536D01*
X0158492Y0092126D01*
X0162427D01*
X0162402Y0092187D01*
Y0092716D01*
D02*
G37*
G36*
X0167939Y0091339D02*
X0166365D01*
Y0089765D01*
X0167086Y0090064D01*
X0167640Y0090617D01*
X0167939Y0091339D01*
D02*
G37*
G36*
X0165577D02*
X0164004D01*
X0164302Y0090617D01*
X0164856Y0090064D01*
X0165577Y0089765D01*
Y0091339D01*
D02*
G37*
G36*
X0162427D02*
X0160853D01*
Y0089765D01*
X0161574Y0090064D01*
X0162128Y0090617D01*
X0162427Y0091339D01*
D02*
G37*
G36*
X0160066D02*
X0158492D01*
X0158791Y0090617D01*
X0159344Y0090064D01*
X0160066Y0089765D01*
Y0091339D01*
D02*
G37*
G36*
X0040370Y0092421D02*
X0037008D01*
Y0089059D01*
X0037109D01*
X0038064Y0089315D01*
X0038920Y0089810D01*
X0039620Y0090509D01*
X0040114Y0091365D01*
X0040370Y0092321D01*
Y0092421D01*
D02*
G37*
G36*
X0036220D02*
X0032858D01*
Y0092321D01*
X0033114Y0091365D01*
X0033609Y0090509D01*
X0034308Y0089810D01*
X0035164Y0089315D01*
X0036120Y0089059D01*
X0036220D01*
Y0092421D01*
D02*
G37*
G36*
X0234519Y0051653D02*
X0233197D01*
X0231921Y0051311D01*
X0230776Y0050651D01*
X0229841Y0049716D01*
X0229181Y0048571D01*
X0228839Y0047295D01*
Y0045973D01*
X0229181Y0044696D01*
X0229841Y0043552D01*
X0230776Y0042617D01*
X0231921Y0041956D01*
X0233197Y0041614D01*
X0234519D01*
X0235796Y0041956D01*
X0236940Y0042617D01*
X0237875Y0043552D01*
X0238536Y0044696D01*
X0238878Y0045973D01*
Y0047295D01*
X0238536Y0048571D01*
X0237875Y0049716D01*
X0236940Y0050651D01*
X0235796Y0051311D01*
X0234519Y0051653D01*
D02*
G37*
G36*
X0022708D02*
X0021386D01*
X0020110Y0051311D01*
X0018965Y0050651D01*
X0018031Y0049716D01*
X0017370Y0048571D01*
X0017028Y0047295D01*
Y0045973D01*
X0017370Y0044696D01*
X0018031Y0043552D01*
X0018965Y0042617D01*
X0020110Y0041956D01*
X0021386Y0041614D01*
X0022708D01*
X0023985Y0041956D01*
X0025129Y0042617D01*
X0026064Y0043552D01*
X0026725Y0044696D01*
X0027067Y0045973D01*
Y0047295D01*
X0026725Y0048571D01*
X0026064Y0049716D01*
X0025129Y0050651D01*
X0023985Y0051311D01*
X0022708Y0051653D01*
D02*
G37*
G36*
X0030059Y0037815D02*
X0027697D01*
Y0032500D01*
X0030059D01*
Y0037815D01*
D02*
G37*
G36*
X0045059D02*
X0040846D01*
Y0032106D01*
X0040059D01*
Y0037815D01*
X0035846D01*
Y0032106D01*
Y0026398D01*
X0038412D01*
Y0026085D01*
X0038712Y0025361D01*
X0039265Y0024808D01*
X0039987Y0024509D01*
Y0026476D01*
X0040774D01*
Y0024509D01*
X0041496Y0024808D01*
X0042049Y0025361D01*
X0042349Y0026085D01*
Y0026398D01*
X0045059D01*
Y0032106D01*
Y0037815D01*
D02*
G37*
G36*
X0055059D02*
X0050846D01*
Y0032106D01*
Y0026398D01*
X0055059D01*
Y0032106D01*
Y0037815D01*
D02*
G37*
G36*
X0050059D02*
X0045847D01*
Y0032106D01*
Y0026398D01*
X0050059D01*
Y0032106D01*
Y0037815D01*
D02*
G37*
G36*
X0035059D02*
X0030847D01*
Y0032106D01*
X0030453D01*
Y0031713D01*
X0027697D01*
Y0026398D01*
X0028373D01*
Y0026085D01*
X0028672Y0025361D01*
X0029226Y0024808D01*
X0029948Y0024509D01*
Y0026476D01*
X0030735D01*
Y0024509D01*
X0031456Y0024808D01*
X0032010Y0025361D01*
X0032310Y0026085D01*
Y0026398D01*
X0035059D01*
Y0032106D01*
Y0037815D01*
D02*
G37*
G36*
X0242708Y0019685D02*
X0241544D01*
X0240403Y0019458D01*
X0239329Y0019013D01*
X0238361Y0018367D01*
X0237539Y0017544D01*
X0236893Y0016577D01*
X0236447Y0015502D01*
X0236221Y0014361D01*
Y0013198D01*
X0236447Y0012057D01*
X0236893Y0010982D01*
X0237539Y0010015D01*
X0238361Y0009192D01*
X0239329Y0008546D01*
X0240403Y0008101D01*
X0241544Y0007874D01*
X0242708D01*
X0243848Y0008101D01*
X0244923Y0008546D01*
X0245890Y0009192D01*
X0246713Y0010015D01*
X0247359Y0010982D01*
X0247804Y0012057D01*
X0248031Y0013198D01*
Y0014361D01*
X0247804Y0015502D01*
X0247359Y0016577D01*
X0246713Y0017544D01*
X0245890Y0018367D01*
X0244923Y0019013D01*
X0243848Y0019458D01*
X0242708Y0019685D01*
D02*
G37*
G36*
X0014361D02*
X0013198D01*
X0012057Y0019458D01*
X0010982Y0019013D01*
X0010015Y0018367D01*
X0009192Y0017544D01*
X0008546Y0016577D01*
X0008101Y0015502D01*
X0007874Y0014361D01*
Y0013198D01*
X0008101Y0012057D01*
X0008546Y0010982D01*
X0009192Y0010015D01*
X0010015Y0009192D01*
X0010982Y0008546D01*
X0012057Y0008101D01*
X0013198Y0007874D01*
X0014361D01*
X0015502Y0008101D01*
X0016577Y0008546D01*
X0017544Y0009192D01*
X0018367Y0010015D01*
X0019013Y0010982D01*
X0019458Y0012057D01*
X0019685Y0013198D01*
Y0014361D01*
X0019458Y0015502D01*
X0019013Y0016577D01*
X0018367Y0017544D01*
X0017544Y0018367D01*
X0016577Y0019013D01*
X0015502Y0019458D01*
X0014361Y0019685D01*
D02*
G37*
%LPD*%
G36*
X0097026Y0200512D02*
Y0198587D01*
X0075401Y0176962D01*
X0075161Y0176603D01*
X0075077Y0176181D01*
Y0131725D01*
X0056956Y0113604D01*
X0049409D01*
Y0113976D01*
X0046260D01*
Y0113604D01*
X0039901D01*
X0039839Y0113836D01*
X0039383Y0114625D01*
X0038739Y0115269D01*
X0038485Y0115416D01*
X0038619Y0115916D01*
X0040748D01*
X0041324Y0116031D01*
X0041812Y0116357D01*
X0043329Y0117874D01*
X0046260D01*
Y0114961D01*
X0047689D01*
X0047835Y0114932D01*
X0047850D01*
X0047995Y0114961D01*
X0049409D01*
Y0117903D01*
X0049425D01*
Y0120855D01*
X0047995D01*
X0047850Y0120884D01*
X0047376D01*
X0047357Y0120931D01*
X0047293Y0121384D01*
X0047559Y0121562D01*
X0047836Y0121839D01*
X0049425D01*
Y0122212D01*
X0057414D01*
X0057836Y0122296D01*
X0058194Y0122535D01*
X0071253Y0135594D01*
X0071492Y0135952D01*
X0071576Y0136375D01*
X0071576Y0136375D01*
Y0178755D01*
X0091205Y0198383D01*
X0091509Y0198208D01*
X0092460Y0197953D01*
X0093445D01*
X0094396Y0198208D01*
X0095249Y0198700D01*
X0095946Y0199396D01*
X0096438Y0200249D01*
X0096526Y0200578D01*
X0097026Y0200512D01*
D02*
G37*
G36*
X0141099Y0172502D02*
X0140780Y0172113D01*
X0140678Y0172181D01*
X0140256Y0172265D01*
X0101279D01*
X0100857Y0172181D01*
X0100499Y0171942D01*
X0099121Y0170564D01*
X0098882Y0170206D01*
X0098798Y0169783D01*
Y0166358D01*
X0098566Y0166296D01*
X0097777Y0165840D01*
X0097132Y0165196D01*
X0096677Y0164407D01*
X0096441Y0163526D01*
Y0162615D01*
X0096677Y0161735D01*
X0097132Y0160946D01*
X0097777Y0160302D01*
X0098181Y0160069D01*
X0098047Y0159569D01*
X0091756D01*
X0091623Y0160069D01*
X0092026Y0160302D01*
X0092671Y0160946D01*
X0093126Y0161735D01*
X0093362Y0162615D01*
Y0163526D01*
X0093126Y0164407D01*
X0092671Y0165196D01*
X0092026Y0165840D01*
X0091237Y0166296D01*
X0091005Y0166358D01*
Y0169759D01*
X0101245Y0179999D01*
X0133602D01*
X0141099Y0172502D01*
D02*
G37*
G36*
X0147150Y0200973D02*
Y0195054D01*
X0147233Y0194631D01*
X0147473Y0194273D01*
X0164939Y0176806D01*
Y0171581D01*
X0164439Y0171374D01*
X0144057Y0191756D01*
Y0198117D01*
X0144396Y0198208D01*
X0145249Y0198700D01*
X0145946Y0199396D01*
X0146438Y0200249D01*
X0146650Y0201038D01*
X0147150Y0200973D01*
D02*
G37*
G36*
X0148812Y0161044D02*
X0148811Y0161040D01*
X0148269Y0160875D01*
X0143600Y0165544D01*
X0143242Y0165784D01*
X0142819Y0165868D01*
X0135820D01*
X0135508Y0166408D01*
X0135010Y0166906D01*
X0134399Y0167259D01*
X0133719Y0167441D01*
X0133014D01*
X0132333Y0167259D01*
X0131722Y0166906D01*
X0131224Y0166408D01*
X0130871Y0165797D01*
X0130689Y0165116D01*
Y0164411D01*
X0130871Y0163730D01*
X0131224Y0163120D01*
X0131722Y0162621D01*
X0131842Y0162552D01*
Y0161975D01*
X0131722Y0161906D01*
X0131224Y0161408D01*
X0130871Y0160797D01*
X0130689Y0160116D01*
Y0159411D01*
X0130871Y0158730D01*
X0131224Y0158120D01*
X0131722Y0157622D01*
X0132333Y0157269D01*
X0133014Y0157087D01*
X0133719D01*
X0134399Y0157269D01*
X0135010Y0157622D01*
X0135508Y0158120D01*
X0135741Y0158522D01*
X0136866D01*
X0137380Y0158007D01*
Y0150098D01*
X0135630D01*
Y0147933D01*
Y0143996D01*
Y0140277D01*
X0126540D01*
X0123812Y0143005D01*
X0123454Y0143244D01*
X0123031Y0143328D01*
X0106264D01*
X0101005Y0148587D01*
Y0149784D01*
X0101237Y0149846D01*
X0102026Y0150302D01*
X0102671Y0150946D01*
X0103126Y0151735D01*
X0103362Y0152615D01*
Y0153526D01*
X0103126Y0154407D01*
X0102671Y0155196D01*
X0102026Y0155840D01*
X0101237Y0156296D01*
X0100357Y0156532D01*
X0099446D01*
X0098566Y0156296D01*
X0097777Y0155840D01*
X0097132Y0155196D01*
X0096677Y0154407D01*
X0096441Y0153526D01*
Y0152615D01*
X0096677Y0151735D01*
X0097132Y0150946D01*
X0097777Y0150302D01*
X0098566Y0149846D01*
X0098798Y0149784D01*
Y0148130D01*
X0098882Y0147707D01*
X0099121Y0147349D01*
X0105026Y0141444D01*
X0105385Y0141205D01*
X0105807Y0141121D01*
X0122574D01*
X0124629Y0139066D01*
X0124438Y0138604D01*
X0095083D01*
X0091005Y0142682D01*
Y0149784D01*
X0091237Y0149846D01*
X0092026Y0150302D01*
X0092671Y0150946D01*
X0093126Y0151735D01*
X0093362Y0152615D01*
Y0153526D01*
X0093126Y0154407D01*
X0092671Y0155196D01*
X0092026Y0155840D01*
X0091237Y0156296D01*
X0090357Y0156532D01*
X0089446D01*
X0088566Y0156296D01*
X0087777Y0155840D01*
X0087132Y0155196D01*
X0086677Y0154407D01*
X0086441Y0153526D01*
Y0152615D01*
X0086677Y0151735D01*
X0087132Y0150946D01*
X0087777Y0150302D01*
X0088566Y0149846D01*
X0088798Y0149784D01*
Y0142224D01*
X0088882Y0141802D01*
X0089121Y0141444D01*
X0093845Y0136719D01*
X0094204Y0136480D01*
X0094626Y0136396D01*
X0126746D01*
X0127080Y0135896D01*
X0126969Y0135630D01*
X0128937D01*
Y0135236D01*
X0129331D01*
Y0133269D01*
X0129566Y0133366D01*
X0129921D01*
Y0135236D01*
X0130315D01*
Y0135630D01*
X0132087D01*
Y0136396D01*
X0132776D01*
Y0133661D01*
X0135630D01*
Y0132185D01*
X0134350D01*
Y0130413D01*
X0133563D01*
Y0132185D01*
X0132087D01*
Y0132033D01*
X0131544Y0131808D01*
X0130990Y0131255D01*
X0130691Y0130533D01*
X0132659D01*
Y0129746D01*
X0130691D01*
X0130990Y0129024D01*
X0131423Y0128592D01*
X0131036Y0128205D01*
X0130781Y0127590D01*
Y0126924D01*
X0131036Y0126309D01*
X0131507Y0125838D01*
X0132122Y0125584D01*
X0132382D01*
Y0125000D01*
X0135531D01*
Y0126258D01*
X0136768D01*
X0136975Y0125758D01*
X0136770Y0125554D01*
X0136516Y0124939D01*
Y0124494D01*
X0104672Y0092651D01*
X0104433Y0092292D01*
X0104349Y0091870D01*
Y0037873D01*
X0103995Y0037520D01*
X0102992Y0037520D01*
X0102492Y0037520D01*
X0101557D01*
Y0063071D01*
X0101473Y0063493D01*
X0101233Y0063851D01*
X0085750Y0079335D01*
Y0155940D01*
X0087170Y0157361D01*
X0116570D01*
X0119948Y0153983D01*
X0120306Y0153744D01*
X0120728Y0153660D01*
X0124699D01*
X0125011Y0153120D01*
X0125510Y0152621D01*
X0126120Y0152269D01*
X0126801Y0152087D01*
X0127506D01*
X0128187Y0152269D01*
X0128797Y0152621D01*
X0129296Y0153120D01*
X0129648Y0153730D01*
X0129831Y0154411D01*
Y0155116D01*
X0129648Y0155797D01*
X0129296Y0156408D01*
X0128926Y0156777D01*
X0128924Y0157354D01*
X0128979Y0157385D01*
X0129532Y0157939D01*
X0129923Y0158616D01*
X0130125Y0159370D01*
X0124182D01*
X0124384Y0158616D01*
X0124775Y0157939D01*
X0125328Y0157385D01*
X0125383Y0157354D01*
X0125381Y0156777D01*
X0125011Y0156408D01*
X0124699Y0155868D01*
X0121186D01*
X0117808Y0159245D01*
X0117450Y0159484D01*
X0117028Y0159569D01*
X0113845D01*
X0113362Y0159610D01*
Y0163259D01*
X0124476D01*
Y0162087D01*
X0124619D01*
X0124811Y0161625D01*
X0124775Y0161589D01*
X0124384Y0160911D01*
X0124182Y0160158D01*
X0130125D01*
X0129923Y0160911D01*
X0129532Y0161589D01*
X0129496Y0161625D01*
X0129688Y0162087D01*
X0129831D01*
Y0167441D01*
X0124476D01*
Y0166269D01*
X0113362D01*
Y0166532D01*
X0106441D01*
Y0159610D01*
X0105958Y0159569D01*
X0101757D01*
X0101622Y0160069D01*
X0102026Y0160302D01*
X0102671Y0160946D01*
X0103126Y0161735D01*
X0103362Y0162615D01*
Y0163526D01*
X0103126Y0164407D01*
X0102671Y0165196D01*
X0102026Y0165840D01*
X0101237Y0166296D01*
X0101005Y0166358D01*
Y0169326D01*
X0101737Y0170057D01*
X0139799D01*
X0148812Y0161044D01*
D02*
G37*
G36*
X0150536Y0118140D02*
X0128845Y0096450D01*
X0128606Y0096092D01*
X0128522Y0095669D01*
Y0042207D01*
X0128208Y0041893D01*
X0127953Y0041278D01*
Y0040612D01*
X0128208Y0039997D01*
X0128678Y0039526D01*
X0129293Y0039272D01*
X0129959D01*
X0130574Y0039526D01*
X0131044Y0039997D01*
X0131299Y0040612D01*
Y0041278D01*
X0131044Y0041893D01*
X0130730Y0042207D01*
Y0095212D01*
X0136444Y0100926D01*
X0136630Y0100837D01*
X0136857Y0100632D01*
X0136790Y0100295D01*
Y0054724D01*
X0136874Y0054302D01*
X0137113Y0053944D01*
X0144349Y0046708D01*
Y0037873D01*
X0143995Y0037520D01*
X0142992Y0037520D01*
X0142492Y0037520D01*
X0138413D01*
X0137992Y0037520D01*
X0137492Y0037520D01*
X0133413D01*
X0132992Y0037520D01*
X0132492Y0037520D01*
X0128413D01*
X0127992Y0037520D01*
X0127492Y0037520D01*
X0123413D01*
X0122992Y0037520D01*
X0122492Y0037520D01*
X0118413D01*
X0117992Y0037520D01*
X0117492Y0037520D01*
X0116557D01*
Y0087043D01*
X0145065Y0115551D01*
X0145707D01*
X0146322Y0115806D01*
X0146792Y0116277D01*
X0147047Y0116892D01*
Y0117557D01*
X0146821Y0118102D01*
X0147016Y0118602D01*
X0150345D01*
X0150536Y0118140D01*
D02*
G37*
G36*
X0141146Y0121456D02*
Y0120953D01*
X0141401Y0120338D01*
X0141871Y0119868D01*
X0142486Y0119613D01*
X0143152D01*
X0143307Y0119509D01*
Y0118602D01*
X0143732D01*
X0143927Y0118102D01*
X0143701Y0117557D01*
Y0117309D01*
X0114672Y0088281D01*
X0114433Y0087922D01*
X0114349Y0087500D01*
Y0037873D01*
X0113995Y0037520D01*
X0112992Y0037520D01*
X0112492Y0037520D01*
X0111557D01*
Y0092574D01*
X0140677Y0121695D01*
X0141146Y0121456D01*
D02*
G37*
G36*
X0137708Y0122555D02*
X0137873Y0122013D01*
X0109672Y0093812D01*
X0109433Y0093454D01*
X0109349Y0093032D01*
Y0037520D01*
X0107992D01*
Y0037520D01*
X0107913D01*
Y0037520D01*
X0106557D01*
Y0091413D01*
X0137701Y0122557D01*
X0137708Y0122555D01*
D02*
G37*
%LPC*%
G36*
X0110396Y0156827D02*
X0110295D01*
Y0153465D01*
X0113657D01*
Y0153565D01*
X0113401Y0154521D01*
X0112907Y0155377D01*
X0112208Y0156076D01*
X0111351Y0156571D01*
X0110396Y0156827D01*
D02*
G37*
G36*
X0109508D02*
X0109407D01*
X0108452Y0156571D01*
X0107595Y0156076D01*
X0106896Y0155377D01*
X0106402Y0154521D01*
X0106146Y0153565D01*
Y0153465D01*
X0109508D01*
Y0156827D01*
D02*
G37*
G36*
X0113657Y0152677D02*
X0110295D01*
Y0149315D01*
X0110396D01*
X0111351Y0149571D01*
X0112208Y0150065D01*
X0112907Y0150765D01*
X0113401Y0151621D01*
X0113657Y0152576D01*
Y0152677D01*
D02*
G37*
G36*
X0109508D02*
X0106146D01*
Y0152576D01*
X0106402Y0151621D01*
X0106896Y0150765D01*
X0107595Y0150065D01*
X0108452Y0149571D01*
X0109407Y0149315D01*
X0109508D01*
Y0152677D01*
D02*
G37*
G36*
X0132087Y0134843D02*
X0130709D01*
Y0133366D01*
X0132087D01*
Y0134843D01*
D02*
G37*
G36*
X0128543Y0134843D02*
X0126969D01*
X0127268Y0134121D01*
X0127822Y0133567D01*
X0128543Y0133269D01*
Y0134843D01*
D02*
G37*
%LPD*%
D10*
X0172892Y0174162D02*
Y0175156D01*
X0160138Y0117700D02*
X0160669Y0117169D01*
X0133820Y0130276D02*
X0133957Y0130413D01*
X0132659Y0130140D02*
X0132796Y0130276D01*
X0133820D01*
X0133563Y0126870D02*
X0133957Y0126476D01*
X0132774Y0127257D02*
X0133161Y0126870D01*
X0133563D01*
X0132455Y0127257D02*
X0132774D01*
X0128937Y0135236D02*
X0130315D01*
X0100453Y0032106D02*
Y0063071D01*
X0084646Y0078878D02*
Y0156398D01*
Y0078878D02*
X0100453Y0063071D01*
X0176378Y0146260D02*
X0176733Y0146615D01*
X0177727D01*
X0177953Y0146841D01*
X0040453Y0026476D02*
Y0027854D01*
X0030413Y0026476D02*
Y0027854D01*
X0160531Y0091732D02*
Y0093110D01*
X0166043Y0091732D02*
Y0093110D01*
X0115453Y0032106D02*
Y0087500D01*
X0110453Y0032106D02*
Y0093032D01*
X0150689Y0133268D01*
X0129626Y0040945D02*
Y0095669D01*
X0152264Y0118307D01*
Y0121457D01*
X0105453Y0091870D02*
X0138189Y0124606D01*
X0105453Y0032106D02*
Y0091870D01*
X0142819Y0121358D02*
X0144390D01*
X0145177Y0117224D02*
X0145374D01*
X0115453Y0087500D02*
X0145177Y0117224D01*
X0160236Y0115459D02*
Y0117126D01*
X0160335Y0117224D01*
X0160138Y0115360D02*
X0160236Y0115459D01*
X0156380Y0117207D02*
X0156398Y0117224D01*
X0156380Y0115553D02*
Y0117207D01*
X0156363Y0115536D02*
X0156380Y0115553D01*
X0137894Y0100295D02*
X0154232Y0116634D01*
Y0121457D01*
X0144390Y0121358D02*
Y0121457D01*
X0137894Y0054724D02*
Y0100295D01*
Y0054724D02*
X0145453Y0047165D01*
Y0032106D02*
Y0047165D01*
X0156201Y0131299D02*
X0171949D01*
X0152264Y0127362D02*
X0156201Y0131299D01*
X0080118Y0171910D02*
X0102953Y0194745D01*
X0047638Y0102756D02*
X0059055D01*
X0080118Y0123819D02*
Y0171910D01*
X0059055Y0102756D02*
X0080118Y0123819D01*
X0120728Y0154764D02*
X0127154D01*
X0117028Y0158465D02*
X0120728Y0154764D01*
X0086713Y0158465D02*
X0117028D01*
X0084646Y0156398D02*
X0086713Y0158465D01*
X0089902Y0142224D02*
X0094626Y0137500D01*
X0089902Y0142224D02*
Y0153071D01*
X0094626Y0137500D02*
X0135586D01*
X0147823Y0135236D02*
X0171949D01*
X0143500Y0130913D02*
X0147823Y0135236D01*
X0122953Y0201693D02*
X0123530Y0201116D01*
Y0197533D02*
Y0201116D01*
X0160138Y0154921D02*
Y0160925D01*
X0123530Y0197533D02*
X0160138Y0160925D01*
X0132953Y0194114D02*
Y0201693D01*
Y0194114D02*
X0162106Y0164961D01*
X0150295Y0154921D02*
Y0161122D01*
X0140256Y0171161D02*
X0150295Y0161122D01*
X0101279Y0171161D02*
X0140256D01*
X0138484Y0149016D02*
Y0158465D01*
X0137323Y0159626D02*
X0138484Y0158465D01*
X0133366Y0159764D02*
X0133504Y0159626D01*
X0137323D01*
X0133366Y0164764D02*
X0142819D01*
X0148327Y0159256D01*
X0100787Y0181102D02*
X0134059D01*
X0089902Y0170217D02*
X0100787Y0181102D01*
X0089902Y0163071D02*
Y0170217D01*
X0099902Y0169783D02*
X0101279Y0171161D01*
X0099902Y0163071D02*
Y0169783D01*
X0123031Y0142224D02*
X0126083Y0139173D01*
X0099902Y0148130D02*
Y0153071D01*
X0105807Y0142224D02*
X0123031D01*
X0099902Y0148130D02*
X0105807Y0142224D01*
X0156201Y0126404D02*
Y0126476D01*
Y0121457D02*
Y0126404D01*
X0126083Y0139173D02*
X0138484D01*
X0152264Y0154921D02*
Y0162898D01*
X0134059Y0181102D02*
X0152264Y0162898D01*
X0166043Y0154921D02*
Y0177264D01*
X0148253Y0195054D02*
X0166043Y0177264D01*
X0164075Y0154921D02*
Y0170177D01*
X0142953Y0191299D02*
X0164075Y0170177D01*
X0142953Y0191299D02*
Y0201693D01*
X0148253Y0195054D02*
Y0206392D01*
X0162106Y0154921D02*
Y0164961D01*
X0102953Y0194745D02*
Y0201693D01*
X0047835Y0112500D02*
X0057414D01*
X0076181Y0131267D02*
Y0176181D01*
X0057414Y0112500D02*
X0076181Y0131267D01*
X0047850Y0123316D02*
X0057414D01*
X0070472Y0179213D02*
X0092953Y0201693D01*
X0070472Y0136375D02*
Y0179213D01*
X0057414Y0123316D02*
X0070472Y0136375D01*
X0047835Y0132185D02*
X0054429D01*
X0064075Y0182815D02*
X0082953Y0201693D01*
X0064075Y0141831D02*
Y0182815D01*
X0054429Y0132185D02*
X0064075Y0141831D01*
X0047835Y0142618D02*
X0052953D01*
X0061516Y0200256D02*
X0062953D01*
X0059055Y0148721D02*
Y0197795D01*
X0052953Y0142618D02*
X0059055Y0148721D01*
Y0197795D02*
X0061516Y0200256D01*
X0062953D02*
Y0201693D01*
X0171949Y0075000D02*
Y0127362D01*
X0160925Y0063976D02*
X0171949Y0075000D01*
X0160433Y0063484D02*
X0160531D01*
X0160925Y0063878D01*
Y0063976D01*
X0148327Y0154921D02*
Y0159256D01*
X0150295Y0152406D02*
Y0154921D01*
X0135586Y0137500D02*
X0135881Y0137205D01*
X0150689Y0133268D02*
X0171949D01*
X0195453Y0022621D02*
Y0032106D01*
X0133169Y0020105D02*
X0192937D01*
X0195453Y0022621D01*
X0166043Y0097047D02*
Y0100295D01*
X0160482Y0097097D02*
Y0100246D01*
Y0097097D02*
X0160531Y0097047D01*
X0160433Y0100295D02*
X0160482Y0100246D01*
X0160433Y0032126D02*
X0160453Y0032106D01*
X0160433Y0032126D02*
Y0059547D01*
X0172953Y0183740D02*
X0172992Y0183701D01*
Y0179764D02*
X0173031Y0179724D01*
X0172992Y0179764D02*
Y0183701D01*
X0172953Y0201693D02*
X0172963Y0201683D01*
X0142953Y0211693D02*
X0148253Y0206392D01*
X0047539Y0142323D02*
X0047835Y0142618D01*
X0047736Y0162008D02*
Y0196909D01*
X0042953Y0201693D02*
X0047736Y0196909D01*
Y0151476D02*
X0050935D01*
X0052953Y0153494D02*
Y0201693D01*
X0050935Y0151476D02*
X0052953Y0153494D01*
X0036614Y0102657D02*
X0036663Y0102707D01*
X0047589D01*
X0047638Y0102756D01*
X0036614Y0112500D02*
X0047835D01*
X0047702Y0123267D02*
X0047801D01*
X0036614Y0122343D02*
X0046778D01*
X0047702Y0123267D01*
X0036614Y0132185D02*
X0047835D01*
X0036909Y0142323D02*
X0047539D01*
X0036614Y0142028D02*
X0036909Y0142323D01*
X0036614Y0151673D02*
X0047539D01*
X0047736Y0151476D01*
X0036417Y0151870D02*
X0036614Y0151673D01*
X0036909Y0162008D02*
X0047736D01*
X0036614Y0161713D02*
X0036909Y0162008D01*
X0076181Y0176181D02*
X0098130Y0198130D01*
Y0206870D01*
X0102953Y0211693D01*
X0172963Y0190246D02*
Y0201683D01*
X0135138Y0129331D02*
X0138484D01*
X0134055Y0130413D02*
X0135138Y0129331D01*
X0133957Y0130413D02*
X0134055D01*
X0134941Y0127362D02*
X0138484D01*
X0134055Y0126476D02*
X0134941Y0127362D01*
X0133957Y0126476D02*
X0134055D01*
X0175492Y0147047D02*
X0176279Y0146260D01*
X0171949Y0147047D02*
X0175492D01*
X0176279Y0146260D02*
X0176378D01*
X0176279Y0150197D02*
X0176378D01*
X0171949Y0149016D02*
X0175098D01*
X0176279Y0150197D01*
X0160138Y0117700D02*
Y0121457D01*
X0158169Y0118898D02*
Y0121457D01*
X0156595Y0117323D02*
X0158169Y0118898D01*
X0173031Y0179724D02*
X0173081Y0179774D01*
X0134252Y0135236D02*
X0138484D01*
X0134252Y0135236D02*
X0134252Y0135236D01*
X0036614Y0132185D02*
X0037524Y0131275D01*
D15*
X-0035433Y0222441D02*
G03*
X-0039370Y0218504I0000000J-0003937D01*
G01*
X0255906D02*
G03*
X0251969Y0222441I-0003937J0000000D01*
G01*
X0000000Y0011811D02*
G03*
X0011811Y0000000I0011811J0000000D01*
G01*
X0244094D02*
G03*
X0255906Y0011811I0000000J0011811D01*
G01*
X0019685Y0139764D02*
G03*
X0015748Y0143701I-0003937J0000000D01*
G01*
X0003937Y0076772D02*
G03*
X0000000Y0072835I0000000J-0003937D01*
G01*
X-0039370Y0147638D02*
G03*
X-0035433Y0143701I0003937J0000000D01*
G01*
X0015748Y0076772D02*
G03*
X0019685Y0080709I0000000J0003937D01*
G01*
X0255906Y0011811D02*
Y0218504D01*
X-0035433Y0222441D02*
X0251969D01*
X-0039370Y0147638D02*
Y0218504D01*
X-0035433Y0143701D02*
X0015748D01*
X0000000Y0011811D02*
Y0072835D01*
X0011811Y0000000D02*
X0244094D01*
X0019685Y0080709D02*
Y0139764D01*
X0003937Y0076772D02*
X0015748D01*
D18*
X0047736Y0162008D02*
D03*
Y0158071D02*
D03*
X0173031Y0179724D02*
D03*
Y0175787D02*
D03*
X0047638Y0102756D02*
D03*
Y0098819D02*
D03*
X0047850Y0123316D02*
D03*
Y0119379D02*
D03*
X0047835Y0132185D02*
D03*
Y0136122D02*
D03*
X0047736Y0151476D02*
D03*
Y0155413D02*
D03*
X0047835Y0142618D02*
D03*
Y0138681D02*
D03*
Y0112500D02*
D03*
Y0116437D02*
D03*
X0160433Y0059547D02*
D03*
Y0063484D02*
D03*
X0166043Y0097047D02*
D03*
Y0093110D02*
D03*
X0160531Y0097047D02*
D03*
Y0093110D02*
D03*
D19*
X0138484Y0127362D02*
D03*
Y0129331D02*
D03*
Y0131299D02*
D03*
Y0133268D02*
D03*
Y0135236D02*
D03*
Y0137205D02*
D03*
Y0139173D02*
D03*
Y0141142D02*
D03*
Y0143110D02*
D03*
Y0145079D02*
D03*
Y0147047D02*
D03*
Y0149016D02*
D03*
X0171949D02*
D03*
Y0147047D02*
D03*
Y0145079D02*
D03*
Y0143110D02*
D03*
Y0141142D02*
D03*
Y0139173D02*
D03*
Y0137205D02*
D03*
Y0135236D02*
D03*
Y0133268D02*
D03*
Y0131299D02*
D03*
Y0129331D02*
D03*
Y0127362D02*
D03*
D20*
X0144390Y0154921D02*
D03*
X0146358D02*
D03*
X0148327D02*
D03*
X0150295D02*
D03*
X0152264D02*
D03*
X0154232D02*
D03*
X0156201D02*
D03*
X0158169D02*
D03*
X0160138D02*
D03*
X0162106D02*
D03*
X0164075D02*
D03*
X0166043D02*
D03*
Y0121457D02*
D03*
X0164075D02*
D03*
X0162106D02*
D03*
X0160138D02*
D03*
X0158169D02*
D03*
X0156201D02*
D03*
X0154232D02*
D03*
X0152264D02*
D03*
X0150295D02*
D03*
X0148327D02*
D03*
X0146358D02*
D03*
X0144390D02*
D03*
D21*
X0176378Y0150197D02*
D03*
Y0146260D02*
D03*
X0133957Y0126476D02*
D03*
Y0130413D02*
D03*
D22*
X0134252Y0135236D02*
D03*
X0130315D02*
D03*
D23*
X0160335Y0117224D02*
D03*
X0156398D02*
D03*
D32*
X0233858Y0046634D02*
D03*
X0022047D02*
D03*
D38*
X0222953Y0211693D02*
D03*
Y0201693D02*
D03*
X0212953Y0211693D02*
D03*
Y0201693D02*
D03*
X0202953Y0211693D02*
D03*
Y0201693D02*
D03*
X0192953Y0211693D02*
D03*
Y0201693D02*
D03*
X0182953Y0211693D02*
D03*
Y0201693D02*
D03*
X0172953Y0211693D02*
D03*
Y0201693D02*
D03*
X0162953Y0211693D02*
D03*
Y0201693D02*
D03*
X0152953Y0211693D02*
D03*
Y0201693D02*
D03*
X0142953Y0211693D02*
D03*
Y0201693D02*
D03*
X0132953Y0211693D02*
D03*
Y0201693D02*
D03*
X0122953Y0211693D02*
D03*
Y0201693D02*
D03*
X0112953Y0211693D02*
D03*
Y0201693D02*
D03*
X0102953Y0211693D02*
D03*
Y0201693D02*
D03*
X0092953Y0211693D02*
D03*
Y0201693D02*
D03*
X0082953Y0211693D02*
D03*
Y0201693D02*
D03*
X0072953Y0211693D02*
D03*
Y0201693D02*
D03*
X0062953Y0211693D02*
D03*
Y0201693D02*
D03*
X0052953Y0211693D02*
D03*
Y0201693D02*
D03*
X0042953Y0211693D02*
D03*
Y0201693D02*
D03*
X0032953Y0211693D02*
D03*
D39*
Y0201693D02*
D03*
D41*
X0050453Y0032106D02*
D03*
X0030453D02*
D03*
X0035453D02*
D03*
X0040453D02*
D03*
X0045453D02*
D03*
X0055453D02*
D03*
X0060453D02*
D03*
X0065453D02*
D03*
X0070453D02*
D03*
X0075453D02*
D03*
X0080453D02*
D03*
X0085453D02*
D03*
X0090453D02*
D03*
X0095453D02*
D03*
X0100453D02*
D03*
X0205453D02*
D03*
X0210453D02*
D03*
X0215453D02*
D03*
X0220453D02*
D03*
X0225453D02*
D03*
X0180453D02*
D03*
X0185453D02*
D03*
X0190453D02*
D03*
X0195453D02*
D03*
X0200453D02*
D03*
X0155453D02*
D03*
X0160453D02*
D03*
X0165453D02*
D03*
X0170453D02*
D03*
X0175453D02*
D03*
X0130453D02*
D03*
X0135453D02*
D03*
X0140453D02*
D03*
X0145453D02*
D03*
X0150453D02*
D03*
X0105453D02*
D03*
X0110453D02*
D03*
X0115453D02*
D03*
X0120453D02*
D03*
X0125453D02*
D03*
D42*
X0166043Y0100295D02*
D03*
Y0106791D02*
D03*
X0160433D02*
D03*
Y0100295D02*
D03*
X0172953Y0190236D02*
D03*
Y0183740D02*
D03*
D43*
X0187205Y0136960D02*
Y0146260D01*
X0179528Y0129283D02*
X0187205Y0136960D01*
X0050453Y0032106D02*
X0055453D01*
X0045453D02*
X0050453D01*
X0040453D02*
X0045453D01*
X0035453D02*
X0040453D01*
X0030453D02*
X0035453D01*
X0027362Y0137500D02*
Y0156693D01*
Y0117421D02*
Y0137500D01*
X0041634D01*
X0042815Y0138681D01*
X0047835D01*
X0047850Y0116437D02*
Y0119379D01*
X0027362Y0089862D02*
Y0117421D01*
X0040748D01*
X0042706Y0119379D01*
X0047850D01*
X0027362Y0156693D02*
Y0196102D01*
X0047638Y0079429D02*
Y0098819D01*
Y0063071D02*
Y0079429D01*
X0037795D02*
X0047638D01*
X0027362Y0089862D02*
X0037795Y0079429D01*
X0044626Y0158071D02*
X0047736D01*
X0027362Y0196102D02*
X0032953Y0201693D01*
X0027362Y0156693D02*
X0043248D01*
X0044626Y0158071D01*
X0047638Y0063071D02*
X0070453Y0040256D01*
Y0032106D02*
Y0040256D01*
X0047835Y0116437D02*
X0047850D01*
X0047835Y0136122D02*
Y0138681D01*
X0047736Y0155413D02*
Y0158071D01*
X0176378Y0150197D02*
X0183268D01*
X0187205Y0146260D01*
X0111594Y0164764D02*
X0127154D01*
X0109902Y0163071D02*
X0111594Y0164764D01*
X0085453Y0032106D02*
X0090453D01*
X0079882D02*
X0080167Y0032392D01*
X0080453Y0032106D02*
X0085453D01*
X0074882D02*
X0075167Y0032392D01*
X0075453Y0032106D02*
X0079882D01*
X0070453D02*
X0074882D01*
X0090453D02*
X0095453D01*
D44*
X0162205Y0108605D02*
Y0121358D01*
X0160433Y0106791D02*
X0161947Y0108306D01*
X0161926Y0108327D02*
X0162205Y0108605D01*
X0164075Y0108760D02*
X0166043Y0106791D01*
X0164075Y0108760D02*
Y0121457D01*
X0162106D02*
X0162205Y0121358D01*
D45*
X0089902Y0163071D02*
D03*
Y0153071D02*
D03*
X0099902Y0163071D02*
D03*
Y0153071D02*
D03*
X0109902D02*
D03*
X0036614Y0142028D02*
D03*
X0036417Y0151870D02*
D03*
X0036614Y0122343D02*
D03*
Y0132185D02*
D03*
Y0102657D02*
D03*
Y0112500D02*
D03*
Y0092815D02*
D03*
D46*
X0109902Y0163071D02*
D03*
D47*
X0133366Y0159764D02*
D03*
X0127154D02*
D03*
Y0154764D02*
D03*
X0133366Y0164764D02*
D03*
D48*
X0127154D02*
D03*
D49*
X0036614Y0161713D02*
D03*
D50*
X0173118Y0173936D02*
D03*
X0179528Y0129283D02*
D03*
X0132659Y0130140D02*
D03*
X0132455Y0127257D02*
D03*
X0128937Y0135236D02*
D03*
X0177953Y0146841D02*
D03*
X0040380Y0026476D02*
D03*
X0030341D02*
D03*
X0160459Y0091732D02*
D03*
X0165971D02*
D03*
X0145374Y0117224D02*
D03*
X0160138Y0115360D02*
D03*
X0156363Y0115536D02*
D03*
X0138189Y0124606D02*
D03*
X0142819Y0121286D02*
D03*
X0152264Y0127362D02*
D03*
X0143500Y0130913D02*
D03*
X0156201Y0126404D02*
D03*
X0129626Y0040945D02*
D03*
X0133169Y0020105D02*
D03*
M02*
