G04*
G04 #@! TF.GenerationSoftware,Altium Limited,Altium Designer,21.1.1 (26)*
G04*
G04 Layer_Color=8421504*
%FSAX25Y25*%
%MOIN*%
G70*
G04*
G04 #@! TF.SameCoordinates,385E19C8-3E5E-4D6B-97ED-1EBFA2F8C446*
G04*
G04*
G04 #@! TF.FilePolarity,Positive*
G04*
G01*
G75*
%ADD15C,0.01000*%
%ADD16R,0.01937X0.07843*%
%ADD17R,0.02756X0.02756*%
%ADD18R,0.02165X0.01968*%
%ADD19R,0.04724X0.01181*%
%ADD20R,0.01181X0.04724*%
%ADD21R,0.02165X0.01968*%
%ADD22R,0.01968X0.02165*%
%ADD23R,0.01968X0.02165*%
D15*
X-0035433Y0222441D02*
G03*
X-0039370Y0218504I0000000J-0003937D01*
G01*
X0255906D02*
G03*
X0251969Y0222441I-0003937J0000000D01*
G01*
X0000000Y0011811D02*
G03*
X0011811Y0000000I0011811J0000000D01*
G01*
X0244094D02*
G03*
X0255906Y0011811I0000000J0011811D01*
G01*
X0019685Y0139764D02*
G03*
X0015748Y0143701I-0003937J0000000D01*
G01*
X0003937Y0076772D02*
G03*
X0000000Y0072835I0000000J-0003937D01*
G01*
X-0039370Y0147638D02*
G03*
X-0035433Y0143701I0003937J0000000D01*
G01*
X0015748Y0076772D02*
G03*
X0019685Y0080709I0000000J0003937D01*
G01*
X0255906Y0011811D02*
Y0218504D01*
X-0035433Y0222441D02*
X0251969D01*
X-0039370Y0147638D02*
Y0218504D01*
X-0035433Y0143701D02*
X0015748D01*
X0000000Y0011811D02*
Y0072835D01*
X0011811Y0000000D02*
X0244094D01*
X0019685Y0080709D02*
Y0139764D01*
X0003937Y0076772D02*
X0015748D01*
D16*
X0050453Y0032106D02*
D03*
X0030453D02*
D03*
X0035453D02*
D03*
X0040453D02*
D03*
X0045453D02*
D03*
X0055453D02*
D03*
X0060453D02*
D03*
X0065453D02*
D03*
X0070453D02*
D03*
X0075453D02*
D03*
X0080453D02*
D03*
X0085453D02*
D03*
X0090453D02*
D03*
X0095453D02*
D03*
X0100453D02*
D03*
X0205453D02*
D03*
X0210453D02*
D03*
X0215453D02*
D03*
X0220453D02*
D03*
X0225453D02*
D03*
X0180453D02*
D03*
X0185453D02*
D03*
X0190453D02*
D03*
X0195453D02*
D03*
X0200453D02*
D03*
X0155453D02*
D03*
X0160453D02*
D03*
X0165453D02*
D03*
X0170453D02*
D03*
X0175453D02*
D03*
X0130453D02*
D03*
X0135453D02*
D03*
X0140453D02*
D03*
X0145453D02*
D03*
X0150453D02*
D03*
X0105453D02*
D03*
X0110453D02*
D03*
X0115453D02*
D03*
X0120453D02*
D03*
X0125453D02*
D03*
D17*
X0166043Y0100295D02*
D03*
Y0106791D02*
D03*
X0160433D02*
D03*
Y0100295D02*
D03*
X0172953Y0190236D02*
D03*
Y0183740D02*
D03*
D18*
X0047736Y0162008D02*
D03*
Y0158071D02*
D03*
X0173031Y0179724D02*
D03*
Y0175787D02*
D03*
X0047638Y0102756D02*
D03*
Y0098819D02*
D03*
X0047850Y0123316D02*
D03*
Y0119379D02*
D03*
X0047835Y0132185D02*
D03*
Y0136122D02*
D03*
X0047736Y0151476D02*
D03*
Y0155413D02*
D03*
X0047835Y0142618D02*
D03*
Y0138681D02*
D03*
Y0112500D02*
D03*
Y0116437D02*
D03*
X0160433Y0059547D02*
D03*
Y0063484D02*
D03*
X0166043Y0097047D02*
D03*
Y0093110D02*
D03*
X0160531Y0097047D02*
D03*
Y0093110D02*
D03*
D19*
X0138484Y0127362D02*
D03*
Y0129331D02*
D03*
Y0131299D02*
D03*
Y0133268D02*
D03*
Y0135236D02*
D03*
Y0137205D02*
D03*
Y0139173D02*
D03*
Y0141142D02*
D03*
Y0143110D02*
D03*
Y0145079D02*
D03*
Y0147047D02*
D03*
Y0149016D02*
D03*
X0171949D02*
D03*
Y0147047D02*
D03*
Y0145079D02*
D03*
Y0143110D02*
D03*
Y0141142D02*
D03*
Y0139173D02*
D03*
Y0137205D02*
D03*
Y0135236D02*
D03*
Y0133268D02*
D03*
Y0131299D02*
D03*
Y0129331D02*
D03*
Y0127362D02*
D03*
D20*
X0144390Y0154921D02*
D03*
X0146358D02*
D03*
X0148327D02*
D03*
X0150295D02*
D03*
X0152264D02*
D03*
X0154232D02*
D03*
X0156201D02*
D03*
X0158169D02*
D03*
X0160138D02*
D03*
X0162106D02*
D03*
X0164075D02*
D03*
X0166043D02*
D03*
Y0121457D02*
D03*
X0164075D02*
D03*
X0162106D02*
D03*
X0160138D02*
D03*
X0158169D02*
D03*
X0156201D02*
D03*
X0154232D02*
D03*
X0152264D02*
D03*
X0150295D02*
D03*
X0148327D02*
D03*
X0146358D02*
D03*
X0144390D02*
D03*
D21*
X0176378Y0150197D02*
D03*
Y0146260D02*
D03*
X0133957Y0126476D02*
D03*
Y0130413D02*
D03*
D22*
X0134252Y0135236D02*
D03*
X0130315D02*
D03*
D23*
X0160335Y0117224D02*
D03*
X0156398D02*
D03*
M02*
