M48
;Layer_Color=9474304
;FILE_FORMAT=2:5
INCH
;TYPE=PLATED
T1F00S00C0.01181
T2F00S00C0.02756
T3F00S00C0.03937
;TYPE=NON_PLATED
T4F00S00C0.04528
T5F00S00C0.10827
%
T01
X0133169Y0020105
X0129626Y0040945
X0160459Y0091732
X0165971
X0160138Y0115360
X0156363Y0115536
X0156201Y0126404
X0152264Y0127362
X0143500Y0130913
X0142819Y0121286
X0145374Y0117224
X0138189Y0124606
X0132455Y0127257
X0132659Y0130140
X0128937Y0135236
X0179528Y0129283
X0177953Y0146841
X0040380Y0026476
X0030341
X0173118Y0173936
T02
X0127154Y0154764
Y0159764
Y0164764
X0133366
Y0159764
T03
X0109902Y0153071
Y0163071
X0099902
X0089902
Y0153071
X0099902
X0036417Y0151870
X0036614Y0142028
Y0132185
Y0122343
Y0112500
Y0102657
Y0092815
Y0161713
X0032953Y0201693
X0042953
X0052953
X0062953
X0072953
X0082953
X0092953
Y0211693
X0082953
X0072953
X0062953
X0052953
X0042953
X0032953
X0102953
X0112953
X0122953
X0132953
X0142953
X0152953
X0162953
X0172953
X0182953
X0192953
X0202953
X0212953
X0222953
Y0201693
X0212953
X0202953
X0192953
X0182953
X0172953
X0162953
X0152953
X0142953
X0132953
X0122953
X0112953
X0102953
T04
X0233858Y0046634
X0022047
T05
X0013780Y0013780
X0242126
X0013780Y0206693
X0242126
M30
